<svg xmlns="http://www.w3.org/2000/svg" x="0px" y="0px"
width="24" height="24"
viewBox="0 0 172 172"
style=" fill:#000000;"><g fill="none" fill-rule="nonzero" stroke="none" stroke-width="1" stroke-linecap="butt" stroke-linejoin="miter" stroke-miterlimit="10" stroke-dasharray="" stroke-dashoffset="0" font-family="none" font-weight="none" font-size="none" text-anchor="none" style="mix-blend-mode: normal"><path d="M0,172v-172h172v172z" fill="none"></path><g fill="#1a5db4"><path d="M100.33333,43v-28.66667l43,43h-28.66667c-7.91917,0 -14.33333,-6.41417 -14.33333,-14.33333z"></path><circle cx="12" cy="11" transform="scale(7.16667,7.16667)" r="2"></circle><path d="M143.33333,104.77667v-47.44333l-43,-43h-50.16667c-11.87517,0 -21.5,9.62483 -21.5,21.5v100.33333c0,11.87517 9.62483,21.5 21.5,21.5h62.12067c5.90533,6.55033 14.36917,10.75 23.87933,10.75c17.80917,0 32.25,-14.44083 32.25,-32.25c0,-15.33667 -10.73567,-28.122 -25.08333,-31.39z" opacity="0.35"></path><path d="M100.33333,136.16667c0,-19.78717 16.04617,-35.83333 35.83333,-35.83333c19.78717,0 35.83333,16.04617 35.83333,35.83333c0,19.78717 -16.04617,35.83333 -35.83333,35.83333c-19.78717,0 -35.83333,-16.04617 -35.83333,-35.83333zM155.19417,133.44333l-20.28167,-17.31467c-2.32917,-1.98517 -5.9125,-0.32967 -5.9125,2.72333v10.148h-7.16667c-3.956,0 -7.16667,3.21067 -7.16667,7.16667c0,3.956 3.21067,7.16667 7.16667,7.16667h7.16667v10.148c0,3.06017 3.58333,4.7085 5.9125,2.72333l20.28167,-17.31467c1.66983,-1.42617 1.66983,-4.0205 0,-5.44667z"></path><path d="M95.05867,107.5h-26.97533c-5.934,0 -10.75,4.816 -10.75,10.75c0,5.934 4.816,10.75 10.75,10.75h18.49c1.1395,-7.912 4.09217,-15.22917 8.48533,-21.5z"></path></g></g></svg>
