<svg xmlns="http://www.w3.org/2000/svg" x="0px" y="0px"
width="24" height="24"
viewBox="0 0 172 172"
style=" fill:#000000;"><g fill="none" fill-rule="nonzero" stroke="none" stroke-width="1" stroke-linecap="butt" stroke-linejoin="miter" stroke-miterlimit="10" stroke-dasharray="" stroke-dashoffset="0" font-family="none" font-weight="none" font-size="none" text-anchor="none" style="mix-blend-mode: normal"><path d="M0,172v-172h172v172z" fill="none"></path><g fill="#1a5db4"><path d="M78.83333,122.68617c-5.72617,0 -11.4595,-2.17867 -15.81683,-6.536c-4.22833,-4.22117 -6.5575,-9.83983 -6.5575,-15.81683c0,-5.977 2.32917,-11.59567 6.5575,-15.81683l25.04033,-25.04033c2.80217,-2.80217 7.3315,-2.80217 10.13367,0c2.80217,2.80217 2.80217,7.3315 0,10.13367l-25.04033,25.04033c-1.51933,1.51933 -2.35783,3.53317 -2.35783,5.68317c0,2.15 0.8385,4.16383 2.35783,5.68317c3.139,3.12467 8.22733,3.12467 11.36633,0l37.51033,-37.50317c4.386,-4.386 6.80833,-10.22683 6.80833,-16.43317c0,-6.20633 -2.41517,-12.04717 -6.80833,-16.43317c-8.78633,-8.77917 -24.08,-8.77917 -32.86633,0l-41.98233,41.98233c-2.80217,2.80217 -7.3315,2.80217 -10.13367,0c-2.80217,-2.80217 -2.80217,-7.3315 0,-10.13367l41.98233,-41.98233c7.095,-7.095 16.5335,-11.008 26.56683,-11.008c10.03333,0 19.47183,3.913 26.56683,11.008c7.095,7.08783 11.008,16.5335 11.008,26.56683c0,10.03333 -3.90583,19.47183 -11.008,26.56683l-37.51033,37.50317c-4.35733,4.35733 -10.09067,6.536 -15.81683,6.536z"></path><path d="M74.35417,157.552c-13.51633,0 -27.0255,-5.1385 -37.31683,-15.42267c-9.96883,-9.96883 -15.4585,-23.22 -15.4585,-37.31683c0,-14.104 5.48967,-27.348 15.4585,-37.31683c2.80217,-2.80217 7.3315,-2.80217 10.13367,0c2.80217,2.80217 2.80217,7.3315 0,10.13367c-7.25983,7.25983 -11.25883,16.90617 -11.25883,27.18317c0,10.26983 3.999,19.91617 11.25883,27.18317c14.97833,14.97833 39.37367,14.97833 54.36633,0l29.5625,-29.5625c2.80217,-2.80217 7.3315,-2.80217 10.13367,0c2.80217,2.80217 2.80217,7.3315 0,10.13367l-29.5625,29.5625c-10.28417,10.29133 -23.8005,15.42267 -37.31683,15.42267z" opacity="0.35"></path></g></g></svg>