<svg xmlns="http://www.w3.org/2000/svg" x="0px" y="0px"
width="24" height="24"
viewBox="0 0 226 226"
style=" fill:#000000;"><g fill="none" fill-rule="nonzero" stroke="none" stroke-width="1" stroke-linecap="butt" stroke-linejoin="miter" stroke-miterlimit="10" stroke-dasharray="" stroke-dashoffset="0" font-family="none" font-weight="none" font-size="none" text-anchor="none" style="mix-blend-mode: normal"><path d="M0,226v-226h226v226z" fill="none"></path><g fill="#1a5db4"><path d="M95.30608,132.97275c5.51817,-5.51817 60.3985,-60.3985 65.91667,-65.91667c11.03633,-11.03633 11.03633,-28.91858 0,-39.95492c-11.03633,-11.03633 -28.91858,-11.03633 -39.95492,0c-5.51817,5.51817 -60.3985,60.3985 -65.91667,65.91667c-11.03633,11.03633 -11.03633,28.91858 0,39.95492c11.03633,11.03633 28.928,11.03633 39.95492,0z" opacity="0.35"></path><path d="M55.36058,132.97275c5.51817,5.51817 60.3985,60.3985 65.91667,65.91667c11.03633,11.03633 28.91858,11.03633 39.95492,0c11.03633,-11.03633 11.03633,-28.91858 0,-39.95492c-5.51817,-5.51817 -60.3985,-60.3985 -65.91667,-65.91667c-11.03633,-11.03633 -28.91858,-11.03633 -39.95492,0c-11.03633,11.03633 -11.03633,28.928 0,39.95492z"></path></g></g></svg>
