<svg xmlns="http://www.w3.org/2000/svg" x="0px" y="0px"
width="24" height="24"
viewBox="0 0 226 226"
style=" fill:#000000;"><g fill="none" fill-rule="nonzero" stroke="none" stroke-width="1" stroke-linecap="butt" stroke-linejoin="miter" stroke-miterlimit="10" stroke-dasharray="" stroke-dashoffset="0" font-family="none" font-weight="none" font-size="none" text-anchor="none" style="mix-blend-mode: normal"><path d="M0,226v-226h226v226z" fill="none"></path><g fill="#1a5db4"><path d="M54.27767,148.63267c-1.60083,0.36725 -3.28642,-0.113 -4.44467,-1.29008c-1.15825,-1.16767 -1.62908,-2.85325 -1.243,-4.45408c0.23542,-0.9605 5.97958,-23.53225 31.67767,-29.46475c1.34658,-0.31075 2.63667,-0.51792 3.91733,-0.70625l7.83467,-33.91883c-6.61992,-1.93983 -10.848,-6.78 -11.09283,-7.07192c-1.08292,-1.29008 -1.43133,-3.06983 -0.91342,-4.6895c0.5085,-1.60083 1.808,-2.81558 3.42767,-3.19225l12.80667,-2.95683c2.74967,-9.6615 12.57125,-15.61283 22.46817,-13.32458l15.38683,3.55008l-4.04917,-17.53383c-2.36358,-10.2265 -12.56183,-16.59217 -22.77892,-14.238l-92.53758,21.37583c-10.21708,2.35417 -16.59217,12.56183 -14.238,22.77892l15.35858,66.51933c7.92883,34.32375 47.97792,45.1435 68.12017,48.43933c3.68192,0.60267 7.37325,0.47083 10.92333,-0.31075c-8.01358,-9.91575 -14.45458,-21.90317 -15.43392,-35.33133zM25.40617,84.55225c-1.08292,-1.2995 -1.43133,-3.07925 -0.92283,-4.6895c0.5085,-1.61025 1.808,-2.825 3.42767,-3.19225l27.76033,-6.41275c1.61967,-0.37667 3.32408,0.15067 4.49175,1.38425c1.16767,1.23358 1.61967,2.9945 1.20533,4.64242c-0.13183,0.52733 -3.43708,12.94792 -15.30208,15.68817c-11.98742,2.7685 -20.31175,-7.006 -20.66017,-7.42033z"></path><path d="M166.0535,116.98325l27.76033,6.41275c1.61967,0.37667 3.32408,-0.15067 4.49175,-1.38425c1.16767,-1.23358 1.61967,-2.9945 1.20533,-4.64242c-0.13183,-0.52733 -3.43708,-12.94792 -15.3115,-15.68817c-11.98742,-2.7685 -20.31175,7.006 -20.66017,7.42033c-1.08292,1.2995 -1.43133,3.07925 -0.92283,4.6895c0.51792,1.60083 1.81742,2.81558 3.43708,3.19225z"></path><path d="M110.53283,104.15775l27.76033,6.41275c1.61967,0.37667 3.32408,-0.15067 4.49175,-1.38425c1.16767,-1.23358 1.61967,-2.9945 1.20533,-4.64242c-0.13183,-0.52733 -3.43708,-12.94792 -15.3115,-15.68817c-11.98742,-2.7685 -20.31175,7.006 -20.66017,7.42033c-1.08292,1.2995 -1.43133,3.07925 -0.92283,4.6895c0.51792,1.61025 1.81742,2.825 3.43708,3.19225z"></path><path d="M106.785,144.62117c1.15825,-1.16767 2.83442,-1.65733 4.44467,-1.29008l64.749,14.94425c1.60083,0.36725 2.90033,1.54433 3.42767,3.09808c0.52733,1.56317 0.21658,3.277 -0.83808,4.54825c-0.63092,0.76275 -15.6505,18.55083 -41.358,12.60892c-25.69808,-5.9325 -31.44225,-28.50425 -31.67767,-29.46475c-0.37667,-1.59142 0.09417,-3.277 1.25242,-4.44467z"></path><path d="M27.911,76.66108l27.76033,-6.41275c1.61967,-0.37667 3.32408,0.15067 4.49175,1.38425c1.16767,1.23358 1.61967,2.9945 1.20533,4.64242c-0.13183,0.53675 -3.43708,12.95733 -15.30208,15.69758c-11.98742,2.7685 -20.31175,-7.006 -20.66017,-7.42033c-1.08292,-1.2995 -1.43133,-3.07925 -0.92283,-4.6895c0.5085,-1.61025 1.808,-2.825 3.42767,-3.20167z" opacity="0.35"></path><path d="M211.26292,68.93l-92.547,-21.36642c-9.90633,-2.28825 -19.7185,3.66308 -22.46817,13.32458l-12.80667,2.95683c-1.61967,0.37667 -2.91917,1.59142 -3.42767,3.19225c-0.51792,1.61967 -0.1695,3.39942 0.91342,4.6895c0.24483,0.29192 4.47292,5.12267 11.08342,7.0625l-7.82525,33.92825c-1.28067,0.18833 -2.58017,0.3955 -3.91733,0.70625c-25.69808,5.9325 -31.44225,28.50425 -31.67767,29.46475c-0.38608,1.60083 0.08475,3.28642 1.243,4.45408c1.15825,1.16767 2.83442,1.65733 4.44467,1.29008l25.24608,-5.82892c1.99633,27.43075 26.80925,48.83483 41.04725,58.92008c6.25267,4.42583 13.88958,6.18675 21.44175,4.95317c20.15167,-3.29583 60.20075,-14.11558 68.12017,-48.43933l15.35858,-66.51933c2.36358,-10.2265 -4.00208,-20.42475 -14.22858,-22.78833z" opacity="0.35"></path></g></g></svg>
