<svg xmlns="http://www.w3.org/2000/svg" x="0px" y="0px"
width="24" height="24"
viewBox="0 0 172 172"
style=" fill:#000000;"><g fill="none" fill-rule="nonzero" stroke="none" stroke-width="1" stroke-linecap="butt" stroke-linejoin="miter" stroke-miterlimit="10" stroke-dasharray="" stroke-dashoffset="0" font-family="none" font-weight="none" font-size="none" text-anchor="none" style="mix-blend-mode: normal"><path d="M0,172v-172h172v172z" fill="none"></path><g fill="#95a5a6"><path d="M86,14.33333c-39.5815,0 -71.66667,32.08517 -71.66667,71.66667c0,11.40933 2.73767,22.15217 7.47483,31.72683l-7.2025,28.80283c-1.64117,6.5575 4.3,12.50583 10.86467,10.86467l28.80283,-7.2025c9.57467,4.73717 20.3175,7.47483 31.72683,7.47483c39.5815,0 71.66667,-32.08517 71.66667,-71.66667c0,-39.5815 -32.08517,-71.66667 -71.66667,-71.66667z" opacity="0.35"></path><path d="M107.5,78.83333h-43c-3.96317,0 -7.16667,-3.21067 -7.16667,-7.16667c0,-3.956 3.2035,-7.16667 7.16667,-7.16667h43c3.96317,0 7.16667,3.21067 7.16667,7.16667c0,3.956 -3.2035,7.16667 -7.16667,7.16667z"></path><path d="M93.16667,107.5h-28.66667c-3.96317,0 -7.16667,-3.21067 -7.16667,-7.16667c0,-3.956 3.2035,-7.16667 7.16667,-7.16667h28.66667c3.96317,0 7.16667,3.21067 7.16667,7.16667c0,3.956 -3.2035,7.16667 -7.16667,7.16667z"></path></g></g></svg>
