<svg xmlns="http://www.w3.org/2000/svg" x="0px" y="0px"
        width="48" height="48"
        viewBox="0 0 226 226"
        style=" fill:#000000;"><g fill="none" fill-rule="nonzero" stroke="none" stroke-width="1" stroke-linecap="butt" stroke-linejoin="miter" stroke-miterlimit="10" stroke-dasharray="" stroke-dashoffset="0" font-family="none" font-weight="none" font-size="none" text-anchor="none" style="mix-blend-mode: normal"><path d="M0,226v-226h226v226z" fill="none"></path><g fill="#1a5db4"><path d="M207.16667,150.66667c0,15.60342 -12.64658,28.25 -28.25,28.25h-85.0325c-5.91367,0 -11.66725,1.84567 -16.47917,5.27333l-26.555,18.9275c-13.46583,9.605 -32.01667,0 -32.01667,-16.385v-130.2325c0,-15.60342 12.64658,-28.25 28.25,-28.25h131.83333c15.60342,0 28.25,12.64658 28.25,28.25z" opacity="0.35"></path><circle cx="12" cy="11" transform="scale(9.41667,9.41667)" r="1.5"></circle><circle cx="17" cy="11" transform="scale(9.41667,9.41667)" r="1.5"></circle><circle cx="7" cy="11" transform="scale(9.41667,9.41667)" r="1.5"></circle></g></g></svg>
