<svg xmlns="http://www.w3.org/2000/svg" x="0px" y="0px"
width="24" height="24"
viewBox="0 0 226 226"
style=" fill:#000000;"><g fill="none" fill-rule="nonzero" stroke="none" stroke-width="1" stroke-linecap="butt" stroke-linejoin="miter" stroke-miterlimit="10" stroke-dasharray="" stroke-dashoffset="0" font-family="none" font-weight="none" font-size="none" text-anchor="none" style="mix-blend-mode: normal"><path d="M0,226v-226h226v226z" fill="none"></path><g fill="#1a5db4"><path d="M197.75,145.95833c0,-7.797 -6.328,-14.125 -14.125,-14.125c-7.797,0 -14.125,6.328 -14.125,14.125c0,1.65733 0,18.83333 0,18.83333c0,2.599 -2.10933,4.70833 -4.70833,4.70833h-103.58333c-2.599,0 -4.70833,-2.10933 -4.70833,-4.70833c0,0 0,-17.176 0,-18.83333c0,-7.797 -6.328,-14.125 -14.125,-14.125c-7.797,0 -14.125,6.328 -14.125,14.125c0,1.65733 0,23.54167 0,23.54167c0,15.60342 12.64658,28.25 28.25,28.25h113c15.60342,0 28.25,-12.64658 28.25,-28.25c0,0 0,-21.88433 0,-23.54167z" opacity="0.35"></path><path d="M133.32117,131.83333c3.79492,0 5.69708,4.5765 3.03217,7.26967l-18.96517,19.1535c-2.41067,2.43892 -6.35625,2.43892 -8.76692,0l-18.97458,-19.1535c-2.66492,-2.69317 -0.76275,-7.26967 3.03217,-7.26967z"></path><circle cx="12" cy="7" transform="scale(9.41667,9.41667)" r="4.5" opacity="0.35"></circle><path d="M113,18.83333c-25.99,0 -47.08333,21.09333 -47.08333,47.08333c0,25.99 21.09333,47.08333 47.08333,47.08333c25.99,0 47.08333,-21.09333 47.08333,-47.08333c0,-25.99 -21.09333,-47.08333 -47.08333,-47.08333zM121.7575,91.34167c0,4.04917 -3.20167,7.25083 -7.25083,7.25083c-4.04917,0 -7.25083,-3.20167 -7.25083,-7.25083v-40.9625l-3.86083,2.91917c-3.20167,2.44833 -7.6275,1.50667 -9.605,-1.88333c-0.565,-1.03583 -0.8475,-2.16583 -0.8475,-3.29583c0,-1.9775 0.94167,-3.955 2.63667,-5.17917l10.64083,-7.81583c1.695,-1.22417 3.76667,-1.88333 5.83833,-1.88333c5.3675,0 9.69917,4.33167 9.69917,9.69917z"></path></g></g></svg>
