<svg xmlns="http://www.w3.org/2000/svg" x="0px" y="0px"
width="24" height="24"
viewBox="0 0 172 172"
style=" fill:#000000;"><g fill="none" fill-rule="nonzero" stroke="none" stroke-width="1" stroke-linecap="butt" stroke-linejoin="miter" stroke-miterlimit="10" stroke-dasharray="" stroke-dashoffset="0" font-family="none" font-weight="none" font-size="none" text-anchor="none" style="mix-blend-mode: normal"><path d="M0,172v-172h172v172z" fill="none"></path><g fill="#1a5db4"><path d="M121.83333,157.66667h-71.66667c-11.87517,0 -21.5,-9.62483 -21.5,-21.5v-93.16667h114.66667v93.16667c0,11.87517 -9.62483,21.5 -21.5,21.5z" opacity="0.35"></path><path d="M114.66667,28.66667h-57.33333v-7.16667c0,-3.956 3.21067,-7.16667 7.16667,-7.16667h43c3.956,0 7.16667,3.21067 7.16667,7.16667z"></path><path d="M136.16667,21.5c-4.30717,0 -96.02617,0 -100.33333,0c-7.91917,0 -14.33333,6.41417 -14.33333,14.33333c0,7.91917 6.41417,14.33333 14.33333,14.33333c4.30717,0 96.02617,0 100.33333,0c7.91917,0 14.33333,-6.41417 14.33333,-14.33333c0,-7.91917 -6.41417,-14.33333 -14.33333,-14.33333z"></path><path d="M106.15267,130.54083l-50.36017,-50.36017c-2.752,-2.752 -2.752,-7.224 0,-9.976l0.07883,-0.07883c2.752,-2.752 7.224,-2.752 9.976,0l50.36017,50.36017c2.752,2.752 2.752,7.224 0,9.976l-0.07883,0.07883c-2.752,2.752 -7.224,2.752 -9.976,0z"></path><path d="M55.7925,120.486l50.36017,-50.36017c2.752,-2.752 7.224,-2.752 9.976,0l0.07883,0.07883c2.752,2.752 2.752,7.224 0,9.976l-50.36017,50.36017c-2.752,2.752 -7.224,2.752 -9.976,0l-0.07883,-0.07883c-2.752,-2.752 -2.752,-7.224 0,-9.976z"></path></g></g></svg>