<svg xmlns="http://www.w3.org/2000/svg" x="0px" y="0px"
width="48" height="48"
viewBox="0 0 226 226"
style=" fill:#000000;"><g fill="none" fill-rule="nonzero" stroke="none" stroke-width="1" stroke-linecap="butt" stroke-linejoin="miter" stroke-miterlimit="10" stroke-dasharray="" stroke-dashoffset="0" font-family="none" font-weight="none" font-size="none" text-anchor="none" style="mix-blend-mode: normal"><path d="M0,226v-226h226v226z" fill="none"></path><g fill="#1a5db4"><path d="M207.16667,65.91667c0,-15.60342 -12.64658,-28.25 -28.25,-28.25h-131.83333c-15.60342,0 -28.25,12.64658 -28.25,28.25v75.33333c0,15.60342 12.64658,28.25 28.25,28.25h75.33333h56.5c15.60342,0 28.25,-12.64658 28.25,-28.25z" opacity="0.35"></path><path d="M202.45833,169.5c-1.65733,0 -177.90908,0 -178.91667,0c-7.797,0 -14.125,6.328 -14.125,14.125c0,7.797 6.328,14.125 14.125,14.125c1.1865,0 177.73017,0 178.91667,0c7.797,0 14.125,-6.328 14.125,-14.125c0,-7.797 -6.328,-14.125 -14.125,-14.125z"></path><path d="M169.5,94.16667h-113c-5.20742,0 -9.41667,-4.21867 -9.41667,-9.41667c0,-5.198 4.20925,-9.41667 9.41667,-9.41667h113c5.20742,0 9.41667,4.21867 9.41667,9.41667c0,5.198 -4.20925,9.41667 -9.41667,9.41667z"></path><path d="M150.66667,131.83333h-94.16667c-5.20742,0 -9.41667,-4.21867 -9.41667,-9.41667c0,-5.198 4.20925,-9.41667 9.41667,-9.41667h94.16667c5.20742,0 9.41667,4.21867 9.41667,9.41667c0,5.198 -4.20925,9.41667 -9.41667,9.41667z"></path></g></g></svg>
