<svg xmlns="http://www.w3.org/2000/svg" x="0px" y="0px"
width="48" height="48"
viewBox="0 0 226 226"
style=" fill:#000000;"><g fill="none" fill-rule="nonzero" stroke="none" stroke-width="1" stroke-linecap="butt" stroke-linejoin="miter" stroke-miterlimit="10" stroke-dasharray="" stroke-dashoffset="0" font-family="none" font-weight="none" font-size="none" text-anchor="none" style="mix-blend-mode: normal"><path d="M0,226v-226h226v226z" fill="none"></path><g fill="#1a5db4"><path d="M153.30333,150.66667l-29.0975,29.0975c-7.15667,7.15667 -11.20583,16.95 -11.20583,26.93167v0.47083h-56.5c-15.63167,0 -28.25,-12.61833 -28.25,-28.25c0,-15.63167 12.61833,-28.25 28.25,-28.25z"></path><circle cx="12" cy="8" transform="scale(9.41667,9.41667)" r="5" opacity="0.35"></circle><path d="M193.60667,164.22667l-42.94,42.94h-47.08333c0,-9.98167 0,-56.5 0,-56.5h65.91667c10.26417,0 19.21,5.3675 24.10667,13.56z" opacity="0.35"></path><path d="M217.88283,135.374c-7.78758,-5.60292 -18.71092,-3.955 -25.49092,2.825l-54.918,54.918c-3.60658,3.616 -5.64058,8.51267 -5.64058,13.62592v11.85558c0,4.08683 3.31467,7.4015 7.4015,7.4015h11.85558c5.10383,0 10.00992,-2.02458 13.6165,-5.64058l55.64308,-55.64308c8.27725,-8.27725 7.458,-22.19508 -2.46717,-29.34233z"></path></g></g></svg>
