<svg xmlns="http://www.w3.org/2000/svg" x="0px" y="0px"
width="24" height="24"
viewBox="0 0 226 226"
style=" fill:#000000;"><g fill="none" fill-rule="nonzero" stroke="none" stroke-width="1" stroke-linecap="butt" stroke-linejoin="miter" stroke-miterlimit="10" stroke-dasharray="" stroke-dashoffset="0" font-family="none" font-weight="none" font-size="none" text-anchor="none" style="mix-blend-mode: normal"><path d="M0,226v-226h226v226z" fill="none"></path><g fill="#1a5db4"><path d="M158.77442,25.01067c6.33742,4.94375 9.44492,12.60892 10.95158,18.31542c1.09233,4.14333 -2.00575,8.11717 -6.29975,8.06067c-5.89483,-0.07533 -14.08733,-1.23358 -20.41533,-6.17733c-6.33742,-4.94375 -9.44492,-12.60892 -10.95158,-18.31542c-1.10175,-4.14333 1.99633,-8.11717 6.29033,-8.06067c5.89483,0.07533 14.08733,1.23358 20.42475,6.17733z"></path><path d="M202.58075,64.17458c-3.15458,7.39208 -9.76508,12.36408 -14.89717,15.27383c-3.729,2.11875 -8.362,0.14125 -9.40725,-4.02092c-1.43133,-5.72533 -2.41067,-13.93667 0.74392,-21.31933c3.15458,-7.39208 9.76508,-12.36408 14.89717,-15.27383c3.729,-2.11875 8.362,-0.14125 9.40725,4.02092c1.43133,5.71592 2.41067,13.92725 -0.74392,21.31933z"></path><path d="M170.81833,57.79008c7.61808,2.55192 13.09858,8.74808 16.42267,13.62592c2.41067,3.55008 0.80983,8.32433 -3.25817,9.69917c-5.5935,1.89275 -13.70125,3.52183 -21.30992,0.96992c-7.61808,-2.55192 -13.108,-8.74808 -16.42267,-13.62592c-2.41067,-3.55008 -0.80983,-8.32433 3.24875,-9.69917c5.5935,-1.89275 13.70125,-3.52183 21.31933,-0.96992z"></path><path d="M209.87867,113.77217c-5.66883,5.68767 -13.65417,7.8535 -19.50192,8.66333c-4.24692,0.58383 -7.81583,-2.97567 -7.24142,-7.22258c0.791,-5.84775 2.92858,-13.83308 8.59742,-19.52075c5.66883,-5.69708 13.65417,-7.8535 19.50192,-8.66333c4.24692,-0.58383 7.81583,2.97567 7.24142,7.22258c-0.78158,5.83833 -2.91917,13.83308 -8.59742,19.52075z"></path><path d="M182.75867,96.06883c6.13025,5.198 8.91758,12.98558 10.18883,18.74858c0.92283,4.19042 -2.33533,8.03242 -6.61992,7.797c-5.89483,-0.32017 -14.03083,-1.808 -20.15167,-7.006c-6.13025,-5.198 -8.927,-12.98558 -10.19825,-18.74858c-0.92283,-4.19042 2.33533,-8.03242 6.61992,-7.797c5.90425,0.32017 14.04025,1.808 20.16108,7.006z"></path><path d="M194.52008,161.95725c-7.63692,2.50483 -15.73525,0.80042 -21.30992,-1.13c-4.04917,-1.40308 -5.62175,-6.19617 -3.18283,-9.72742c3.35233,-4.84958 8.88933,-10.99867 16.51683,-13.49408c7.63692,-2.50483 15.73525,-0.80042 21.30992,1.13c4.04917,1.40308 5.62175,6.19617 3.18283,9.718c-3.35233,4.859 -8.87992,11.00808 -16.51683,13.5035z"></path><path d="M178.37992,133.87675c3.1075,7.41092 2.06225,15.62225 0.58383,21.32875c-1.0735,4.15275 -5.72533,6.09258 -9.4355,3.94558c-5.10383,-2.95683 -11.67667,-7.97592 -14.77475,-15.38683c-3.1075,-7.41092 -2.06225,-15.62225 -0.57442,-21.32875c1.0735,-4.15275 5.72533,-6.09258 9.4355,-3.94558c5.09442,2.95683 11.65783,7.97592 14.76533,15.38683z"></path><path d="M157.66325,194.73667c-8.01358,-0.52733 -14.89717,-5.13208 -19.34183,-9.00233c-3.23933,-2.81558 -2.90033,-7.84408 0.678,-10.20767c4.92492,-3.24875 12.35467,-6.893 20.36825,-6.35625c8.01358,0.52733 14.89717,5.13208 19.35125,9.00233c3.22992,2.81558 2.90033,7.84408 -0.678,10.20767c-4.93433,3.24875 -12.36408,6.88358 -20.37767,6.35625z"></path><path d="M153.1715,162.65408c0.113,8.03242 -3.91733,15.255 -7.42975,20.001c-2.55192,3.4465 -7.58983,3.52183 -10.2265,0.14125c-3.63483,-4.65183 -7.8535,-11.76142 -7.9665,-19.79383c-0.113,-8.03242 3.91733,-15.26442 7.42975,-20.01042c2.55192,-3.4465 7.58983,-3.52183 10.2265,-0.14125c3.63483,4.66125 7.86292,11.77083 7.9665,19.80325z"></path><path d="M195.39583,105.64558c0,-57.28158 -38.86258,-75.8795 -40.51992,-76.64225c-3.54067,-1.6385 -7.69342,-0.10358 -9.33192,3.41825c-1.65733,3.52183 -0.13183,7.71225 3.37117,9.379c1.32775,0.63092 32.35567,15.933 32.35567,63.83558c0,54.19292 -28.68317,61.44375 -56.40583,68.46858c-4.04917,1.02642 -8.03242,2.034 -11.865,3.18283c-3.82317,-1.14883 -7.81583,-2.16583 -11.865,-3.18283c-27.72267,-7.01542 -56.40583,-14.27567 -56.40583,-68.46858c0,-47.90258 31.02792,-63.20467 32.318,-63.81675c3.54067,-1.62908 5.085,-5.82892 3.4465,-9.36958c-1.62908,-3.55008 -5.85717,-5.085 -9.36958,-3.4465c-1.65733,0.76275 -40.51992,19.36067 -40.51992,76.64225c0,62.037 35.0865,73.902 62.87508,81.0775c-3.2205,2.64608 -5.97017,5.82892 -7.93825,9.92517c-1.695,3.51242 -0.20717,7.73108 3.30525,9.42608c0.97933,0.48025 2.034,0.69683 3.051,0.69683c2.62725,0 5.16033,-1.469 6.37508,-4.00208c2.4295,-5.05675 7.80642,-8.16425 14.72767,-10.61258c6.92125,2.44833 12.29817,5.55583 14.72767,10.61258c1.21475,2.53308 3.73842,4.00208 6.37508,4.00208c1.017,0 2.07167,-0.21658 3.051,-0.69683c3.51242,-1.695 4.99083,-5.91367 3.30525,-9.42608c-1.96808,-4.08683 -4.71775,-7.26967 -7.93825,-9.92517c27.78858,-7.1755 62.87508,-19.04992 62.87508,-81.0775z" opacity="0.35"></path><path d="M87.65033,18.83333c4.28458,-0.0565 7.39208,3.91733 6.29033,8.06067c-1.50667,5.7065 -4.61417,13.37167 -10.95158,18.31542c-6.328,4.94375 -14.51108,6.102 -20.41533,6.17733c-4.28458,0.0565 -7.39208,-3.90792 -6.29975,-8.06067c1.50667,-5.7065 4.61417,-13.37167 10.95158,-18.31542c6.33742,-4.94375 14.52992,-6.102 20.42475,-6.17733z"></path><path d="M22.68475,42.84583c1.04525,-4.16217 5.67825,-6.13967 9.40725,-4.02092c5.13208,2.91917 11.74258,7.89117 14.89717,15.27383c3.15458,7.39208 2.17525,15.60342 0.7345,21.32875c-1.03583,4.16217 -5.66883,6.13967 -9.39783,4.02092c-5.13208,-2.91917 -11.74258,-7.89117 -14.89717,-15.27383c-3.164,-7.39208 -2.18467,-15.60342 -0.74392,-21.32875z"></path><path d="M76.49158,58.76c4.05858,1.37483 5.66883,6.14908 3.24875,9.69917c-3.31467,4.87783 -8.79517,11.074 -16.42267,13.62592c-7.60867,2.55192 -15.72583,0.92283 -21.30992,-0.96992c-4.05858,-1.36542 -5.65942,-6.14908 -3.24875,-9.68975c3.31467,-4.88725 8.80458,-11.08342 16.42267,-13.63533c7.61808,-2.55192 15.72583,-0.92283 21.30992,0.96992z"></path><path d="M7.5145,94.25142c-0.57442,-4.25633 2.9945,-7.81583 7.25083,-7.22258c5.84775,0.80983 13.83308,2.96625 19.50192,8.66333c5.66883,5.68767 7.80642,13.673 8.59742,19.52075c0.57442,4.24692 -2.9945,7.80642 -7.24142,7.22258c-5.84775,-0.80983 -13.83308,-2.96625 -19.50192,-8.66333c-5.67825,-5.68767 -7.81583,-13.68242 -8.60683,-19.52075z"></path><path d="M63.393,89.06283c4.28458,-0.23542 7.54275,3.60658 6.61992,7.797c-1.27125,5.763 -4.068,13.55058 -10.19825,18.74858c-6.12083,5.198 -14.25683,6.68583 -20.15167,7.006c-4.28458,0.23542 -7.54275,-3.60658 -6.61992,-7.797c1.27125,-5.763 4.068,-13.55058 10.18883,-18.74858c6.13025,-5.198 14.26625,-6.68583 20.16108,-7.006z"></path><path d="M14.96308,148.46317c-2.43892,-3.53125 -0.87575,-8.31492 3.18283,-9.718c5.57467,-1.93042 13.673,-3.63483 21.30992,-1.13c7.6275,2.49542 13.1645,8.6445 16.51683,13.49408c2.43892,3.53125 0.87575,8.31492 -3.18283,9.72742c-5.57467,1.93042 -13.673,3.63483 -21.30992,1.13c-7.63692,-2.50483 -13.1645,-8.65392 -16.51683,-13.5035z"></path><path d="M62.40425,118.48992c3.71017,-2.147 8.362,-0.20717 9.4355,3.94558c1.47842,5.71592 2.52367,13.91783 -0.57442,21.32875c-3.09808,7.41092 -9.67092,12.43 -14.77475,15.38683c-3.71017,2.147 -8.362,0.20717 -9.4355,-3.94558c-1.47842,-5.71592 -2.52367,-13.91783 0.58383,-21.32875c3.08867,-7.41092 9.65208,-12.43 14.76533,-15.38683z"></path><path d="M47.9685,188.38042c-3.57833,-2.36358 -3.91733,-7.39208 -0.678,-10.20767c4.45408,-3.87967 11.32825,-8.475 19.35125,-9.00233c8.01358,-0.53675 15.44333,3.1075 20.36825,6.35625c3.57833,2.36358 3.91733,7.39208 0.678,10.20767c-4.45408,3.87967 -11.32825,8.475 -19.34183,9.00233c-8.023,0.52733 -15.45275,-3.1075 -20.37767,-6.35625z"></path><path d="M80.795,142.86025c2.64608,-3.38058 7.67458,-3.31467 10.2265,0.14125c3.503,4.746 7.54275,11.96858 7.42975,20.01042c-0.113,8.03242 -4.33167,15.142 -7.9665,19.79383c-2.63667,3.38058 -7.67458,3.31467 -10.2265,-0.14125c-3.503,-4.746 -7.54275,-11.96858 -7.42975,-20.001c0.10358,-8.04183 4.33167,-15.15142 7.9665,-19.80325z"></path></g></g></svg>
