<svg xmlns="http://www.w3.org/2000/svg" x="0px" y="0px"
width="24" height="24"
viewBox="0 0 226 226"
style=" fill:#000000;"><g fill="none" fill-rule="nonzero" stroke="none" stroke-width="1" stroke-linecap="butt" stroke-linejoin="miter" stroke-miterlimit="10" stroke-dasharray="" stroke-dashoffset="0" font-family="none" font-weight="none" font-size="none" text-anchor="none" style="mix-blend-mode: normal"><path d="M0,226v-226h226v226z" fill="none"></path><g fill="#1a5db4"><path d="M188.33333,37.66667h-150.66667v153.20917c0,12.10042 12.73133,19.96333 23.55108,14.55817l51.78225,-25.89583l51.78225,25.89583c10.81975,5.40517 23.55108,-2.46717 23.55108,-14.55817z" opacity="0.35"></path><path d="M183.625,28.25c-3.63483,0 -137.61517,0 -141.25,0c-7.797,0 -14.125,6.328 -14.125,14.125c0,7.797 6.328,14.125 14.125,14.125c3.63483,0 137.61517,0 141.25,0c7.797,0 14.125,-6.328 14.125,-14.125c0,-7.797 -6.328,-14.125 -14.125,-14.125z"></path></g></g></svg>
