<svg xmlns="http://www.w3.org/2000/svg" x="0px" y="0px"
width="48" height="48"
viewBox="0 0 226 226"
style=" fill:#000000;"><g fill="none" fill-rule="nonzero" stroke="none" stroke-width="1" stroke-linecap="butt" stroke-linejoin="miter" stroke-miterlimit="10" stroke-dasharray="" stroke-dashoffset="0" font-family="none" font-weight="none" font-size="none" text-anchor="none" style="mix-blend-mode: normal"><path d="M0,226v-226h226v226z" fill="none"></path><g fill="#1a5db4"><circle cx="12" cy="12" transform="scale(9.41667,9.41667)" r="10" opacity="0.35"></circle><path d="M129.20608,127.47342c0,0 13.25867,-7.345 13.25867,-28.59842c0,-15.86708 -7.93825,-32.95833 -28.79617,-32.95833h-21.22517c-4.9155,0 -8.90817,3.99267 -8.90817,8.90817v0c0,4.92492 3.99267,8.90817 8.90817,8.90817h18.22125c3.729,0 10.91392,2.825 10.91392,15.142c0,16.14958 -7.7405,18.08942 -11.3,18.08942h-19.22883c-4.15275,0 -7.5145,3.36175 -7.5145,7.5145v0c0,4.15275 3.36175,7.5145 7.5145,7.5145h19.20058l10.2265,21.05567c1.4125,4.19983 5.34867,7.03425 9.78392,7.03425c7.232,0 12.22283,-7.25083 9.64267,-14.00258z"></path><path d="M155.375,65.91667c-0.87575,0 -55.62425,0 -56.5,0c-2.599,0 -4.70833,2.10933 -4.70833,4.70833c0,2.599 2.10933,4.70833 4.70833,4.70833c0.87575,0 55.62425,0 56.5,0c2.599,0 4.70833,-2.10933 4.70833,-4.70833c0,-2.599 -2.10933,-4.70833 -4.70833,-4.70833z"></path><path d="M155.375,94.16667c-0.87575,0 -65.04092,0 -65.91667,0c-2.599,0 -4.70833,2.10933 -4.70833,4.70833c0,2.599 2.10933,4.70833 4.70833,4.70833c0.87575,0 65.04092,0 65.91667,0c2.599,0 4.70833,-2.10933 4.70833,-4.70833c0,-2.599 -2.10933,-4.70833 -4.70833,-4.70833z"></path></g></g></svg>
