<svg xmlns="http://www.w3.org/2000/svg" x="0px" y="0px"
width="24" height="24"
viewBox="0 0 226 226"
style=" fill:#000000;"><g fill="none" fill-rule="nonzero" stroke="none" stroke-width="1" stroke-linecap="butt" stroke-linejoin="miter" stroke-miterlimit="10" stroke-dasharray="" stroke-dashoffset="0" font-family="none" font-weight="none" font-size="none" text-anchor="none" style="mix-blend-mode: normal"><path d="M0,226v-226h226v226z" fill="none"></path><g fill="#1a5db4"><path d="M188.33333,150.66667v28.25l-18.65442,9.41667h-113.32958l-18.68267,-9.41667v-28.25l12.7125,-9.41667c5.17917,-11.11167 16.57333,-18.83333 29.6625,-18.83333h65.91667c13.08917,0 24.48333,7.72167 29.6625,18.83333z" opacity="0.35"></path><path d="M80.04167,188.33333h-47.08333c-12.995,0 -23.54167,-10.54667 -23.54167,-23.54167c0,-12.995 10.54667,-23.54167 23.54167,-23.54167h17.42083c-2.16583,4.2375 -3.29583,9.04 -3.29583,14.125c0,18.17417 14.78417,32.95833 32.95833,32.95833z"></path><path d="M216.58333,164.79167c0,12.995 -10.54667,23.54167 -23.54167,23.54167h-47.08333c18.17417,0 32.95833,-14.78417 32.95833,-32.95833c0,-5.085 -1.13,-9.8875 -3.29583,-14.125h17.42083c12.995,0 23.54167,10.54667 23.54167,23.54167z"></path><circle cx="12" cy="7" transform="scale(9.41667,9.41667)" r="4" opacity="0.35"></circle><circle cx="20" cy="9" transform="scale(9.41667,9.41667)" r="3" opacity="0.35"></circle><circle cx="4" cy="9" transform="scale(9.41667,9.41667)" r="3" opacity="0.35"></circle></g></g></svg>
