<svg xmlns="http://www.w3.org/2000/svg" x="0px" y="0px" width="48" height="48" viewBox="0 0 226 226"
        style=" fill:#000000;">
        <g fill="none" fill-rule="nonzero" stroke="none" stroke-width="1" stroke-linecap="butt" stroke-linejoin="miter" stroke-miterlimit="10" stroke-dasharray="" stroke-dashoffset="0" font-family="none" font-weight="none" font-size="none" text-anchor="none" style="mix-blend-mode: normal"><path d="M0,226v-226h226v226z" fill="none"></path><g fill="#1a5db4"><path d="M169.5,197.75h-113c-15.60342,0 -28.25,-12.64658 -28.25,-28.25v-86.96292c0,-10.26417 5.56525,-19.70908 14.52992,-24.6905l56.5,-31.38575c8.5315,-4.73658 18.90867,-4.73658 27.44017,0l56.5,31.38575c8.96467,4.98142 14.52992,14.43575 14.52992,24.6905v86.96292c0,15.60342 -12.64658,28.25 -28.25,28.25z" opacity="0.35"></path><path d="M141.25,197.75h-56.5v-56.5c0,-10.40542 8.42792,-18.83333 18.83333,-18.83333h18.83333c10.40542,0 18.83333,8.42792 18.83333,18.83333z"></path><path d="M193.03225,86.91583c-2.32592,0 -4.67067,-0.57442 -6.84592,-1.77975l-64.40058,-35.78333c-5.49933,-3.051 -12.05333,-3.051 -17.55267,0l-64.40058,35.78333c-6.82708,3.7855 -15.41508,1.33717 -19.21,-5.48992c-3.7855,-6.81767 -1.33717,-15.41508 5.48992,-19.21l64.40058,-35.78333c14.08733,-7.83467 30.9055,-7.82525 44.99283,0l64.40058,35.78333c6.81767,3.7855 9.27542,12.38292 5.48992,19.21c-2.58958,4.65183 -7.4015,7.26967 -12.36408,7.26967z"></path></g></g></svg>
