<svg xmlns="http://www.w3.org/2000/svg" x="0px" y="0px"
width="24" height="24"
viewBox="0 0 172 172"
style=" fill:#000000;"><g fill="none" fill-rule="nonzero" stroke="none" stroke-width="1" stroke-linecap="butt" stroke-linejoin="miter" stroke-miterlimit="10" stroke-dasharray="" stroke-dashoffset="0" font-family="none" font-weight="none" font-size="none" text-anchor="none" style="mix-blend-mode: normal"><path d="M0,172v-172h172v172z" fill="none"></path><g fill="#333333"><circle cx="5" cy="5.5" transform="scale(7.16667,7.16667)" r="2.5"></circle><path d="M78.83333,64.5h-28.66667h-14.33333h-7.16667c-11.87517,0 -21.5,9.62483 -21.5,21.5v32.25c0,4.67267 3.00283,8.60717 7.16667,10.09067c0,3.92017 0,7.2885 0,7.826c0,3.956 3.21067,7.16667 7.16667,7.16667c3.956,0 7.16667,-3.21067 7.16667,-7.16667c0,-0.50883 0,-3.53317 0,-7.16667c0,-3.956 3.21067,-7.16667 7.16667,-7.16667c3.956,0 7.16667,3.21067 7.16667,7.16667c0,3.6335 0,6.65783 0,7.16667c0,3.956 3.21067,7.16667 7.16667,7.16667c3.956,0 7.16667,-3.21067 7.16667,-7.16667c0,-0.5375 0,-3.90583 0,-7.826v-49.50733h21.5c3.956,0 7.16667,-3.21067 7.16667,-7.16667c0,-3.956 -3.21067,-7.16667 -7.16667,-7.16667z"></path><circle cx="11" cy="14" transform="scale(7.16667,7.16667)" r="1" opacity="0.35"></circle><circle cx="11" cy="18" transform="scale(7.16667,7.16667)" r="1" opacity="0.35"></circle><path d="M157.66667,107.5h-50.16667c-3.956,0 -7.16667,-3.21067 -7.16667,-7.16667v0c0,-3.956 3.21067,-7.16667 7.16667,-7.16667h50.16667c3.956,0 7.16667,3.21067 7.16667,7.16667v0c0,3.956 -3.21067,7.16667 -7.16667,7.16667z" opacity="0.35"></path><path d="M157.66667,78.83333h-50.16667c-3.956,0 -7.16667,-3.21067 -7.16667,-7.16667v0c0,-3.956 3.21067,-7.16667 7.16667,-7.16667h50.16667c3.956,0 7.16667,3.21067 7.16667,7.16667v0c0,3.956 -3.21067,7.16667 -7.16667,7.16667z" opacity="0.35"></path><path d="M157.66667,136.16667h-50.16667c-3.956,0 -7.16667,-3.21067 -7.16667,-7.16667v0c0,-3.956 3.21067,-7.16667 7.16667,-7.16667h50.16667c3.956,0 7.16667,3.21067 7.16667,7.16667v0c0,3.956 -3.21067,7.16667 -7.16667,7.16667z" opacity="0.35"></path></g></g></svg>