<svg xmlns="http://www.w3.org/2000/svg" x="0px" y="0px"
width="30" height="30"
viewBox="0 0 172 172"
style=" fill:#000000;"><g fill="none" fill-rule="nonzero" stroke="none" stroke-width="1" stroke-linecap="butt" stroke-linejoin="miter" stroke-miterlimit="10" stroke-dasharray="" stroke-dashoffset="0" font-family="none" font-weight="none" font-size="none" text-anchor="none" style="mix-blend-mode: normal"><path d="M0,172v-172h172v172z" fill="none"></path><g fill="#cccccc"><path d="M57.33333,28.66667c-6.33533,0 -11.46667,5.13133 -11.46667,11.46667v91.73333c0,6.33533 5.13133,11.46667 11.46667,11.46667h57.33333c6.33533,0 11.46667,-5.13133 11.46667,-11.46667v-91.73333c0,-6.33533 -5.13133,-11.46667 -11.46667,-11.46667zM17.2,40.13333c-6.33533,0 -11.46667,5.13133 -11.46667,11.46667v68.8c0,6.33533 5.13133,11.46667 11.46667,11.46667h17.2v-17.2h-17.2c0,-16.84453 14.78627,-12.06401 17.2,-19.30521v-4.8375c0,0 -4.4995,-4.23227 -4.8263,-7.12187c0,0 -2.34036,-0.87756 -2.34036,-4.52396c0,-1.88053 0.89583,-2.31796 0.89583,-2.31796c0,0 -1.97083,-2.73391 -1.97083,-6.24844c0,-6.11173 3.39673,-10.21591 8.25286,-11.98177v-18.19661zM137.6,40.13333v20.06667c4.94213,0 7.88333,4.50981 7.88333,10.36927c0,2.924 -1.6125,5.99089 -1.6125,5.99089c0,0 0.89583,0.30556 0.89583,2.31796c0,2.90107 -2.34036,4.52396 -2.34036,4.52396c-0.3268,2.89533 -4.8263,7.12188 -4.8263,7.12187v4.8263c2.41373,7.2412 17.2,2.40908 17.2,19.30521h-17.2v17.2h17.2c6.33533,0 11.46667,-5.13133 11.46667,-11.46667v-68.7888c0,-6.33533 -5.13133,-11.46667 -11.46667,-11.46667zM86,57.33333c3.63493,0 5.73333,2.86667 5.73333,2.86667c4.94213,0 7.88333,4.50981 7.88333,10.36927c0,2.924 -1.6125,5.99089 -1.6125,5.99089c0,0 0.89583,0.30556 0.89583,2.31796c0,2.90107 -2.34036,4.52396 -2.34036,4.52396c-0.3268,2.89533 -4.8263,7.12188 -4.8263,7.12187v4.8263c2.41373,7.2412 17.2,2.40908 17.2,19.30521h-45.86667c0.00708,-16.83014 14.78685,-12.05455 17.2,-19.29401v-4.8375c0,0 -4.4995,-4.23227 -4.8263,-7.12187c0,0 -2.34036,-0.87756 -2.34036,-4.52396c0,-1.88053 0.89583,-2.31796 0.89583,-2.31796c0,0 -1.97083,-2.73391 -1.97083,-6.24844c-0.00573,-8.3248 6.25793,-12.97839 13.975,-12.97839z"></path></g></g></svg>