<svg xmlns="http://www.w3.org/2000/svg" x="0px" y="0px"
width="50" height="50"
viewBox="0 0 226 226"
style=" fill:#000000;"><g fill="none" fill-rule="nonzero" stroke="none" stroke-width="1" stroke-linecap="butt" stroke-linejoin="miter" stroke-miterlimit="10" stroke-dasharray="" stroke-dashoffset="0" font-family="none" font-weight="none" font-size="none" text-anchor="none" style="mix-blend-mode: normal"><path d="M0,226v-226h226v226z" fill="none" stroke="none"></path><g id="original-icon" fill="#000000" stroke="none" opacity="0" visibility="hidden"><path d="M113,9.04c-0.6554,0 -1.31045,0.13489 -1.89805,0.40609l-99.44,46.51539c-1.6272,0.7232 -2.62195,2.34228 -2.62195,4.10508v7.73344h207.92v-7.73344c0,-1.7628 -0.99475,-3.38188 -2.62195,-4.10508l-99.44,-46.51539c-0.5876,-0.2712 -1.24265,-0.40609 -1.89805,-0.40609zM23.36805,76.84c1.356,3.9324 4.42995,7.7292 8.27195,9.04h4.52v72.32h22.6v-72.32h22.6v72.32h22.6v-72.32h18.08v72.32h22.6v-72.32h22.6v72.32h22.6v-72.32h4.52c3.842,-1.3108 6.91595,-5.1076 8.27195,-9.04zM35.46258,167.24c-7.09188,0 -12.86258,6.08392 -12.86258,13.56h180.8c0,-7.47608 -5.76618,-13.56 -12.86258,-13.56zM21.90258,189.84c-7.09188,0 -12.86258,6.08392 -12.86258,13.56v9.04h207.92v-9.04c0,-7.47608 -5.76618,-13.56 -12.86258,-13.56z"></path></g><g id="subtracted-icon" fill="#000000" stroke="none"><path d="M114.89805,9.44609l99.44,46.51539c1.6272,0.7232 2.62195,2.34228 2.62195,4.10508v7.73344h-207.92v-7.73344c0,-1.7628 0.99475,-3.38188 2.62195,-4.10508l99.44,-46.51539c0.5876,-0.2712 1.24265,-0.40609 1.89805,-0.40609c0.6554,0 1.31045,0.13489 1.89805,0.40609zM202.63195,76.84c-1.356,3.9324 -4.42995,7.7292 -8.27195,9.04h-4.52v41.43868c-2.94169,-0.49884 -5.96197,-0.75868 -9.04,-0.75868c-4.67776,0 -9.22216,0.60013 -13.56,1.72719l0,-42.40719h-22.6v54.57853c-5.49501,4.93329 -9.98596,10.96556 -13.11749,17.74147h-9.48251v-72.32h-18.08v72.32h-22.6v-72.32h-22.6v72.32h-22.6v-72.32h-4.52c-3.842,-1.3108 -6.91595,-5.1076 -8.27195,-9.04zM22.6,180.8c0,-7.47608 5.7707,-13.56 12.86258,-13.56l92.82461,0c-1.12706,4.33784 -1.72719,8.88224 -1.72719,13.56zM9.04,212.44v-9.04c0,-7.47608 5.7707,-13.56 12.86258,-13.56l105.4161,0c1.41071,8.31912 4.73279,16.00966 9.4946,22.6z"></path></g><g fill="#000000" stroke="none"><g id="Layer_9"><path d="M180.8,135.6c-24.86,0 -45.2,20.34 -45.2,45.2c0,24.86 20.34,45.2 45.2,45.2c24.86,0 45.2,-20.34 45.2,-45.2c0,-24.86 -20.34,-45.2 -45.2,-45.2zM185.32,202.496c0,0.452 -0.452,0.904 -0.904,0.904h-7.232c-0.452,0 -0.904,-0.452 -0.904,-0.904v-7.232c0,-0.452 0.452,-0.904 0.904,-0.904h7.232c0.452,0 0.904,0.452 0.904,0.904zM185.32,184.416c0,0.452 -0.452,0.904 -0.904,0.904h-7.232c-0.452,0 -0.904,-0.452 -0.904,-0.904v-25.312c0,-0.452 0.452,-0.904 0.904,-0.904h7.232c0.452,0 0.904,0.452 0.904,0.904z"></path></g><g opacity="0"><g id="IOS" font-family="Inter, sans-serif" font-weight="400" font-size="16" text-anchor="start" visibility="hidden"></g><g id="IOS_copy"><path d="M180.8,126.56c-29.832,0 -54.24,24.408 -54.24,54.24c0,29.832 24.408,54.24 54.24,54.24c29.832,0 54.24,-24.408 54.24,-54.24c0,-29.832 -24.408,-54.24 -54.24,-54.24z"></path></g></g></g><path d="M135.6,226v-90.4h90.4v90.4z" id="overlay-drag" fill="#ff0000" stroke="none" opacity="0"></path></g></svg>