<svg xmlns="http://www.w3.org/2000/svg" x="0px" y="0px"
width="50" height="50"
viewBox="0 0 50 50"
style=" fill:#000000;"><path d="M 22.03125 0.40625 C 18.351563 0.472656 15.632813 1.570313 14 3.71875 C 12.066406 6.265625 11.714844 10.144531 12.9375 15.21875 C 12.488281 15.769531 12.148438 16.605469 12.28125 17.71875 C 12.546875 19.921875 13.402344 20.828125 14.125 21.1875 C 14.46875 22.917969 15.421875 24.863281 16.34375 25.78125 L 16.34375 26.25 C 16.351563 27.265625 16.378906 28.144531 16.28125 29.28125 C 15.667969 30.6875 13.632813 31.511719 11.28125 32.4375 C 7.375 33.972656 2.488281 35.871094 2.125 41.9375 L 2.0625 43 L 34.46875 43 L 31.28125 40.21875 L 29.78125 38.90625 L 31.09375 37.375 L 33.71875 34.375 L 35.21875 35.6875 L 39.78125 39.65625 L 40.96875 38.15625 C 39.332031 34.324219 33.238281 32.632813 30.25 31.21875 C 29.535156 30.855469 28.921875 30.460938 28.5 30 C 28.320313 29.804688 28.179688 29.570313 28.0625 29.28125 C 27.964844 28.144531 27.957031 27.257813 27.96875 26.25 L 27.96875 25.78125 C 28.863281 24.867188 29.785156 22.917969 30.125 21.1875 C 30.847656 20.824219 31.703125 19.921875 31.96875 17.71875 C 32.101563 16.628906 31.777344 15.800781 31.34375 15.25 C 31.921875 13.269531 33.113281 8.113281 31.0625 4.8125 C 30.207031 3.429688 28.902344 2.558594 27.1875 2.21875 C 26.246094 1.027344 24.460938 0.40625 22.03125 0.40625 Z M 48.4375 31.90625 L 40.0625 42.5625 L 33.90625 37.1875 L 32.59375 38.6875 L 40.34375 45.4375 L 50 33.125 Z"></path></svg>