<svg xmlns="http://www.w3.org/2000/svg" x="0px" y="0px"
width="24" height="24"
viewBox="0 0 172 172"
style=" fill:#000000;"><g fill="none" fill-rule="nonzero" stroke="none" stroke-width="1" stroke-linecap="butt" stroke-linejoin="miter" stroke-miterlimit="10" stroke-dasharray="" stroke-dashoffset="0" font-family="none" font-weight="none" font-size="none" text-anchor="none" style="mix-blend-mode: normal"><path d="M0,172v-172h172v172z" fill="none"></path><g fill="#000000"><path d="M129,150.5h-86c-11.87517,0 -21.5,-9.62483 -21.5,-21.5v-78.83333h129v78.83333c0,11.87517 -9.62483,21.5 -21.5,21.5z" opacity="0.35"></path><path d="M129,21.5h-86c-11.87517,0 -21.5,9.62483 -21.5,21.5v7.16667h129v-7.16667c0,-11.87517 -9.62483,-21.5 -21.5,-21.5z"></path><circle cx="14" cy="18" transform="scale(7.16667,7.16667)" r="1"></circle><circle cx="10" cy="18" transform="scale(7.16667,7.16667)" r="1"></circle><circle cx="6" cy="18" transform="scale(7.16667,7.16667)" r="1"></circle><circle cx="6" cy="14" transform="scale(7.16667,7.16667)" r="1"></circle><circle cx="10" cy="14" transform="scale(7.16667,7.16667)" r="1"></circle><circle cx="14" cy="14" transform="scale(7.16667,7.16667)" r="1"></circle><circle cx="18" cy="14" transform="scale(7.16667,7.16667)" r="1"></circle><circle cx="18" cy="10" transform="scale(7.16667,7.16667)" r="1"></circle><circle cx="14" cy="10" transform="scale(7.16667,7.16667)" r="1"></circle><circle cx="10" cy="10" transform="scale(7.16667,7.16667)" r="1"></circle></g></g></svg>