<svg xmlns="http://www.w3.org/2000/svg" x="0px" y="0px"
width="50" height="50"
viewBox="0 0 226 226"
style=" fill:#000000;"><g fill="none" fill-rule="nonzero" stroke="none" stroke-width="1" stroke-linecap="butt" stroke-linejoin="miter" stroke-miterlimit="10" stroke-dasharray="" stroke-dashoffset="0" font-family="none" font-weight="none" font-size="none" text-anchor="none" style="mix-blend-mode: normal"><path d="M0,226v-226h226v226z" fill="none"></path><g fill="#333333"><path d="M160.08333,94.16667v-47.08333c0,-10.40542 -8.42792,-18.83333 -18.83333,-18.83333h-47.08333c-10.40542,0 -18.83333,8.42792 -18.83333,18.83333v28.25h-47.08333c-10.40542,0 -18.83333,8.42792 -18.83333,18.83333v65.91667c0,15.60342 12.64658,28.25 28.25,28.25h150.66667c15.60342,0 28.25,-12.64658 28.25,-28.25v-47.08333c0,-10.40542 -8.42792,-18.83333 -18.83333,-18.83333z" opacity="0.35"></path><path d="M113.51792,97.32125v-35.38783l-3.36175,2.5425c-2.70258,2.04342 -6.58225,1.243 -8.26783,-1.695v0c-1.42192,-2.486 -0.75333,-5.64058 1.55375,-7.32617l9.20008,-6.73292c1.45017,-1.0735 3.19225,-1.6385 4.98142,-1.6385v0c4.65183,0 8.4185,3.76667 8.4185,8.4185v41.81c0,3.45592 -2.80617,6.26208 -6.26208,6.26208v0c-3.45592,0.00942 -6.26208,-2.79675 -6.26208,-6.25267z"></path><path d="M64.98442,110.09025c0,9.8875 -6.75175,15.35858 -18.79567,29.61542h12.63717c3.01333,0 5.45225,2.43892 5.45225,5.45225v0c0,3.01333 -2.43892,5.45225 -5.45225,5.45225h-19.46425c-4.52,0 -8.18308,-3.66308 -8.18308,-8.18308v0c0,-1.95867 0.70625,-3.86083 1.9775,-5.33925c13.85192,-16.07425 19.42658,-20.70725 19.42658,-26.8375c0,-1.62908 -0.339,-5.92308 -4.73658,-5.92308c-2.51425,0 -3.91733,1.60083 -4.69892,3.40883c-0.98875,2.28825 -3.39,3.62542 -5.876,3.39v0c-3.94558,-0.36725 -6.54458,-4.50117 -4.90608,-8.09833c2.22233,-4.87783 6.7235,-9.52025 15.8765,-9.52025c13.3905,0 16.74283,10.02875 16.74283,16.58275z"></path><path d="M195.7725,152.81367c0,12.543 -9.30367,17.46792 -17.54325,17.46792c-7.76875,0 -12.43,-3.21108 -15.13258,-6.97775c-2.32592,-3.24875 -0.53675,-7.83467 3.3335,-8.814v0c2.39183,-0.61208 4.81192,0.44258 6.23383,2.45775c0.96992,1.38425 2.52367,2.55192 5.00967,2.55192c4.81192,0 5.90425,-4.96258 5.90425,-7.24142c0,-5.06617 -3.21108,-7.08133 -7.6275,-7.08133h-0.09417c-2.56133,0 -4.64242,-2.08108 -4.64242,-4.64242v0c0,-2.56133 2.08108,-4.64242 4.64242,-4.64242h0.41433c2.09992,0 6.52575,-0.7345 6.52575,-7.006c0,-1.57258 -0.64033,-5.90425 -5.11325,-5.90425c-1.93042,0 -3.18283,0.94167 -4.00208,2.07167c-1.28067,1.76092 -3.38058,2.712 -5.49933,2.19408l-0.71567,-0.17892c-3.46533,-0.85692 -5.10383,-4.94375 -3.04158,-7.8535c2.46717,-3.503 6.77058,-7.006 14.13442,-7.006c9.29425,0 16.12133,6.07375 16.12133,15.11375c0,7.64633 -4.13392,11.70492 -7.6275,12.66542v0.23542c2.98508,0.65917 8.71983,4.36933 8.71983,12.59008z"></path></g></g></svg>