<svg xmlns="http://www.w3.org/2000/svg" x="0px" y="0px"
width="30" height="30"
viewBox="0 0 226 226"
style=" fill:#000000;"><g fill="none" fill-rule="nonzero" stroke="none" stroke-width="1" stroke-linecap="butt" stroke-linejoin="miter" stroke-miterlimit="10" stroke-dasharray="" stroke-dashoffset="0" font-family="none" font-weight="none" font-size="none" text-anchor="none" style="mix-blend-mode: normal"><path d="M0,226v-226h226v226z" fill="none"></path><g fill="#000000"><path d="M52.73333,30.13333c-12.48164,0 -22.6,10.11836 -22.6,22.6c0,12.48164 10.11836,22.6 22.6,22.6c12.48164,0 22.6,-10.11836 22.6,-22.6c0,-12.48164 -10.11836,-22.6 -22.6,-22.6zM90.4,37.66667v15.06667h90.4v82.86667h-90.4v6.26797c-0.13446,0.81354 -0.13446,1.64363 0,2.45716v6.34154h97.93333h7.53333c2.71679,0.03842 5.24381,-1.38896 6.61342,-3.73558c1.36961,-2.34661 1.36961,-5.2489 0,-7.59552c-1.36961,-2.34661 -3.89663,-3.774 -6.61342,-3.73558v-90.4c-0.00042,-4.16037 -3.37296,-7.53292 -7.53333,-7.53333zM45.2,90.4c-8.32433,0 -15.06667,6.74233 -15.06667,15.06667v45.2h45.2v-37.66667c0,-4.1584 3.37493,-7.53333 7.53333,-7.53333h7.53333h30.13333c2.71679,0.03842 5.24381,-1.38896 6.61342,-3.73558c1.36961,-2.34661 1.36961,-5.2489 0,-7.59552c-1.36961,-2.34661 -3.89663,-3.774 -6.61342,-3.73558h-30.13333h-22.6zM45.2,165.73333c-8.32109,0 -15.06667,6.74558 -15.06667,15.06667c0,8.32109 6.74558,15.06667 15.06667,15.06667c8.32109,0 15.06667,-6.74558 15.06667,-15.06667c0,-8.32109 -6.74558,-15.06667 -15.06667,-15.06667zM90.4,165.73333c-8.32109,0 -15.06667,6.74558 -15.06667,15.06667c0,8.32109 6.74558,15.06667 15.06667,15.06667c8.32109,0 15.06667,-6.74558 15.06667,-15.06667c0,-8.32109 -6.74558,-15.06667 -15.06667,-15.06667zM135.6,165.73333c-8.32109,0 -15.06667,6.74558 -15.06667,15.06667c0,8.32109 6.74558,15.06667 15.06667,15.06667c8.32109,0 15.06667,-6.74558 15.06667,-15.06667c0,-8.32109 -6.74558,-15.06667 -15.06667,-15.06667zM180.8,165.73333c-8.32109,0 -15.06667,6.74558 -15.06667,15.06667c0,8.32109 6.74558,15.06667 15.06667,15.06667c8.32109,0 15.06667,-6.74558 15.06667,-15.06667c0,-8.32109 -6.74558,-15.06667 -15.06667,-15.06667z"></path></g></g></svg>