<svg xmlns="http://www.w3.org/2000/svg" x="0px" y="0px"
width="50" height="50"
viewBox="0 0 226 226"
style=" fill:#000000;"><g fill="none" fill-rule="nonzero" stroke="none" stroke-width="1" stroke-linecap="butt" stroke-linejoin="miter" stroke-miterlimit="10" stroke-dasharray="" stroke-dashoffset="0" font-family="none" font-weight="none" font-size="none" text-anchor="none" style="mix-blend-mode: normal"><path d="M0,226v-226h226v226z" fill="none"></path><g fill="#000000"><path d="M52.73333,15.06667c-8.32433,0 -15.06667,6.74233 -15.06667,15.06667v165.73333c0,8.32433 6.74233,15.06667 15.06667,15.06667h90.4c-12.46013,0 -22.6,-10.13987 -22.6,-22.6c0,-12.46013 10.13987,-22.6 22.6,-22.6h23.88008c-0.84373,-2.38807 -1.28008,-4.9268 -1.28008,-7.53333c0,-6.0342 2.34969,-11.71504 6.62109,-15.97891c4.26387,-4.2714 9.94471,-6.62109 15.97891,-6.62109v-105.46667c0,-8.32433 -6.74233,-15.06667 -15.06667,-15.06667zM90.4,37.66667c7.1868,0 9.41667,5.1056 9.41667,5.1056c6.42593,0 9.41667,7.03084 9.41667,15.28737c0,4.12073 -1.66263,7.53333 -1.66263,7.53333c0.66293,0.41433 1.77198,1.73278 1.50078,4.07565c-0.51227,4.3618 -2.262,5.47132 -3.3694,5.56172c-0.42187,4.068 -4.45444,9.2813 -5.8707,10.03463v6.81237c2.81747,9.16807 16.57333,4.67326 20.71667,20.92266h-60.28138c4.14333,-16.2494 17.8992,-11.75459 20.71667,-20.92266v-6.81237c-1.41627,-0.75333 -5.44884,-5.96663 -5.8707,-10.03463c-1.1074,-0.0904 -2.86431,-1.19992 -3.38411,-5.56172c-0.2712,-2.34287 0.83785,-3.66132 1.50078,-4.07565c0,0 -1.66263,-3.7742 -1.66263,-7.53333c0,-11.14933 5.52193,-20.39297 18.83333,-20.39297zM143.13333,67.8h15.06667c4.1584,0 7.53333,3.37493 7.53333,7.53333c0,4.1584 -3.37493,7.53333 -7.53333,7.53333h-15.06667c-4.1584,0 -7.53333,-3.37493 -7.53333,-7.53333c0,-4.1584 3.37493,-7.53333 7.53333,-7.53333zM143.13333,97.93333h15.06667c4.1584,0 7.53333,3.37493 7.53333,7.53333c0,4.1584 -3.37493,7.53333 -7.53333,7.53333h-15.06667c-4.1584,0 -7.53333,-3.37493 -7.53333,-7.53333c0,-4.1584 3.37493,-7.53333 7.53333,-7.53333zM67.8,135.6h75.33333c4.1584,0 7.53333,3.37493 7.53333,7.53333c0,4.1584 -3.37493,7.53333 -7.53333,7.53333h-75.33333c-4.1584,0 -7.53333,-3.37493 -7.53333,-7.53333c0,-4.1584 3.37493,-7.53333 7.53333,-7.53333zM188.33333,150.66667c-1.92665,0 -3.85353,0.73427 -5.3263,2.20703c-2.94553,2.94553 -2.94553,7.70707 0,10.6526l17.2737,17.2737h-57.1474c-4.16593,0 -7.53333,3.37493 -7.53333,7.53333c0,4.1584 3.3674,7.53333 7.53333,7.53333h57.1474l-17.2737,17.2737c-2.94553,2.94553 -2.94553,7.70707 0,10.6526c1.469,1.469 3.39777,2.20703 5.3263,2.20703c1.92853,0 3.8573,-0.73803 5.3263,-2.20703l30.11862,-30.13333c0.7006,-0.7006 1.26372,-1.51584 1.64792,-2.44245c0.76087,-1.83813 0.76087,-3.92957 0,-5.7677c-0.3842,-0.92661 -0.94732,-1.74938 -1.64792,-2.44245l-30.11862,-30.13333c-1.47277,-1.47277 -3.39965,-2.20703 -5.3263,-2.20703z"></path></g></g></svg>