<svg xmlns="http://www.w3.org/2000/svg" x="0px" y="0px"
width="90" height="90"
viewBox="0 0 172 172"
style=" fill:#000000;"><g fill="none" fill-rule="nonzero" stroke="none" stroke-width="1" stroke-linecap="butt" stroke-linejoin="miter" stroke-miterlimit="10" stroke-dasharray="" stroke-dashoffset="0" font-family="none" font-weight="none" font-size="none" text-anchor="none" style="mix-blend-mode: normal"><path d="M0,172v-172h172v172z" fill="none"></path><g fill="#34495e"><path d="M86,11.46667c-0.95911,0.00198 -1.9024,0.24454 -2.74349,0.70547l-62.51797,34.13125c-2.14201,0.8876 -3.53855,2.97798 -3.53854,5.29661c0,3.16643 2.5669,5.73333 5.73333,5.73333h63.06667h63.06667c3.16643,0 5.73333,-2.5669 5.73333,-5.73333c0,-2.31863 -1.39653,-4.40901 -3.53854,-5.29661l-62.55156,-34.15365c-0.83313,-0.44773 -1.76408,-0.68239 -2.70989,-0.68307zM86,28.66667c4.7472,0 8.6,3.8528 8.6,8.6c0,4.7472 -3.8528,8.6 -8.6,8.6c-4.7472,0 -8.6,-3.8528 -8.6,-8.6c0,-4.7472 3.8528,-8.6 8.6,-8.6zM34.4,68.8v22.93333h11.46667v-22.93333zM57.33333,68.8v22.93333h11.46667v-22.93333zM80.26667,68.8v22.93333h11.46667v-22.93333zM103.2,68.8v22.93333h11.46667v-22.93333zM126.13333,68.8v22.93333h11.46667v-22.93333zM34.4,103.2c-2.06765,-0.02924 -3.99087,1.05709 -5.03322,2.843c-1.04236,1.78592 -1.04236,3.99474 0,5.78066c1.04236,1.78592 2.96558,2.87225 5.03322,2.843h3.28099c-3.3624,8.48286 -9.01432,25.65449 -9.01432,45.86667h114.66667c0,-20.21218 -5.65193,-37.38381 -9.01433,-45.86667h3.28099c2.06765,0.02924 3.99087,-1.05709 5.03322,-2.843c1.04236,-1.78592 1.04236,-3.99474 0,-5.78066c-1.04236,-1.78592 -2.96558,-2.87225 -5.03322,-2.843zM103.2,114.66667c1.4663,0 2.93278,0.55882 4.05364,1.67969c2.24173,2.24173 2.24173,5.86556 0,8.10729l-22.93333,22.93333c-1.118,1.118 -2.58591,1.67969 -4.05364,1.67969c-1.46773,0 -2.93564,-0.56169 -4.05364,-1.67969l-11.46667,-11.46667c-2.24173,-2.24173 -2.24173,-5.86556 0,-8.10729c2.24173,-2.24173 5.86556,-2.24173 8.10729,0l7.41302,7.41302l18.87969,-18.87969c1.12087,-1.12087 2.58734,-1.67969 4.05364,-1.67969z"></path></g></g></svg>