<svg xmlns="http://www.w3.org/2000/svg" x="0px" y="0px"
width="50" height="50"
viewBox="0 0 226 226"
style=" fill:#000000;"><g fill="none" fill-rule="nonzero" stroke="none" stroke-width="1" stroke-linecap="butt" stroke-linejoin="miter" stroke-miterlimit="10" stroke-dasharray="" stroke-dashoffset="0" font-family="none" font-weight="none" font-size="none" text-anchor="none" style="mix-blend-mode: normal"><path d="M0,226v-226h226v226z" fill="none"></path><g fill="#000000"><path d="M105.35367,22.23275l-65.91667,29.29525c-6.80825,3.02275 -11.187,9.76508 -11.187,17.21367v110.175c0,10.40542 8.42792,18.83333 18.83333,18.83333h131.83333c10.40542,0 18.83333,-8.42792 18.83333,-18.83333v-110.175c0,-7.43917 -4.37875,-14.19092 -11.187,-17.21367l-65.91667,-29.29525c-4.86842,-2.16583 -10.42425,-2.16583 -15.29267,0zM84.75,169.5h-18.83333v-18.83333h18.83333zM84.75,131.83333h-18.83333v-18.83333h18.83333zM84.75,94.16667h-18.83333v-18.83333h18.83333zM122.41667,169.5h-18.83333v-18.83333h18.83333zM122.41667,131.83333h-18.83333v-18.83333h18.83333zM122.41667,94.16667h-18.83333v-18.83333h18.83333zM160.08333,169.5h-18.83333v-18.83333h18.83333zM160.08333,131.83333h-18.83333v-18.83333h18.83333zM160.08333,94.16667h-18.83333v-18.83333h18.83333z"></path></g></g></svg>