<svg xmlns="http://www.w3.org/2000/svg" x="0px" y="0px"
width="48" height="48"
viewBox="0 0 172 172"
style=" fill:#000000;"><g fill="none" fill-rule="nonzero" stroke="none" stroke-width="1" stroke-linecap="butt" stroke-linejoin="miter" stroke-miterlimit="10" stroke-dasharray="" stroke-dashoffset="0" font-family="none" font-weight="none" font-size="none" text-anchor="none" style="mix-blend-mode: normal"><path d="M0,172v-172h172v172z" fill="none"></path><g fill="#cccccc"><path d="M86,17.2c-37.93747,0 -68.8,30.86253 -68.8,68.8c0,37.93747 30.86253,68.8 68.8,68.8c5.9512,0 11.69027,-0.83438 17.2,-2.26198v-30.06641c-4.51787,12.85987 -11.04813,20.86172 -17.2,20.86172c-7.3272,0 -15.22236,-11.24307 -19.57396,-28.66667h36.77396v-11.46667h-38.97995c-0.7396,-5.3836 -1.15339,-11.15133 -1.15339,-17.2c0,-6.10056 0.52602,-11.77736 1.27656,-17.2h43.31354c0.75054,5.42264 1.27656,11.09944 1.27656,17.2c0,1.57093 -0.10517,3.06581 -0.15677,4.60234c3.06733,-2.83227 7.12851,-4.60234 11.62344,-4.60234c0,-5.9974 -0.38377,-11.72933 -1.04141,-17.2h21.32083c1.71365,5.43221 2.65391,11.20812 2.65391,17.2c0,3.98467 -0.45204,7.85691 -1.23177,11.61224l10.03333,7.15547c1.69707,-5.97413 2.66511,-12.25464 2.66511,-18.76771c0,-37.93747 -30.86253,-68.8 -68.8,-68.8zM86,28.66667c7.30904,0 15.1049,11.31886 19.46198,28.66667h-38.92396c4.35708,-17.3478 12.15294,-28.66667 19.46198,-28.66667zM63.425,33.3138c-3.80642,6.46435 -6.83365,14.64498 -8.87995,24.01953h-18.16302c6.1728,-10.63379 15.65953,-19.12219 27.04297,-24.01953zM108.575,33.3138c11.38344,4.89734 20.87017,13.38574 27.04297,24.01953h-18.16302c-2.0463,-9.37455 -5.07353,-17.55518 -8.87995,-24.01953zM31.32057,68.8h21.32083c-0.65764,5.47067 -1.04141,11.2026 -1.04141,17.2c0,5.99707 0.38781,11.72467 1.04141,17.2h-21.33203c-1.70853,-5.4352 -2.64271,-11.20867 -2.64271,-17.2c0,-5.99188 0.94026,-11.76779 2.65391,-17.2zM120.48958,97.39948c-1.649,-0.03517 -3.23329,0.64147 -4.34811,1.85705c-1.11482,1.21558 -1.65218,2.85236 -1.47481,4.49217v51.0513c0,3.1648 2.56853,5.73333 5.73333,5.73333c1.6512,0 3.11096,-0.71846 4.15442,-1.83646l0.0336,0.0112l10.78359,-12.74323l11.43308,22.86615c0.91594,1.83265 2.7401,3.03736 4.7852,3.16022c2.04511,0.12287 4.00038,-0.85477 5.12915,-2.56458c1.12877,-1.70981 1.2595,-3.89196 0.34294,-5.7243l-11.66823,-23.32526l16.71849,-3.00104l0.0112,-0.10079c2.3736,-0.69373 4.14323,-2.80566 4.14323,-5.40859c0,-2.00093 -1.09444,-3.67686 -2.65391,-4.70312l0.0224,-0.11198l-39.21511,-27.97239c-1.0447,-1.04555 -2.45279,-1.6473 -3.93047,-1.67969zM36.42682,114.66667h18.10703c2.04107,9.3912 5.07302,17.55233 8.87995,24.01953c-11.3692,-4.89627 -20.81218,-13.38993 -26.98698,-24.01953z"></path></g></g></svg>