<svg xmlns="http://www.w3.org/2000/svg" x="0px" y="0px"
width="96" height="96"
viewBox="0 0 172 172"
style=" fill:#000000;"><defs><linearGradient x1="25.01883" y1="85.06475" x2="37.52108" y2="128.06475" gradientUnits="userSpaceOnUse" id="color-1_rnh5ofYIRjYP_gr1"><stop offset="0" stop-color="#0d61a9"></stop><stop offset="1" stop-color="#16528c"></stop></linearGradient><radialGradient cx="33.9961" cy="62.26741" r="22.05344" gradientUnits="userSpaceOnUse" id="color-2_rnh5ofYIRjYP_gr2"><stop offset="0" stop-color="#ffcf54"></stop><stop offset="0.261" stop-color="#fdcb4d"></stop><stop offset="0.639" stop-color="#f7c13a"></stop><stop offset="1" stop-color="#f0b421"></stop></radialGradient><radialGradient cx="16.48856" cy="37.63616" r="52.16251" gradientUnits="userSpaceOnUse" id="color-3_rnh5ofYIRjYP_gr3"><stop offset="0" stop-color="#c26715"></stop><stop offset="0.508" stop-color="#b85515"></stop><stop offset="1" stop-color="#ad3f16"></stop></radialGradient><radialGradient cx="31.0628" cy="41.13009" r="57.61858" gradientUnits="userSpaceOnUse" id="color-4_rnh5ofYIRjYP_gr4"><stop offset="0" stop-color="#c26715"></stop><stop offset="0.508" stop-color="#b85515"></stop><stop offset="1" stop-color="#ad3f16"></stop></radialGradient><linearGradient x1="128.93908" y1="85.06475" x2="141.43775" y2="128.06475" gradientUnits="userSpaceOnUse" id="color-5_rnh5ofYIRjYP_gr5"><stop offset="0" stop-color="#0d61a9"></stop><stop offset="1" stop-color="#16528c"></stop></linearGradient><radialGradient cx="137.9136" cy="62.26741" r="22.05344" gradientUnits="userSpaceOnUse" id="color-6_rnh5ofYIRjYP_gr6"><stop offset="0" stop-color="#ffcf54"></stop><stop offset="0.261" stop-color="#fdcb4d"></stop><stop offset="0.639" stop-color="#f7c13a"></stop><stop offset="1" stop-color="#f0b421"></stop></radialGradient><radialGradient cx="120.40605" cy="37.63616" r="52.16251" gradientUnits="userSpaceOnUse" id="color-7_rnh5ofYIRjYP_gr7"><stop offset="0" stop-color="#c26715"></stop><stop offset="0.508" stop-color="#b85515"></stop><stop offset="1" stop-color="#ad3f16"></stop></radialGradient><radialGradient cx="134.97986" cy="41.13009" r="57.61858" gradientUnits="userSpaceOnUse" id="color-8_rnh5ofYIRjYP_gr8"><stop offset="0" stop-color="#c26715"></stop><stop offset="0.508" stop-color="#b85515"></stop><stop offset="1" stop-color="#ad3f16"></stop></radialGradient><linearGradient x1="75.79467" y1="97.72467" x2="89.87717" y2="146.16058" gradientUnits="userSpaceOnUse" id="color-9_rnh5ofYIRjYP_gr9"><stop offset="0" stop-color="#33bef0"></stop><stop offset="1" stop-color="#0a85d9"></stop></linearGradient><radialGradient cx="85.94696" cy="71.3434" r="25.53474" gradientUnits="userSpaceOnUse" id="color-10_rnh5ofYIRjYP_gr10"><stop offset="0" stop-color="#ffcf54"></stop><stop offset="0.261" stop-color="#fdcb4d"></stop><stop offset="0.639" stop-color="#f7c13a"></stop><stop offset="1" stop-color="#f0b421"></stop></radialGradient><radialGradient cx="65.67522" cy="42.82651" r="60.3982" gradientUnits="userSpaceOnUse" id="color-11_rnh5ofYIRjYP_gr11"><stop offset="0" stop-color="#c26715"></stop><stop offset="0.508" stop-color="#b85515"></stop><stop offset="1" stop-color="#ad3f16"></stop></radialGradient><radialGradient cx="82.54852" cy="46.87011" r="66.71514" gradientUnits="userSpaceOnUse" id="color-12_rnh5ofYIRjYP_gr12"><stop offset="0" stop-color="#c26715"></stop><stop offset="0.508" stop-color="#b85515"></stop><stop offset="1" stop-color="#ad3f16"></stop></radialGradient></defs><g fill="none" fill-rule="nonzero" stroke="none" stroke-width="1" stroke-linecap="butt" stroke-linejoin="miter" stroke-miterlimit="10" stroke-dasharray="" stroke-dashoffset="0" font-family="none" font-weight="none" font-size="none" text-anchor="none" style="mix-blend-mode: normal"><path d="M0,172v-172h172v172z" fill="none"></path><g><path d="M34.04167,85.97492c-18.80175,0 -34.04167,11.07608 -34.04167,22.49258v16.58367c0,2.18225 1.76658,3.94883 3.94883,3.94883h61.0385c1.70925,0 3.096,-1.38675 3.096,-3.096v-17.4365c0,-11.41292 -15.23992,-22.49258 -34.04167,-22.49258z" fill="url(#color-1_rnh5ofYIRjYP_gr1)"></path><path d="M43.32608,89.1605c0,3.52242 -3.71233,7.42825 -9.28442,7.42825c-5.57208,0 -9.28442,-3.90583 -9.28442,-7.42825c0,-4.89483 0,-13.06125 0,-13.06125h18.56883c0,-0.00358 0,8.16642 0,13.06125z" fill="#d6a121"></path><path d="M33.99508,37.09825c-9.08733,0 -18.41475,1.37958 -18.41475,21.027c0,1.57308 0,12.02567 0,13.70625c0,7.01258 11.051,15.60542 18.41475,15.60542c7.36375,0 18.41475,-8.59283 18.41475,-15.60542c0,-1.68058 0,-12.13317 0,-13.70625c0.00358,-19.64742 -9.32742,-21.027 -18.41475,-21.027z" fill="url(#color-2_rnh5ofYIRjYP_gr2)"></path><path d="M33.99508,35.346c-8.90817,0 -10.23042,3.34683 -10.23042,3.34683c-3.62275,0.53392 -10.23042,5.84083 -10.23042,11.90383c0,3.38625 0.54108,5.88383 2.04608,14.32258c1.11442,-13.39092 4.601,-18.41475 8.18433,-18.41475c2.59433,0 4.65117,2.04608 10.23042,2.04608c4.71208,0 5.88383,-2.04608 10.23042,-2.04608c6.13825,0 8.18433,16.30417 8.18433,18.41475c1.22908,-6.15975 2.04608,-11.36633 2.04608,-14.32258c0.00358,-7.01258 -7.75433,-15.25067 -20.46083,-15.25067z" fill="url(#color-3_rnh5ofYIRjYP_gr3)"></path><path d="M34.443,34.23158c-8.52117,0 -10.67475,4.46483 -10.67475,4.46483c-0.086,2.37217 1.06783,4.46483 1.06783,4.46483c0,0 1.55517,3.34683 10.43467,3.34683c5.36067,0 13.04333,-3.34683 13.04333,-12.2765c0.00717,0 -1.72,0 -13.87108,0z" fill="url(#color-4_rnh5ofYIRjYP_gr4)"></path><path d="M137.95833,85.97492c-18.80175,0 -34.04167,11.07608 -34.04167,22.49258v16.58367c0,2.18225 1.76658,3.94883 3.94883,3.94883h61.0385c1.70925,0 3.096,-1.38675 3.096,-3.096v-17.4365c0,-11.41292 -15.23992,-22.49258 -34.04167,-22.49258z" fill="url(#color-5_rnh5ofYIRjYP_gr5)"></path><path d="M147.24275,89.1605c0,3.52242 -3.71233,7.42825 -9.28442,7.42825c-5.57208,0 -9.28442,-3.90583 -9.28442,-7.42825c0,-4.89483 0,-13.06125 0,-13.06125h18.56883c0,-0.00358 0,8.16642 0,13.06125z" fill="#d6a121"></path><path d="M137.91175,37.09825c-9.08733,0 -18.41475,1.37958 -18.41475,21.027c0,1.57308 0,12.02567 0,13.70625c0,7.01258 11.051,15.60542 18.41475,15.60542c7.36375,0 18.41475,-8.59283 18.41475,-15.60542c0,-1.68058 0,-12.13317 0,-13.70625c0.00358,-19.64742 -9.32742,-21.027 -18.41475,-21.027z" fill="url(#color-6_rnh5ofYIRjYP_gr6)"></path><path d="M137.91175,35.346c-8.90817,0 -10.23042,3.34683 -10.23042,3.34683c-3.62275,0.53392 -10.23042,5.84083 -10.23042,11.90383c0,3.38625 0.54108,5.88383 2.04608,14.32258c1.11442,-13.39092 4.601,-18.41475 8.18433,-18.41475c2.59433,0 4.65117,2.04608 10.23042,2.04608c4.71208,0 5.88383,-2.04608 10.23042,-2.04608c6.13825,0 8.18433,16.30417 8.18433,18.41475c1.22908,-6.15975 2.04608,-11.36633 2.04608,-14.32258c0.00358,-7.01258 -7.75433,-15.25067 -20.46083,-15.25067z" fill="url(#color-7_rnh5ofYIRjYP_gr7)"></path><path d="M138.35967,34.23158c-8.52117,0 -10.67475,4.46483 -10.67475,4.46483c-0.086,2.37217 1.06783,4.46483 1.06783,4.46483c0,0 1.55517,3.34683 10.43467,3.34683c5.36067,0 13.04333,-3.34683 13.04333,-12.2765c0.00717,0 -1.72,0 -13.87108,0z" fill="url(#color-8_rnh5ofYIRjYP_gr8)"></path><path d="M86,98.79608c-21.76875,0 -39.41667,12.82475 -39.41667,26.04367v17.50458c0,2.52625 2.04608,4.57233 4.57233,4.57233h70.67767c1.978,0 3.58333,-1.60533 3.58333,-3.58333v-18.49358c0,-13.21533 -17.64792,-26.04367 -39.41667,-26.04367z" fill="url(#color-9_rnh5ofYIRjYP_gr9)"></path><path d="M96.75,102.48333c0,4.07783 -4.3,8.6 -10.75,8.6c-6.45,0 -10.75,-4.52217 -10.75,-8.6c0,-5.66883 0,-15.12525 0,-15.12525h21.5c0,0 0,9.45642 0,15.12525z" fill="#d6a121"></path><path d="M85.94625,42.20092c-10.52067,0 -21.32442,1.59817 -21.32442,24.34517c0,1.82033 0,13.92483 0,15.87058c0,8.11983 12.79608,18.07075 21.32442,18.07075c8.52833,0 21.32442,-9.95092 21.32442,-18.07075c0,-1.94575 0,-14.04667 0,-15.87058c0,-22.747 -10.80017,-24.34517 -21.32442,-24.34517z" fill="url(#color-10_rnh5ofYIRjYP_gr10)"></path><path d="M85.94625,40.17275c-10.31642,0 -11.8465,3.87717 -11.8465,3.87717c-4.1925,0.61992 -11.8465,6.76175 -11.8465,13.78508c0,3.92017 0.62708,6.8155 2.36858,16.58367c1.29,-15.50867 5.32842,-21.32442 9.47792,-21.32442c3.00283,0 5.38575,2.36858 11.8465,2.36858c5.45742,0 6.81192,-2.36858 11.8465,-2.36858c7.10933,0 9.47792,18.88058 9.47792,21.32442c1.42258,-7.13083 2.36858,-13.16158 2.36858,-16.58367c0,-8.12342 -8.97983,-17.66225 -23.693,-17.66225z" fill="url(#color-11_rnh5ofYIRjYP_gr11)"></path><path d="M86.46583,38.88275c-9.86492,0 -12.35892,5.17075 -12.35892,5.17075c-0.10033,2.74483 1.23625,5.17075 1.23625,5.17075c0,0 1.80242,3.87717 12.083,3.87717c6.20633,0 15.10375,-3.87358 15.10375,-14.21508c0.00358,-0.00358 -1.99592,-0.00358 -16.06408,-0.00358z" fill="url(#color-12_rnh5ofYIRjYP_gr12)"></path></g><path d="" fill="none"></path></g></svg>