<svg xmlns="http://www.w3.org/2000/svg" x="0px" y="0px"
width="50" height="50"
viewBox="0 0 172 172"
style=" fill:#000000;"><g fill="none" fill-rule="nonzero" stroke="none" stroke-width="1" stroke-linecap="butt" stroke-linejoin="miter" stroke-miterlimit="10" stroke-dasharray="" stroke-dashoffset="0" font-family="none" font-weight="none" font-size="none" text-anchor="none" style="mix-blend-mode: normal"><path d="M0,172v-172h172v172z" fill="none"></path><g fill="#cccccc"><path d="M101.48,13.76c-8.54937,0 -15.48,6.93063 -15.48,15.48c0,8.54937 6.93063,15.48 15.48,15.48c8.54937,0 15.48,-6.93063 15.48,-15.48c0,-8.54937 -6.93063,-15.48 -15.48,-15.48zM72.67,41.28c-3.89408,0 -8.11082,1.32096 -12.35578,3.44c-1.9608,0.9804 -4.33461,2.5679 -5.72437,3.5139c-6.708,4.55456 -15.61078,12.19389 -25.9411,24.69141c-0.49192,0.59512 -1.51484,1.82718 -1.52516,1.84094c-1.15584,1.548 -2.22885,3.4321 -2.73453,5.91922c-0.19952,0.95632 -0.30906,2.00869 -0.30906,3.16453c0,6.41216 4.3,12.04 11.18,17.2c0.05504,0.04128 5.72045,4.37611 9.18453,6.71875c2.21192,1.4964 17.47547,11.94594 17.47547,11.94594v28.20531c0,5.70008 4.61992,10.32 10.32,10.32c5.2632,0 9.60297,-3.9388 10.23937,-9.03c0.0516,-0.42312 0.08063,-0.85312 0.08063,-1.29v-32.68c0,-2.85176 -1.1774,-5.57452 -3.2586,-7.525l-24.41594,-22.88406c9.976,-10.47136 16.78693,-14.69294 19.93453,-16.02422l18.77219,36.09985c1.40696,3.2336 4.56821,5.16672 7.88781,5.16672c1.14552,0 2.31528,-0.22371 3.43328,-0.71219c3.23704,-1.4104 5.16672,-4.56821 5.16672,-7.88781c0,-1.14552 -0.22371,-2.31528 -0.71219,-3.43328l-22.58172,-48.60344c-0.5676,-1.4792 -3.73418,-8.15656 -14.1161,-8.15656zM24.08,100.14297v16.42735l-18.61766,25.21547c-1.2728,1.72344 -1.93306,3.70918 -2.01562,5.6975c-0.13416,3.30584 1.31698,6.62221 4.17906,8.73437c1.84728,1.36912 3.99814,2.02235 6.1275,2.02235c3.16136,0 6.28166,-1.45082 8.30438,-4.1925l20.64,-27.95c1.31064,-1.77504 2.02235,-3.91902 2.02235,-6.1275v-3.68187c-1.9608,-1.3416 -3.53003,-2.40924 -4.13203,-2.81516c-3.20608,-2.17064 -8.04632,-5.84359 -9.45328,-6.92031c-2.79328,-2.09496 -5.10765,-4.23217 -7.05469,-6.40969zM110.89969,113.71485c-0.99072,0.76024 -2.05852,1.43588 -3.23844,1.94844c-0.97696,0.42312 -1.97816,0.74406 -3.00328,0.96078l16.90438,33.56687c0.01928,0.04296 0.03944,0.08552 0.06047,0.12766l0.00672,0.01344c0.00231,0.00458 0.00439,0.00888 0.00672,0.01344c2.6459,5.26619 7.643,7.89453 12.52375,7.89453c7.55883,0 13.76,-6.20117 13.76,-13.76c0.01273,-0.92983 -0.35149,-1.82522 -1.00967,-2.48214c-0.65819,-0.65692 -1.55427,-1.01942 -2.48408,-1.00489c-1.89722,0.02966 -3.41223,1.58976 -3.38625,3.48703c0,3.84133 -3.03867,6.88 -6.88,6.88c-2.84907,0 -4.72582,-0.80806 -6.38281,-4.1186c0,-0.00224 0,-0.00448 0,-0.00672zM161.68,144.48c-3.79972,0 -6.88,3.08028 -6.88,6.88c0,3.79972 3.08028,6.88 6.88,6.88c3.79972,0 6.88,-3.08028 6.88,-6.88c0,-3.79972 -3.08028,-6.88 -6.88,-6.88z"></path></g></g></svg>