<svg xmlns="http://www.w3.org/2000/svg" x="0px" y="0px"
width="48" height="48"
viewBox="0 0 172 172"
style=" fill:#000000;"><g fill="none" fill-rule="nonzero" stroke="none" stroke-width="1" stroke-linecap="butt" stroke-linejoin="miter" stroke-miterlimit="10" stroke-dasharray="" stroke-dashoffset="0" font-family="none" font-weight="none" font-size="none" text-anchor="none" style="mix-blend-mode: normal"><path d="M0,172v-172h172v172z" fill="none"></path><g fill="#cccccc"><path d="M86,14.33333c-39.5815,0 -71.66667,32.08517 -71.66667,71.66667c0,39.5815 32.08517,71.66667 71.66667,71.66667c39.5815,0 71.66667,-32.08517 71.66667,-71.66667c0,-39.5815 -32.08517,-71.66667 -71.66667,-71.66667zM86,34.04167c12.86417,0 23.29167,10.4275 23.29167,23.29167c0,12.86417 -10.4275,23.29167 -23.29167,23.29167c-12.86417,0 -23.29167,-10.4275 -23.29167,-23.29167c0,-12.86417 10.4275,-23.29167 23.29167,-23.29167zM86,143.33333c-19.85167,0 -37.33833,-10.09067 -47.62967,-25.42017c8.03383,-11.68167 33.626,-17.57983 47.62967,-17.57983c14.00367,0 39.59583,5.89817 47.62967,17.57983c-10.29133,15.3295 -27.778,25.42017 -47.62967,25.42017z"></path></g></g></svg>