<svg xmlns="http://www.w3.org/2000/svg" x="0px" y="0px"
width="24" height="24"
viewBox="0 0 172 172"
style=" fill:#000000;"><g fill="none" fill-rule="nonzero" stroke="none" stroke-width="1" stroke-linecap="butt" stroke-linejoin="miter" stroke-miterlimit="10" stroke-dasharray="" stroke-dashoffset="0" font-family="none" font-weight="none" font-size="none" text-anchor="none" style="mix-blend-mode: normal"><path d="M0,172v-172h172v172z" fill="none"></path><g fill="#000000"><path d="M150.5,120.2495v-77.2495h-129v86c0,11.87517 9.62483,21.5 21.5,21.5h77.2495c3.9345,4.37167 9.57467,7.16667 15.91717,7.16667c11.87517,0 21.5,-9.62483 21.5,-21.5c0,-6.3425 -2.795,-11.98267 -7.16667,-15.91717z" opacity="0.35"></path><path d="M129,21.5h-86c-11.87517,0 -21.5,9.62483 -21.5,21.5v7.16667h129v-7.16667c0,-11.87517 -9.62483,-21.5 -21.5,-21.5z"></path><path d="M71.66667,121.83333c3.956,0 7.16667,3.21067 7.16667,7.16667c0,3.956 -3.21067,7.16667 -7.16667,7.16667c-3.956,0 -7.16667,-3.21067 -7.16667,-7.16667c0,-3.956 3.21067,-7.16667 7.16667,-7.16667zM35.83333,129c0,3.956 3.21067,7.16667 7.16667,7.16667c3.956,0 7.16667,-3.21067 7.16667,-7.16667c0,-3.956 -3.21067,-7.16667 -7.16667,-7.16667c-3.956,0 -7.16667,3.21067 -7.16667,7.16667zM35.83333,100.33333c0,3.956 3.21067,7.16667 7.16667,7.16667c3.956,0 7.16667,-3.21067 7.16667,-7.16667c0,-3.956 -3.21067,-7.16667 -7.16667,-7.16667c-3.956,0 -7.16667,3.21067 -7.16667,7.16667zM64.5,100.33333c0,3.956 3.21067,7.16667 7.16667,7.16667c3.956,0 7.16667,-3.21067 7.16667,-7.16667c0,-3.956 -3.21067,-7.16667 -7.16667,-7.16667c-3.956,0 -7.16667,3.21067 -7.16667,7.16667zM93.16667,100.33333c0,3.956 3.21067,7.16667 7.16667,7.16667c3.956,0 7.16667,-3.21067 7.16667,-7.16667c0,-3.956 -3.21067,-7.16667 -7.16667,-7.16667c-3.956,0 -7.16667,3.21067 -7.16667,7.16667zM121.83333,71.66667c0,3.956 3.21067,7.16667 7.16667,7.16667c3.956,0 7.16667,-3.21067 7.16667,-7.16667c0,-3.956 -3.21067,-7.16667 -7.16667,-7.16667c-3.956,0 -7.16667,3.21067 -7.16667,7.16667zM93.16667,71.66667c0,3.956 3.21067,7.16667 7.16667,7.16667c3.956,0 7.16667,-3.21067 7.16667,-7.16667c0,-3.956 -3.21067,-7.16667 -7.16667,-7.16667c-3.956,0 -7.16667,3.21067 -7.16667,7.16667zM64.5,71.66667c0,3.956 3.21067,7.16667 7.16667,7.16667c3.956,0 7.16667,-3.21067 7.16667,-7.16667c0,-3.956 -3.21067,-7.16667 -7.16667,-7.16667c-3.956,0 -7.16667,3.21067 -7.16667,7.16667z"></path><path d="M164.83333,136.16667c0,-2.72333 1.2255,-5.15283 3.15333,-6.77967c1.71283,-1.45483 2.46533,-3.7625 1.677,-5.8695c-1.39033,-3.6765 -3.36117,-7.06633 -5.81217,-10.04767c-1.36883,-1.677 -3.68367,-2.322 -5.6975,-1.54083c-2.4295,0.93167 -5.2245,0.80983 -7.654,-0.58767c-2.43667,-1.40467 -3.94167,-3.784 -4.33583,-6.364c-0.3225,-2.107 -1.99233,-3.79117 -4.09933,-4.14233c-1.9135,-0.32967 -3.88433,-0.50167 -5.89817,-0.50167c-2.01383,0 -3.98467,0.172 -5.89817,0.50167c-2.107,0.35117 -3.77683,2.03533 -4.09933,4.14233c-0.39417,2.58 -1.89917,4.95933 -4.33583,6.364c-2.4295,1.3975 -5.2245,1.51933 -7.654,0.58767c-2.01383,-0.78117 -4.32867,-0.13617 -5.6975,1.54083c-2.451,2.98133 -4.42183,6.37117 -5.81217,10.04767c-0.78833,2.09983 -0.03583,4.41467 1.677,5.8695c1.92783,1.62683 3.15333,4.05633 3.15333,6.77967c0,2.72333 -1.2255,5.15283 -3.15333,6.77967c-1.71283,1.45483 -2.46533,3.76967 -1.677,5.8695c1.39033,3.6765 3.36117,7.06633 5.805,10.04767c1.376,1.677 3.68367,2.31483 5.70467,1.54083c2.4295,-0.93167 5.2245,-0.80983 7.654,0.58767c2.43667,1.40467 3.94167,3.784 4.33583,6.364c0.3225,2.107 1.99233,3.79117 4.09933,4.14233c1.9135,0.32967 3.88433,0.50167 5.89817,0.50167c2.01383,0 3.98467,-0.172 5.89817,-0.50167c2.09983,-0.35833 3.76967,-2.0425 4.09217,-4.1495c0.40133,-2.57283 1.90633,-4.95217 4.343,-6.35683c2.4295,-1.40467 5.2245,-1.51933 7.654,-0.58767c2.021,0.78117 4.32867,0.13617 5.70467,-1.54083c2.451,-2.9885 4.42183,-6.37117 5.805,-10.04767c0.78833,-2.09983 0.03583,-4.41467 -1.677,-5.8695c-1.92783,-1.62683 -3.15333,-4.05633 -3.15333,-6.77967zM136.16667,150.5c-7.91917,0 -14.33333,-6.42133 -14.33333,-14.33333c0,-7.912 6.41417,-14.33333 14.33333,-14.33333c7.91917,0 14.33333,6.42133 14.33333,14.33333c0,7.912 -6.41417,14.33333 -14.33333,14.33333z"></path></g></g></svg>