<svg xmlns="http://www.w3.org/2000/svg" x="0px" y="0px"
width="48" height="48"
viewBox="0 0 172 172"
style=" fill:#000000;"><g fill="none" fill-rule="nonzero" stroke="none" stroke-width="1" stroke-linecap="butt" stroke-linejoin="miter" stroke-miterlimit="10" stroke-dasharray="" stroke-dashoffset="0" font-family="none" font-weight="none" font-size="none" text-anchor="none" style="mix-blend-mode: normal"><path d="M0,172v-172h172v172z" fill="none"></path><g><path d="M139.75,21.5h-107.5c-5.93758,0 -10.75,4.81242 -10.75,10.75v118.25l30.659,-28.66667h87.591c5.934,0 10.75,-4.816 10.75,-10.75v-78.83333c0,-5.93758 -4.816,-10.75 -10.75,-10.75z" fill="#3498db"></path><path d="M81.29508,84.065c0,-4.04917 0.4945,-7.27775 1.48708,-9.675c0.99258,-2.40083 2.80933,-4.76583 5.45025,-7.095c2.63733,-2.322 4.39675,-4.22117 5.27467,-5.68317c0.87433,-1.462 1.30792,-3.00283 1.30792,-4.62608c0,-4.89125 -2.27542,-7.33508 -6.82267,-7.33508c-2.16075,0 -3.88433,0.65933 -5.1815,1.97442c-1.30075,1.31867 -1.978,3.13542 -2.03533,5.45025h-12.69217c0.05733,-5.52192 1.85975,-9.847 5.40008,-12.97525c3.54392,-3.1175 8.37783,-4.68342 14.50533,-4.68342c6.18483,0 10.97933,1.4835 14.39783,4.4505c3.40417,2.96342 5.11342,7.14517 5.11342,12.556c0,2.46175 -0.55183,4.78017 -1.66267,6.96242c-1.11083,2.18583 -3.04942,4.60817 -5.81933,7.27058l-3.54033,3.33967c-2.21808,2.11417 -3.48658,4.58308 -3.80908,7.42108l-0.17558,2.6445h-11.19792zM80.02658,97.34842c0,-1.92783 0.6665,-3.51525 1.99233,-4.77658c1.32942,-1.25058 3.02433,-1.87767 5.0955,-1.87767c2.07117,0 3.76967,0.63067 5.0955,1.87767c1.32942,1.26133 1.99592,2.84875 1.99592,4.77658c0,1.89917 -0.65217,3.47225 -1.94933,4.70492c-1.29717,1.23983 -3.01,1.86333 -5.14208,1.86333c-2.13208,0 -3.84133,-0.6235 -5.14208,-1.86333c-1.29717,-1.23267 -1.94575,-2.80575 -1.94575,-4.70492z" fill="#e3f2fd"></path></g></g></svg>