<svg xmlns="http://www.w3.org/2000/svg" x="0px" y="0px"
width="50" height="50"
viewBox="0 0 226 226"
style=" fill:#000000;"><g fill="none" fill-rule="nonzero" stroke="none" stroke-width="1" stroke-linecap="butt" stroke-linejoin="miter" stroke-miterlimit="10" stroke-dasharray="" stroke-dashoffset="0" font-family="none" font-weight="none" font-size="none" text-anchor="none" style="mix-blend-mode: normal"><path d="M0,226v-226h226v226z" fill="none"></path><g fill="#333333"><path d="M44.72917,32.95833c-14.26625,0 -25.89583,11.62958 -25.89583,25.89583v89.45833c0,14.26625 11.62958,25.89583 25.89583,25.89583h96.52083v-6.35441c-5.88542,-7.25083 -9.41667,-16.52809 -9.41667,-26.60392c0,-23.40042 18.97458,-42.375 42.375,-42.375c13.32458,0 25.23667,6.16497 32.95833,15.81706v-55.83789c0,-14.26625 -11.62958,-25.89583 -25.89583,-25.89583zM63.5625,70.625h98.875c3.90792,0 7.0625,3.15458 7.0625,7.0625c0,3.90792 -3.15458,7.0625 -7.0625,7.0625h-98.875c-3.90792,0 -7.0625,-3.15458 -7.0625,-7.0625c0,-3.90792 3.15458,-7.0625 7.0625,-7.0625zM174.20833,108.29167c-18.20238,0 -32.95833,14.75595 -32.95833,32.95833c0,18.20238 14.75595,32.95833 32.95833,32.95833c18.20238,0 32.95833,-14.75595 32.95833,-32.95833c0,-18.20238 -14.75595,-32.95833 -32.95833,-32.95833zM63.5625,122.41667h42.375c3.90792,0 7.0625,3.15458 7.0625,7.0625c0,3.90792 -3.15458,7.0625 -7.0625,7.0625h-42.375c-3.90792,0 -7.0625,-3.15458 -7.0625,-7.0625c0,-3.90792 3.15458,-7.0625 7.0625,-7.0625zM150.66667,176.47054v30.60417c0,3.81375 4.28605,6.02814 7.39355,3.8623l13.4629,-9.41667c1.60083,-1.13 3.7696,-1.13 5.37044,0l13.4629,9.41667c3.1075,2.16583 7.39355,-0.04855 7.39355,-3.8623v-30.60417c-6.73292,4.52 -14.83125,7.15446 -23.54167,7.15446c-8.71042,0 -16.80875,-2.63446 -23.54167,-7.15446z"></path></g></g></svg>