<svg xmlns="http://www.w3.org/2000/svg" x="0px" y="0px"
width="40" height="40"
viewBox="0 0 172 172"
style=" fill:#000000;"><g transform="translate(2.924,2.924) scale(0.966,0.966)"><g fill="none" fill-rule="nonzero" stroke="none" stroke-width="none" stroke-linecap="butt" stroke-linejoin="none" stroke-miterlimit="10" stroke-dasharray="" stroke-dashoffset="0" font-family="none" font-weight="none" font-size="none" text-anchor="none" style="mix-blend-mode: normal"><g fill="#ecf0f1" stroke="#ffffff" stroke-width="6" stroke-linejoin="round"><path d="M164.59854,19.28149c3.39753,8.20211 1.51898,17.64324 -4.75948,23.92007l-75.51875,75.51875c-0.62859,0.63045 -1.39537,1.10586 -2.23958,1.38854l-34.4,11.46667c-0.58543,0.19259 -1.19777,0.29086 -1.81406,0.29114c-1.84176,-0.0025 -3.57019,-0.88964 -4.64593,-2.38459c-1.07574,-1.49495 -1.36781,-3.41567 -0.78506,-5.16281l11.46667,-34.4c0.28151,-0.84217 0.75274,-1.60841 1.37734,-2.23958l75.51875,-75.51875c4.10622,-4.13108 9.69566,-6.44589 15.52031,-6.4276c8.87794,-0.00134 16.88227,5.34605 20.27979,13.54816zM91.73333,17.2c3.16643,0 5.73333,2.5669 5.73333,5.73333c0,3.16643 -2.5669,5.73333 -5.73333,5.73333h-68.8c-3.16643,0 -5.73333,2.5669 -5.73333,5.73333v114.66667c0,3.16643 2.5669,5.73333 5.73333,5.73333h103.2c3.16643,0 5.73333,-2.5669 5.73333,-5.73333v-57.33333c0,-3.16643 2.5669,-5.73333 5.73333,-5.73333c3.16643,0 5.73333,2.5669 5.73333,5.73333v57.33333c0,9.4993 -7.7007,17.2 -17.2,17.2h-103.2c-9.4993,0 -17.2,-7.7007 -17.2,-17.2v-114.66667c0,-9.4993 7.7007,-17.2 17.2,-17.2zM136.90573,20.29062l-74.56692,74.53333l-7.41302,22.25026l22.27266,-7.44661l74.53333,-74.53333c1.97031,-1.96302 3.07489,-4.63174 3.06823,-7.41302c-0.02036,-5.71377 -4.61135,-10.35954 -10.32448,-10.44766c-2.83262,-0.04536 -5.56307,1.05732 -7.56979,3.05703z"></path></g><path d="M0,172v-172h172v172z" fill="none" stroke="none" stroke-width="1" stroke-linejoin="miter"></path><g fill="#ecf0f1" stroke="none" stroke-width="1" stroke-linejoin="miter"><path d="M144.31875,5.73333c-5.82465,-0.01829 -11.41409,2.29653 -15.52031,6.4276l-75.51875,75.51875c-0.6246,0.63117 -1.09584,1.39741 -1.37734,2.23958l-11.46667,34.4c-0.58275,1.74714 -0.29068,3.66786 0.78506,5.16281c1.07574,1.49495 2.80417,2.38209 4.64593,2.38459c0.6163,-0.00028 1.22863,-0.09856 1.81406,-0.29114l34.4,-11.46667c0.84421,-0.28269 1.61099,-0.75809 2.23958,-1.38854l75.51875,-75.51875c6.27846,-6.27683 8.15701,-15.71797 4.75948,-23.92007c-3.39753,-8.20211 -11.40186,-13.5495 -20.27979,-13.54816zM22.93333,17.2c-9.4993,0 -17.2,7.7007 -17.2,17.2v114.66667c0,9.4993 7.7007,17.2 17.2,17.2h103.2c9.4993,0 17.2,-7.7007 17.2,-17.2v-57.33333c0,-3.16643 -2.5669,-5.73333 -5.73333,-5.73333c-3.16643,0 -5.73333,2.5669 -5.73333,5.73333v57.33333c0,3.16643 -2.5669,5.73333 -5.73333,5.73333h-103.2c-3.16643,0 -5.73333,-2.5669 -5.73333,-5.73333v-114.66667c0,-3.16643 2.5669,-5.73333 5.73333,-5.73333h68.8c3.16643,0 5.73333,-2.5669 5.73333,-5.73333c0,-3.16643 -2.5669,-5.73333 -5.73333,-5.73333zM144.47552,17.23359c5.71313,0.08812 10.30412,4.73389 10.32448,10.44766c0.00666,2.78128 -1.09791,5.45 -3.06823,7.41302l-74.53333,74.53333l-22.27266,7.44661l7.41302,-22.25026l74.56692,-74.53333c2.00673,-1.99971 4.73718,-3.10239 7.56979,-3.05703z"></path></g><path d="" fill="none" stroke="none" stroke-width="1" stroke-linejoin="miter"></path><path d="" fill="none" stroke="none" stroke-width="1" stroke-linejoin="miter"></path><path d="" fill="none" stroke="none" stroke-width="1" stroke-linejoin="miter"></path></g></g></svg>