<svg xmlns="http://www.w3.org/2000/svg" x="0px" y="0px"
width="64" height="64"
viewBox="0 0 172 172"
style=" fill:#000000;"><g fill="none" fill-rule="nonzero" stroke="none" stroke-width="1" stroke-linecap="butt" stroke-linejoin="miter" stroke-miterlimit="10" stroke-dasharray="" stroke-dashoffset="0" font-family="none" font-weight="none" font-size="none" text-anchor="none" style="mix-blend-mode: normal"><path d="M0,172v-172h172v172z" fill="none"></path><g><rect x="40" y="24" transform="scale(0.33594,0.33594)" width="344" height="464" rx="10" ry="10" fill="#ecf0f1"></rect><rect x="96" y="352" transform="scale(0.33594,0.33594)" width="80" height="80" fill="#34495e"></rect><rect x="96" y="208" transform="scale(0.33594,0.33594)" width="80" height="80" fill="#34495e"></rect><path d="M24.1875,29.5625h8.0625v21.5h5.375v-21.5h8.0625v-5.375h-21.5z" fill="#34495e"></path><path d="M118.25,24.1875h-21.5v5.375h8.0625v21.5h5.375v-21.5h8.0625z" fill="#34495e"></path><path d="M51.0625,26.875v21.5c0,1.48427 1.20323,2.6875 2.6875,2.6875h13.4375v-5.375h-10.75v-5.375h10.75v-5.375h-10.75v-5.375h10.75v-5.375h-13.4375c-1.48427,0 -2.6875,1.20323 -2.6875,2.6875z" fill="#34495e"></path><path d="M72.5625,26.875v10.75c0,1.48427 1.20323,2.6875 2.6875,2.6875h10.75v5.375h-13.4375v5.375h16.125c1.48427,0 2.6875,-1.20323 2.6875,-2.6875v-10.75c0,-1.48427 -1.20323,-2.6875 -2.6875,-2.6875h-10.75v-5.375h13.4375v-5.375h-16.125c-1.48427,0 -2.6875,1.20323 -2.6875,2.6875z" fill="#34495e"></path><g fill="#95a5a6"><path d="M48.375,91.375c-0.71278,0.00003 -1.39637,-0.2831 -1.9004,-0.7871l-8.0625,-8.0625l3.8008,-3.8008l6.01026,6.01026l14.23636,-16.60875l4.08097,3.49778l-16.125,18.8125c-0.48716,0.56839 -1.18931,0.90784 -1.93735,0.93659c-0.03427,0.00202 -0.06954,0.00202 -0.10313,0.00202z"></path><path d="M48.375,139.75c-0.71278,0.00003 -1.39637,-0.2831 -1.9004,-0.7871l-8.0625,-8.0625l3.8008,-3.8008l6.01026,6.01026l14.23636,-16.60875l4.08097,3.49778l-16.125,18.8125c-0.48716,0.56839 -1.18931,0.90784 -1.93735,0.93659c-0.03427,0.00202 -0.06954,0.00202 -0.10313,0.00202z"></path><rect x="216" y="200" transform="scale(0.33594,0.33594)" width="120" height="16"></rect><rect x="216" y="240" transform="scale(0.33594,0.33594)" width="120" height="16"></rect><rect x="216" y="280" transform="scale(0.33594,0.33594)" width="120" height="16"></rect><rect x="216" y="344" transform="scale(0.33594,0.33594)" width="120" height="16"></rect><rect x="216" y="384" transform="scale(0.33594,0.33594)" width="120" height="16"></rect><rect x="216" y="424" transform="scale(0.33594,0.33594)" width="120" height="16"></rect></g><g><path d="M158.5625,131.6875v2.6875l-5.375,21.5h-5.375l-5.375,-21.5v-2.6875z" fill="#34495e"></path><rect x="424" y="120" transform="scale(0.33594,0.33594)" width="48" height="272" fill="#95a5a6"></rect><path d="M150.5,16.125v0c4.4528,0 8.0625,3.6097 8.0625,8.0625v16.125v0h-16.125v0v-16.125c0,-4.4528 3.6097,-8.0625 8.0625,-8.0625z" fill="#34495e"></path></g></g></g></svg>