<svg xmlns="http://www.w3.org/2000/svg" x="0px" y="0px"
width="24" height="24"
viewBox="0 0 172 172"
style=" fill:#000000;"><g fill="none" fill-rule="nonzero" stroke="none" stroke-width="1" stroke-linecap="butt" stroke-linejoin="miter" stroke-miterlimit="10" stroke-dasharray="" stroke-dashoffset="0" font-family="none" font-weight="none" font-size="none" text-anchor="none" style="mix-blend-mode: normal"><path d="M0,172v-172h172v172z" fill="none"></path><g fill="#333333"><path d="M131.86667,17.2c-22.16507,0 -40.13333,17.96827 -40.13333,40.13333c0,7.95063 2.33859,15.34332 6.32683,21.57839l-6.08047,18.25261c-1.29,3.86427 2.74214,7.35497 6.38281,5.53177l17.32317,-8.65599c4.95308,2.18685 10.41864,3.42656 16.18099,3.42656c22.16507,0 40.13333,-17.96827 40.13333,-40.13333c0,-22.16507 -17.96827,-40.13333 -40.13333,-40.13333zM51.6,34.4c-15.82973,0 -28.66667,12.83693 -28.66667,28.66667v5.73333c0,15.82973 12.83693,28.66667 28.66667,28.66667c15.82973,0 28.66667,-12.83693 28.66667,-28.66667v-5.73333c0,-15.82973 -12.83693,-28.66667 -28.66667,-28.66667zM126.64844,35.26224h11.46667l-0.94063,28.66667h-9.57422zM132.38177,69.66224c3.1648,0 5.73333,2.56853 5.73333,5.73333c0,3.1648 -2.56853,5.73333 -5.73333,5.73333c-3.1648,0 -5.73333,-2.56853 -5.73333,-5.73333c0,-3.1648 2.56853,-5.73333 5.73333,-5.73333zM51.5888,108.93333c-18.79387,0 -42.90459,10.74462 -49.84193,22.44062c-4.2828,7.224 -0.20407,17.69271 6.83073,17.69271h86.04479c7.02907,0 11.10806,-10.46871 6.81953,-17.69271c-6.93733,-11.696 -31.05926,-22.44062 -49.85312,-22.44062z"></path></g></g></svg>