<svg xmlns="http://www.w3.org/2000/svg" x="0px" y="0px"
width="48" height="48"
viewBox="0 0 226 226"
style=" fill:#000000;"><g fill="none" fill-rule="nonzero" stroke="none" stroke-width="1" stroke-linecap="butt" stroke-linejoin="miter" stroke-miterlimit="10" stroke-dasharray="" stroke-dashoffset="0" font-family="none" font-weight="none" font-size="none" text-anchor="none" style="mix-blend-mode: normal"><path d="M0,226v-226h226v226z" fill="none"></path><g fill="#cccccc"><path d="M173.26667,22.6h-113c-8.32433,0 -15.06667,6.74233 -15.06667,15.06667v150.66667c0,8.32433 6.74233,15.06667 15.06667,15.06667h113c8.32433,0 15.06667,-6.74233 15.06667,-15.06667v-150.66667c0,-8.32433 -6.74233,-15.06667 -15.06667,-15.06667zM79.1,120.53333c6.2376,0 11.3,5.0624 11.3,11.3c0,6.2376 -5.0624,11.3 -11.3,11.3c-6.2376,0 -11.3,-5.0624 -11.3,-11.3c0,-6.2376 5.0624,-11.3 11.3,-11.3zM67.8,94.16667c0,-6.2376 5.0624,-11.3 11.3,-11.3c6.2376,0 11.3,5.0624 11.3,11.3c0,6.2376 -5.0624,11.3 -11.3,11.3c-6.2376,0 -11.3,-5.0624 -11.3,-11.3zM116.76667,180.8h-37.66667c-6.2376,0 -11.3,-5.0624 -11.3,-11.3c0,-6.2376 5.0624,-11.3 11.3,-11.3h37.66667c6.2376,0 11.3,5.0624 11.3,11.3c0,6.2376 -5.0624,11.3 -11.3,11.3zM116.76667,143.13333c-6.2376,0 -11.3,-5.0624 -11.3,-11.3c0,-6.2376 5.0624,-11.3 11.3,-11.3c6.2376,0 11.3,5.0624 11.3,11.3c0,6.2376 -5.0624,11.3 -11.3,11.3zM116.76667,105.46667c-6.2376,0 -11.3,-5.0624 -11.3,-11.3c0,-6.2376 5.0624,-11.3 11.3,-11.3c6.2376,0 11.3,5.0624 11.3,11.3c0,6.2376 -5.0624,11.3 -11.3,11.3zM154.43333,180.8c-6.2376,0 -11.3,-5.0624 -11.3,-11.3c0,-6.2376 5.0624,-11.3 11.3,-11.3c6.2376,0 11.3,5.0624 11.3,11.3c0,6.2376 -5.0624,11.3 -11.3,11.3zM154.43333,143.13333c-6.2376,0 -11.3,-5.0624 -11.3,-11.3c0,-6.2376 5.0624,-11.3 11.3,-11.3c6.2376,0 11.3,5.0624 11.3,11.3c0,6.2376 -5.0624,11.3 -11.3,11.3zM154.43333,105.46667c-6.2376,0 -11.3,-5.0624 -11.3,-11.3c0,-6.2376 5.0624,-11.3 11.3,-11.3c6.2376,0 11.3,5.0624 11.3,11.3c0,6.2376 -5.0624,11.3 -11.3,11.3zM165.73333,67.8h-97.93333v-22.6h97.93333z"></path></g></g></svg>