<svg xmlns="http://www.w3.org/2000/svg" x="0px" y="0px"
width="50" height="50"
viewBox="0 0 226 226"
style=" fill:#000000;"><g fill="none" fill-rule="nonzero" stroke="none" stroke-width="1" stroke-linecap="butt" stroke-linejoin="miter" stroke-miterlimit="10" stroke-dasharray="" stroke-dashoffset="0" font-family="none" font-weight="none" font-size="none" text-anchor="none" style="mix-blend-mode: normal"><path d="M0,226v-226h226v226z" fill="none"></path><g fill="#333333"><circle cx="19" cy="19" transform="scale(9.41667,9.41667)" r="5" opacity="0.35"></circle><circle cx="7.5" cy="6.5" transform="scale(9.41667,9.41667)" r="3.5" opacity="0.35"></circle><circle cx="16.5" cy="6.5" transform="scale(9.41667,9.41667)" r="3.5" opacity="0.35"></circle><path d="M169.5,202.45833v-47.08333c0,-5.198 4.21867,-9.41667 9.41667,-9.41667v0c5.198,0 9.41667,4.21867 9.41667,9.41667v47.08333c0,5.198 -4.21867,9.41667 -9.41667,9.41667v0c-5.198,0 -9.41667,-4.21867 -9.41667,-9.41667z"></path><path d="M155.375,169.5h47.08333c5.198,0 9.41667,4.21867 9.41667,9.41667v0c0,5.198 -4.21867,9.41667 -9.41667,9.41667h-47.08333c-5.198,0 -9.41667,-4.21867 -9.41667,-9.41667v0c0,-5.198 4.21867,-9.41667 9.41667,-9.41667z"></path><path d="M131.83333,178.91667c0,-25.199 19.84092,-45.5955 44.72917,-46.84792c-0.791,-0.0565 -1.54433,-0.23542 -2.35417,-0.23542c-1.54433,0 -120.87233,0 -122.41667,0c-18.20242,0 -32.95833,14.75592 -32.95833,32.95833c0,18.20242 14.75592,32.95833 32.95833,32.95833c0.96992,0 48.477,0 84.0155,0c-2.52367,-5.77242 -3.97383,-12.12867 -3.97383,-18.83333z"></path></g></g></svg>