<svg xmlns="http://www.w3.org/2000/svg" x="0px" y="0px"
width="50" height="50"
viewBox="0 0 226 226"
style=" fill:#000000;"><defs><linearGradient x1="40.52933" y1="54.65433" x2="73.37467" y2="87.49967" gradientUnits="userSpaceOnUse" id="color-1_aOMbf5k97bfk_gr1"><stop offset="0" stop-color="#000000"></stop><stop offset="1" stop-color="#000000"></stop></linearGradient><linearGradient x1="20.86262" y1="124.68608" x2="94.15725" y2="197.976" gradientUnits="userSpaceOnUse" id="color-2_aOMbf5k97bfk_gr2"><stop offset="0" stop-color="#000000"></stop><stop offset="1" stop-color="#000000"></stop></linearGradient><linearGradient x1="153.52933" y1="54.65433" x2="186.37467" y2="87.49967" gradientUnits="userSpaceOnUse" id="color-3_aOMbf5k97bfk_gr3"><stop offset="0" stop-color="#000000"></stop><stop offset="1" stop-color="#000000"></stop></linearGradient><linearGradient x1="133.86263" y1="124.68608" x2="207.15725" y2="197.976" gradientUnits="userSpaceOnUse" id="color-4_aOMbf5k97bfk_gr4"><stop offset="0" stop-color="#000000"></stop><stop offset="1" stop-color="#000000"></stop></linearGradient><linearGradient x1="97.02933" y1="35.821" x2="129.87467" y2="68.66633" gradientUnits="userSpaceOnUse" id="color-5_aOMbf5k97bfk_gr5"><stop offset="0" stop-color="#666666"></stop><stop offset="1" stop-color="#666666"></stop></linearGradient><linearGradient x1="99.72721" y1="89.72671" x2="123.36775" y2="207.92" gradientUnits="userSpaceOnUse" id="color-6_aOMbf5k97bfk_gr6"><stop offset="0" stop-color="#666666"></stop><stop offset="1" stop-color="#666666"></stop></linearGradient></defs><g fill="none" fill-rule="nonzero" stroke="none" stroke-width="1" stroke-linecap="butt" stroke-linejoin="miter" stroke-miterlimit="10" stroke-dasharray="" stroke-dashoffset="0" font-family="none" font-weight="none" font-size="none" text-anchor="none" style="mix-blend-mode: normal"><path d="M0,226v-226h226v226z" fill="none"></path><g><circle cx="12" cy="15" transform="scale(4.70833,4.70833)" r="5" fill="url(#color-1_aOMbf5k97bfk_gr1)"></circle><path d="M56.5,103.58333c-23.40513,0 -42.375,18.96988 -42.375,42.375v42.375c0,5.20271 4.21396,9.41667 9.41667,9.41667h65.91667c5.20271,0 9.41667,-4.21396 9.41667,-9.41667v-42.375c0,-23.40512 -18.96988,-42.375 -42.375,-42.375z" fill="url(#color-2_aOMbf5k97bfk_gr2)"></path><circle cx="36" cy="15" transform="scale(4.70833,4.70833)" r="5" fill="url(#color-3_aOMbf5k97bfk_gr3)"></circle><path d="M169.5,103.58333c-23.40512,0 -42.375,18.96988 -42.375,42.375v42.375c0,5.20271 4.21396,9.41667 9.41667,9.41667h65.91667c5.20271,0 9.41667,-4.21396 9.41667,-9.41667v-42.375c0,-23.40512 -18.96988,-42.375 -42.375,-42.375z" fill="url(#color-4_aOMbf5k97bfk_gr4)"></path><circle cx="24" cy="11" transform="scale(4.70833,4.70833)" r="5" fill="url(#color-5_aOMbf5k97bfk_gr5)"></circle><path d="M164.79167,188.33333v-61.20833c0,-8.00887 -1.87862,-15.57046 -5.1415,-22.34575c-18.645,4.44938 -32.52517,21.17338 -32.52517,41.17908v42.375c0,5.20271 4.21396,9.41667 9.41667,9.41667h25.63217c1.61967,-2.78263 2.61783,-5.97017 2.61783,-9.41667z" fill="#000000" opacity="0.05"></path><path d="M161.65121,188.33333v-61.20833c0,-7.63221 -1.81271,-14.83125 -4.95788,-21.26754c-17.09596,5.26863 -29.56833,21.20633 -29.56833,40.10087v42.375c0,5.20271 4.21396,9.41667 9.41667,9.41667h20.227c2.81558,-1.85508 4.88254,-5.38633 4.88254,-9.41667z" fill="#000000" opacity="0.067"></path><path d="M158.51546,188.33333v-61.20833c0,-7.26025 -1.74679,-14.09675 -4.77425,-20.18933c-15.55162,6.08787 -26.61621,21.23929 -26.61621,39.02267v42.375c0,5.20271 4.21396,9.41667 9.41667,9.41667h14.82183c4.00679,-0.92754 7.15196,-4.8025 7.15196,-9.41667z" fill="#000000" opacity="0.09"></path><path d="M61.20833,188.33333v-61.20833c0,-8.00887 1.87863,-15.57046 5.1415,-22.34575c18.645,4.44938 32.52517,21.17338 32.52517,41.17908v42.375c0,5.20271 -4.21396,9.41667 -9.41667,9.41667h-25.63217c-1.61967,-2.78263 -2.61783,-5.97017 -2.61783,-9.41667z" fill="#000000" opacity="0.05"></path><path d="M64.34879,188.33333v-61.20833c0,-7.63221 1.81271,-14.83125 4.95788,-21.26754c17.09596,5.26863 29.56833,21.20633 29.56833,40.10087v42.375c0,5.20271 -4.21396,9.41667 -9.41667,9.41667h-20.227c-2.81558,-1.85508 -4.88254,-5.38633 -4.88254,-9.41667z" fill="#000000" opacity="0.067"></path><path d="M67.48454,188.33333v-61.20833c0,-7.26025 1.74679,-14.09675 4.77425,-20.18933c15.55163,6.08787 26.61621,21.23929 26.61621,39.02267v42.375c0,5.20271 -4.21396,9.41667 -9.41667,9.41667h-14.82183c-4.00679,-0.92754 -7.15196,-4.8025 -7.15196,-9.41667z" fill="#000000" opacity="0.09"></path><path d="M113,84.75c-23.40513,0 -42.375,18.96987 -42.375,42.375v61.20833c0,5.20271 4.21396,9.41667 9.41667,9.41667h65.91667c5.20271,0 9.41667,-4.21396 9.41667,-9.41667v-61.20833c0,-23.40512 -18.96988,-42.375 -42.375,-42.375z" fill="url(#color-6_aOMbf5k97bfk_gr6)"></path></g></g></svg>