<svg xmlns="http://www.w3.org/2000/svg" x="0px" y="0px"
width="50" height="50"
viewBox="0 0 226 226"
style=" fill:#000000;"><g fill="none" fill-rule="nonzero" stroke="none" stroke-width="1" stroke-linecap="butt" stroke-linejoin="miter" stroke-miterlimit="10" stroke-dasharray="" stroke-dashoffset="0" font-family="none" font-weight="none" font-size="none" text-anchor="none" style="mix-blend-mode: normal"><path d="M0,226v-226h226v226z" fill="none"></path><g fill="#333333"><path d="M89.835,1.83625c-16.63219,0.30016 -28.77969,5.40281 -36.16,15.11375c-8.73984,11.51187 -10.32891,28.90328 -4.8025,51.83875c-2.03047,2.48953 -3.56656,6.26797 -2.96625,11.3c1.20063,9.95812 5.06734,14.05438 8.33375,15.67875c1.55375,7.82172 5.86187,16.61453 10.02875,20.76375v2.11875c0.03531,4.59063 0.01766,8.56328 -0.42375,13.70125c-2.77203,6.35625 -11.97094,10.08172 -22.6,14.26625c-17.65625,6.93891 -39.60297,15.51984 -41.245,42.94l-0.2825,4.8025h122.74625c8.59859,18.62734 27.47312,31.64 49.29625,31.64c29.90969,0 54.24,-24.33031 54.24,-54.24c0,-29.90969 -24.33031,-54.24 -54.24,-54.24c-18.57438,0 -34.99469,9.30484 -44.77625,23.58875c-3.23109,-1.64203 -5.86187,-3.42531 -7.76875,-5.50875c-0.81219,-0.88281 -1.57141,-1.94219 -2.11875,-3.24875c-0.44141,-5.13797 -0.31781,-9.12828 -0.2825,-13.70125v-2.11875c4.04328,-4.13156 8.21016,-12.94203 9.74625,-20.76375c3.26641,-1.64203 7.13312,-5.72062 8.33375,-15.67875c0.60031,-4.92609 -0.8475,-8.66922 -2.825,-11.15875c2.63078,-8.95172 7.99828,-32.11672 -1.27125,-47.03625c-3.88437,-6.25031 -9.76391,-10.18766 -17.515,-11.72375c-4.27281,-5.38516 -12.46531,-8.33375 -23.4475,-8.33375zM171.76,126.56c24.93062,0 45.2,20.26938 45.2,45.2c0,24.93062 -20.26937,45.2 -45.2,45.2c-24.93062,0 -45.2,-20.26937 -45.2,-45.2c0,-24.93062 20.26938,-45.2 45.2,-45.2zM193.65375,151.84375l-2.825,3.53125l-21.89375,27.9675l-16.80875,-14.9725l-3.39,-2.96625l-5.9325,6.78l3.39,2.96625l20.34,18.08l3.53125,3.24875l2.96625,-3.81375l24.86,-31.64l2.825,-3.53125zM119.4975,157.49375c-0.30016,1.07703 -0.61797,2.15406 -0.8475,3.24875c0.22953,-1.11234 0.54734,-2.17172 0.8475,-3.24875zM117.8025,166.675c-0.15891,1.67734 -0.2825,3.35469 -0.2825,5.085c0,-1.71266 0.12359,-3.40766 0.2825,-5.085z"></path></g></g></svg>