<svg xmlns="http://www.w3.org/2000/svg" x="0px" y="0px"
width="24" height="24"
viewBox="0 0 172 172"
style=" fill:#000000;"><g fill="none" fill-rule="nonzero" stroke="none" stroke-width="1" stroke-linecap="butt" stroke-linejoin="miter" stroke-miterlimit="10" stroke-dasharray="" stroke-dashoffset="0" font-family="none" font-weight="none" font-size="none" text-anchor="none" style="mix-blend-mode: normal"><path d="M0,172v-172h172v172z" fill="none"></path><g fill="#1a5db4"><path d="M114.66667,136.16667h-71.66667c-11.87517,0 -21.5,-9.62483 -21.5,-21.5v-71.66667c0,-11.87517 9.62483,-21.5 21.5,-21.5h71.66667c11.87517,0 21.5,9.62483 21.5,21.5v71.66667c0,11.87517 -9.62483,21.5 -21.5,21.5z" opacity="0.35"></path><path d="M135.16333,36.83667c0.58767,1.96367 1.00333,4.00617 1.00333,6.16333v71.66667c0,11.87517 -9.62483,21.5 -21.5,21.5h-71.66667c-2.15717,0 -4.19967,-0.41567 -6.16333,-1.00333c2.666,8.85083 10.77867,15.33667 20.49667,15.33667h71.66667c11.87517,0 21.5,-9.62483 21.5,-21.5v-71.66667c0,-9.718 -6.48583,-17.83067 -15.33667,-20.49667z"></path><circle cx="13.5" cy="8.5" transform="scale(7.16667,7.16667)" r="1.5"></circle><path d="M43,110.1875c0,2.451 2.00667,4.47917 4.47917,4.47917h62.70833c2.4725,0 4.47917,-1.99233 4.47917,-4.47917c0,-6.106 -3.38267,-24.1875 -10.75,-24.1875c-3.6335,0 -9.28083,7.16667 -14.33333,7.16667c-10.03333,0 -19.70833,-21.5 -28.66667,-21.5c-8.95833,0 -17.91667,26.703 -17.91667,38.52083z"></path></g></g></svg>
