<svg xmlns="http://www.w3.org/2000/svg" x="0px" y="0px"
width="24" height="24"
viewBox="0 0 226 226"
style=" fill:#000000;"><g fill="none" fill-rule="nonzero" stroke="none" stroke-width="1" stroke-linecap="butt" stroke-linejoin="miter" stroke-miterlimit="10" stroke-dasharray="" stroke-dashoffset="0" font-family="none" font-weight="none" font-size="none" text-anchor="none" style="mix-blend-mode: normal"><path d="M0,226v-226h226v226z" fill="none"></path><g fill="#1a5db4"><circle cx="19" cy="19" transform="scale(9.41667,9.41667)" r="5" opacity="0.35"></circle><circle cx="12" cy="7" transform="scale(9.41667,9.41667)" r="5" opacity="0.35"></circle><path d="M169.5,202.45833v-47.08333c0,-5.198 4.21867,-9.41667 9.41667,-9.41667v0c5.198,0 9.41667,4.21867 9.41667,9.41667v47.08333c0,5.198 -4.21867,9.41667 -9.41667,9.41667v0c-5.198,0 -9.41667,-4.21867 -9.41667,-9.41667z"></path><path d="M155.375,169.5h47.08333c5.198,0 9.41667,4.21867 9.41667,9.41667v0c0,5.198 -4.21867,9.41667 -9.41667,9.41667h-47.08333c-5.198,0 -9.41667,-4.21867 -9.41667,-9.41667v0c0,-5.198 4.21867,-9.41667 9.41667,-9.41667z"></path><path d="M131.83333,178.91667c0,-15.47158 7.571,-29.08808 19.08758,-37.66667h-94.42092c-15.60342,0 -28.25,12.64658 -28.25,28.25c0,15.60342 12.64658,28.25 28.25,28.25h79.30717c-2.52367,-5.77242 -3.97383,-12.12867 -3.97383,-18.83333z"></path></g></g></svg>
