<svg xmlns="http://www.w3.org/2000/svg" x="0px" y="0px"
width="48" height="48"
viewBox="0 0 226 226"
style=" fill:#000000;"><g fill="none" fill-rule="nonzero" stroke="none" stroke-width="1" stroke-linecap="butt" stroke-linejoin="miter" stroke-miterlimit="10" stroke-dasharray="" stroke-dashoffset="0" font-family="none" font-weight="none" font-size="none" text-anchor="none" style="mix-blend-mode: normal"><path d="M0,226v-226h226v226z" fill="none"></path><g fill="#1a5db4"><circle cx="6.5" cy="4.5" transform="scale(9.41667,9.41667)" r="2.5"></circle><path d="M84.75,75.33333c-2.68375,0 -44.39958,0 -47.08333,0c-10.40542,0 -18.83333,8.42792 -18.83333,18.83333c0,10.40542 8.42792,18.83333 18.83333,18.83333c2.68375,0 44.39958,0 47.08333,0c10.40542,0 18.83333,-8.42792 18.83333,-18.83333c0,-10.40542 -8.42792,-18.83333 -18.83333,-18.83333z"></path><circle cx="18.5" cy="13.5" transform="scale(9.41667,9.41667)" r="2.5"></circle><path d="M197.75,160.08333c-2.68375,0 -44.39958,0 -47.08333,0c-10.40542,0 -18.83333,8.42792 -18.83333,18.83333c0,10.40542 8.42792,18.83333 18.83333,18.83333c2.68375,0 44.39958,0 47.08333,0c10.40542,0 18.83333,-8.42792 18.83333,-18.83333c0,-10.40542 -8.42792,-18.83333 -18.83333,-18.83333z"></path><path d="M99.02567,197.55225c-0.41433,0 -0.82867,-0.01883 -1.25242,-0.0565c-27.08233,-2.373 -50.24733,-21.55475 -57.63942,-47.72367c-2.11875,-7.50508 2.24117,-15.3115 9.75567,-17.43025c7.49567,-2.13758 15.3115,2.24117 17.43025,9.75567c4.22808,14.95367 17.44908,25.90525 32.92067,27.26125c7.76875,0.678 13.52233,7.53333 12.83492,15.30208c-0.64033,7.35442 -6.80825,12.89142 -14.04967,12.89142z" opacity="0.35"></path><path d="M163.24733,84.8065c-6.18675,0 -11.865,-4.09625 -13.59767,-10.34892c-4.181,-15.03842 -17.42083,-26.05592 -32.95833,-27.42133c-7.76875,-0.678 -13.52233,-7.53333 -12.83492,-15.30208c0.68742,-7.76875 7.571,-13.46583 15.30208,-12.83492c27.20475,2.373 50.398,21.66775 57.71475,47.99675c2.0905,7.5145 -2.3165,15.30208 -9.831,17.39258c-1.27125,0.34842 -2.5425,0.51792 -3.79492,0.51792z" opacity="0.35"></path></g></g></svg>
