<svg xmlns="http://www.w3.org/2000/svg" x="0px" y="0px"
width="24" height="24"
viewBox="0 0 226 226"
style=" fill:#000000;"><g fill="none" fill-rule="nonzero" stroke="none" stroke-width="1" stroke-linecap="butt" stroke-linejoin="miter" stroke-miterlimit="10" stroke-dasharray="" stroke-dashoffset="0" font-family="none" font-weight="none" font-size="none" text-anchor="none" style="mix-blend-mode: normal"><path d="M0,226v-226h226v226z" fill="none"></path><g fill="#1a5db4"><path d="M188.33333,47.08333v131.83333c0,15.60342 -12.64658,28.25 -28.25,28.25h-94.16667c-15.60342,0 -28.25,-12.64658 -28.25,-28.25v-131.83333c0,-15.60342 12.64658,-28.25 28.25,-28.25h94.16667c15.60342,0 28.25,12.64658 28.25,28.25z" opacity="0.35"></path><path d="M169.5,94.16667h-65.91667c-10.40542,0 -18.83333,8.42792 -18.83333,18.83333c0,10.40542 8.42792,18.83333 18.83333,18.83333h65.91667z"></path><path d="M156.11892,151.90025c0,7.26025 8.7575,10.91392 13.91783,5.80067l36.65908,-36.31067c4.66125,-4.62358 4.66125,-12.15692 0,-16.7805l-36.65908,-36.31067c-5.16033,-5.10383 -13.91783,-1.45017 -13.91783,5.80067z"></path></g></g></svg>
