<svg xmlns="http://www.w3.org/2000/svg" x="0px" y="0px"
width="24" height="24"
viewBox="0 0 226 226"
style=" fill:#000000;"><g fill="none" fill-rule="nonzero" stroke="none" stroke-width="1" stroke-linecap="butt" stroke-linejoin="miter" stroke-miterlimit="10" stroke-dasharray="" stroke-dashoffset="0" font-family="none" font-weight="none" font-size="none" text-anchor="none" style="mix-blend-mode: normal"><path d="M0,226v-226h226v226z" fill="none"></path><g fill="#1a5db4"><path d="M164.79167,188.33333h-103.58333c-7.80642,0 -14.125,-6.31858 -14.125,-14.125c0,-7.78758 -6.33742,-14.125 -14.125,-14.125c-7.80642,0 -14.125,-6.31858 -14.125,-14.125v-65.91667c0,-7.80642 6.31858,-14.125 14.125,-14.125c7.78758,0 14.125,-6.33742 14.125,-14.125c0,-7.80642 6.31858,-14.125 14.125,-14.125h103.58333c7.80642,0 14.125,6.31858 14.125,14.125c0,7.78758 6.33742,14.125 14.125,14.125c7.80642,0 14.125,6.31858 14.125,14.125v65.91667c0,7.80642 -6.31858,14.125 -14.125,14.125c-7.78758,0 -14.125,6.33742 -14.125,14.125c0,7.80642 -6.31858,14.125 -14.125,14.125z" opacity="0.35"></path><path d="M160.08333,103.58333h-94.16667c-5.198,0 -9.41667,-4.21867 -9.41667,-9.41667v0c0,-5.198 4.21867,-9.41667 9.41667,-9.41667h94.16667c5.198,0 9.41667,4.21867 9.41667,9.41667v0c0,5.198 -4.21867,9.41667 -9.41667,9.41667z"></path><path d="M84.75,122.41667h56.5c5.198,0 9.41667,4.21867 9.41667,9.41667v0c0,5.198 -4.21867,9.41667 -9.41667,9.41667h-56.5c-5.198,0 -9.41667,-4.21867 -9.41667,-9.41667v0c0,-5.198 4.21867,-9.41667 9.41667,-9.41667z"></path></g></g></svg>
