<svg xmlns="http://www.w3.org/2000/svg" x="0px" y="0px"
        width="48" height="48"
        viewBox="0 0 226 226"
        style=" fill:#000000;"><g fill="none" fill-rule="nonzero" stroke="none" stroke-width="1" stroke-linecap="butt" stroke-linejoin="miter" stroke-miterlimit="10" stroke-dasharray="" stroke-dashoffset="0" font-family="none" font-weight="none" font-size="none" text-anchor="none" style="mix-blend-mode: normal"><path d="M0,226v-226h226v226z" fill="none"></path><g fill="#1a5db4"><path d="M158.38833,103.58333h-90.77667c3.76667,-11.0175 14.21917,-18.83333 26.555,-18.83333h37.66667c7.81583,0 14.87833,3.20167 19.96333,8.28667c2.91917,2.91917 5.27333,6.4975 6.59167,10.54667z"></path><path d="M171.28917,207.16667h-116.57833c-9.68033,0 -17.77867,-7.33558 -18.73917,-16.95942l-5.65,-65.91667c-1.11117,-11.08342 7.59925,-20.70725 18.73917,-20.70725h127.87833c11.13992,0 19.85033,9.62383 18.73917,20.70725l-5.65,65.91667c-0.9605,9.62383 -9.05883,16.95942 -18.73917,16.95942z" opacity="0.35"></path><circle cx="12" cy="16.5" transform="scale(9.41667,9.41667)" r="1.5"></circle><circle cx="12" cy="5" transform="scale(9.41667,9.41667)" r="3" opacity="0.35"></circle></g></g></svg>