<svg xmlns="http://www.w3.org/2000/svg" x="0px" y="0px"
width="24" height="24"
viewBox="0 0 172 172"
style=" fill:#000000;"><g fill="none" fill-rule="nonzero" stroke="none" stroke-width="1" stroke-linecap="butt" stroke-linejoin="miter" stroke-miterlimit="10" stroke-dasharray="" stroke-dashoffset="0" font-family="none" font-weight="none" font-size="none" text-anchor="none" style="mix-blend-mode: normal"><path d="M0,172v-172h172v172z" fill="none"></path><g fill="#1a5db4"><path d="M136.16667,78.83333h-7.16667c-7.91917,0 -14.33333,-6.41417 -14.33333,-14.33333v-28.66667c0,-7.91917 6.41417,-14.33333 14.33333,-14.33333h7.16667c7.91917,0 14.33333,6.41417 14.33333,14.33333v28.66667c0,7.91917 -6.41417,14.33333 -14.33333,14.33333z"></path><path d="M28.66667,78.83333h7.16667c7.91917,0 14.33333,-6.41417 14.33333,-14.33333v-28.66667c0,-7.91917 -6.41417,-14.33333 -14.33333,-14.33333h-7.16667c-7.91917,0 -14.33333,6.41417 -14.33333,14.33333v28.66667c0,7.91917 6.41417,14.33333 14.33333,14.33333z"></path><path d="M136.16667,93.16667h-7.16667c-7.91917,0 -14.33333,6.41417 -14.33333,14.33333v28.66667c0,7.91917 6.41417,14.33333 14.33333,14.33333h7.16667c7.91917,0 14.33333,-6.41417 14.33333,-14.33333v-28.66667c0,-7.91917 -6.41417,-14.33333 -14.33333,-14.33333z" opacity="0.35"></path><path d="M28.66667,93.16667h7.16667c7.91917,0 14.33333,6.41417 14.33333,14.33333v28.66667c0,7.91917 -6.41417,14.33333 -14.33333,14.33333h-7.16667c-7.91917,0 -14.33333,-6.41417 -14.33333,-14.33333v-28.66667c0,-7.91917 6.41417,-14.33333 14.33333,-14.33333z" opacity="0.35"></path><path d="M86,78.83333h-7.16667c-7.91917,0 -14.33333,-6.41417 -14.33333,-14.33333v-28.66667c0,-7.91917 6.41417,-14.33333 14.33333,-14.33333h7.16667c7.91917,0 14.33333,6.41417 14.33333,14.33333v28.66667c0,7.91917 -6.41417,14.33333 -14.33333,14.33333z" opacity="0.35"></path><path d="M86,150.5h-7.16667c-7.91917,0 -14.33333,-6.41417 -14.33333,-14.33333v-28.66667c0,-7.91917 6.41417,-14.33333 14.33333,-14.33333h7.16667c7.91917,0 14.33333,6.41417 14.33333,14.33333v28.66667c0,7.91917 -6.41417,14.33333 -14.33333,14.33333z"></path></g></g></svg>