<svg xmlns="http://www.w3.org/2000/svg" x="0px" y="0px"
width="24" height="24"
viewBox="0 0 226 226"
style=" fill:#000000;"><g fill="none" fill-rule="nonzero" stroke="none" stroke-width="1" stroke-linecap="butt" stroke-linejoin="miter" stroke-miterlimit="10" stroke-dasharray="" stroke-dashoffset="0" font-family="none" font-weight="none" font-size="none" text-anchor="none" style="mix-blend-mode: normal"><path d="M0,226v-226h226v226z" fill="none"></path><g fill="#1a5db4"><rect x="8" y="15" transform="scale(9.41667,9.41667)" width="5" height="6" opacity="0.35"></rect><circle cx="11" cy="7" transform="scale(9.41667,9.41667)" r="5" opacity="0.35"></circle><path d="M137.5775,186.1675c1.50667,4.14333 3.76667,8.00417 6.40333,11.5825h-22.41167l-11.77083,-43.2225l7.91,-13.2775h26.2725c-2.63667,3.57833 -4.89667,7.43917 -6.40333,11.5825c-1.03583,2.825 -0.09417,5.83833 2.16583,7.72167c2.5425,2.16583 4.14333,5.3675 4.14333,8.94583c0,3.57833 -1.60083,6.78 -4.14333,8.94583c-2.26,1.88333 -3.20167,4.89667 -2.16583,7.72167z"></path><path d="M97.406,154.48983l-7.94767,-13.23983c-22.02558,0 -41.00017,0 -42.375,0c-15.60342,0 -28.25,12.64658 -28.25,28.25c0,15.60342 12.64658,28.25 28.25,28.25c1.29008,0 18.18358,0 38.52358,0z"></path><path d="M219.23883,169.5c0,-3.57833 1.61025,-6.77058 4.14333,-8.90817c2.25058,-1.91158 3.23933,-4.94375 2.2035,-7.71225c-1.82683,-4.83075 -4.41642,-9.28483 -7.6275,-13.20217c-1.808,-2.2035 -4.84017,-3.04158 -7.49567,-2.02458c-3.18283,1.22417 -6.86475,1.0735 -10.057,-0.77217c-3.20167,-1.84567 -5.17917,-4.972 -5.69708,-8.35258c-0.42375,-2.7685 -2.61783,-4.98142 -5.37692,-5.45225c-2.52367,-0.43317 -5.11325,-0.65917 -7.75933,-0.65917c-2.64608,0 -5.23567,0.226 -7.74992,0.65917c-2.75908,0.47083 -4.95317,2.68375 -5.37692,5.45225c-0.51792,3.39 -2.49542,6.50692 -5.69708,8.35258c-3.19225,1.84567 -6.86475,1.99633 -10.057,0.77217c-2.6555,-1.02642 -5.68767,-0.17892 -7.49567,2.02458c-3.2205,3.92675 -5.81008,8.37142 -7.6275,13.20217c-1.04525,2.7685 -0.0565,5.80067 2.2035,7.71225c2.53308,2.147 4.14333,5.32983 4.14333,8.90817c0,3.57833 -1.61025,6.77058 -4.14333,8.90817c-2.25058,1.91158 -3.23933,4.94375 -2.2035,7.71225c1.82683,4.83075 4.41642,9.28483 7.6275,13.20217c1.808,2.2035 4.84017,3.04158 7.49567,2.02458c3.18283,-1.22417 6.86475,-1.0735 10.057,0.77217c3.20167,1.84567 5.17917,4.972 5.69708,8.35258c0.42375,2.7685 2.61783,4.98142 5.37692,5.45225c2.52367,0.42375 5.11325,0.65917 7.74992,0.65917c2.63667,0 5.23567,-0.226 7.74992,-0.65917c2.75908,-0.47083 4.95317,-2.68375 5.37692,-5.45225c0.51792,-3.39 2.49542,-6.50692 5.69708,-8.35258c3.19225,-1.84567 6.86475,-1.99633 10.057,-0.77217c2.6555,1.02642 5.68767,0.17892 7.49567,-2.02458c3.2205,-3.92675 5.81008,-8.37142 7.6275,-13.20217c1.04525,-2.75908 0.0565,-5.80067 -2.2035,-7.71225c-2.52367,-2.13758 -4.13392,-5.32983 -4.13392,-8.90817z" opacity="0.35"></path><circle cx="19.282" cy="18" transform="scale(9.41667,9.41667)" r="2"></circle></g></g></svg>
