<svg xmlns="http://www.w3.org/2000/svg" x="0px" y="0px"
width="24" height="24"
viewBox="0 0 172 172"
style=" fill:#000000;"><g fill="none" fill-rule="nonzero" stroke="none" stroke-width="1" stroke-linecap="butt" stroke-linejoin="miter" stroke-miterlimit="10" stroke-dasharray="" stroke-dashoffset="0" font-family="none" font-weight="none" font-size="none" text-anchor="none" style="mix-blend-mode: normal"><path d="M0,172v-172h172v172z" fill="none"></path><g fill="#1a5db4"><circle cx="16.5" cy="7.5" transform="scale(7.16667,7.16667)" r="4.5" opacity="0.35"></circle><path d="M14.33333,135.665v-41.57383c0,-4.88767 3.36117,-9.1375 8.11983,-10.26983l16.51917,-3.90583c8.44233,-1.9995 17.3075,-1.21833 25.27683,2.2145l31.38283,13.53067c9.9545,4.29283 14.44083,15.9315 9.933,25.79283v0l2.67317,3.5045l33.3465,-11.90383c6.32817,-2.35067 13.34433,1.0105 15.48,7.41033v0c1.87767,5.633 -0.67367,11.78917 -5.98417,14.448l-33.1315,16.684c-6.6005,3.29667 -14.24017,3.84133 -21.242,1.51217l-44.00333,-14.67017c-6.27083,-2.09267 -13.04333,-2.107 -19.3285,-0.05733l-10.54933,3.44717c-4.18533,1.36883 -8.4925,-1.75583 -8.4925,-6.16333z" opacity="0.35"></path><path d="M129,14.33333c-8.14133,0 -15.4585,3.43283 -20.67583,8.88667c3.14617,-1.02483 6.44283,-1.72 9.92583,-1.72c17.80917,0 32.25,14.44083 32.25,32.25c0,3.483 -0.69517,6.77967 -1.72,9.92583c5.45383,-5.2245 8.88667,-12.5345 8.88667,-20.67583c0,-15.83117 -12.8355,-28.66667 -28.66667,-28.66667z"></path><path d="M118.7445,48.12417c-0.33683,0 -0.7525,0.043 -1.2255,0.14333c-0.48017,0.09317 -0.903,0.215 -1.27567,0.37267l0.22933,-5.64733h7.18817c1.77733,0 3.21067,-1.4405 3.21067,-3.21067c0,-1.77733 -1.4405,-3.21067 -3.21067,-3.21067h-9.76817c-2.021,0 -3.68367,1.59817 -3.75533,3.61917l-0.4085,11.12267c-0.0645,1.74867 1.5265,3.15333 3.23217,2.78067c0.9675,-0.215 2.05683,-0.37267 3.139,-0.37267c1.32583,0 4.80883,1.54083 4.80883,4.95217c0,3.9345 -1.66267,4.902 -3.4185,4.902c-1.08217,0 -1.94217,-0.82417 -2.55133,-1.71283c-0.86,-1.26133 -2.451,-1.79167 -3.90583,-1.34017c-2.13567,0.67367 -3.18917,3.21067 -1.99233,5.10267c0.57333,0.91017 4.1495,4.37883 8.6215,4.37883c7.912,0 10.35583,-7.224 10.35583,-11.55983c0.0215,-3.14617 -1.66267,-10.32 -9.27367,-10.32z"></path></g></g></svg>