<svg xmlns="http://www.w3.org/2000/svg" x="0px" y="0px"
width="24" height="24"
viewBox="0 0 226 226"
style=" fill:#000000;"><g fill="none" fill-rule="nonzero" stroke="none" stroke-width="1" stroke-linecap="butt" stroke-linejoin="miter" stroke-miterlimit="10" stroke-dasharray="" stroke-dashoffset="0" font-family="none" font-weight="none" font-size="none" text-anchor="none" style="mix-blend-mode: normal"><path d="M0,226v-226h226v226z" fill="none"></path><g fill="#1a5db4"><circle cx="12" cy="5" transform="scale(9.41667,9.41667)" r="3" opacity="0.35"></circle><path d="M160.08333,122.41667h-94.16667v-18.83333c0,-10.40542 8.42792,-18.83333 18.83333,-18.83333h56.5c10.40542,0 18.83333,8.42792 18.83333,18.83333z"></path><path d="M193.04167,150.66667h-160.08333c-7.80642,0 -14.125,-6.328 -14.125,-14.125v0c0,-7.797 6.31858,-14.125 14.125,-14.125h160.08333c7.797,0 14.125,6.328 14.125,14.125v0c0,7.797 -6.328,14.125 -14.125,14.125z" opacity="0.35"></path><path d="M32.95833,150.66667c-1.65733,0 -3.22992,-0.339 -4.70833,-0.86633l8.1925,24.96358c6.34683,19.33242 24.38917,32.40275 44.73858,32.40275h63.63783c20.34,0 38.39175,-13.07033 44.73858,-32.39333l8.1925,-24.973c-1.47842,0.52733 -3.051,0.86633 -4.70833,0.86633z"></path></g></g></svg>
