<svg xmlns="http://www.w3.org/2000/svg" x="0px" y="0px"
width="24" height="24"
viewBox="0 0 226 226"
style=" fill:#000000;"><g fill="none" fill-rule="nonzero" stroke="none" stroke-width="1" stroke-linecap="butt" stroke-linejoin="miter" stroke-miterlimit="10" stroke-dasharray="" stroke-dashoffset="0" font-family="none" font-weight="none" font-size="none" text-anchor="none" style="mix-blend-mode: normal"><path d="M0,226v-226h226v226z" fill="none"></path><g fill="#1a5db4"><path d="M169.5,197.75h-113c-15.60342,0 -28.25,-12.64658 -28.25,-28.25v-75.33333c0,-15.60342 12.64658,-28.25 28.25,-28.25h113c15.60342,0 28.25,12.64658 28.25,28.25v75.33333c0,15.60342 -12.64658,28.25 -28.25,28.25z" opacity="0.35"></path><path d="M75.33333,65.91667c0,-20.80142 16.86525,-37.66667 37.66667,-37.66667c20.80142,0 37.66667,16.86525 37.66667,37.66667h18.83333c0,-31.20683 -25.29317,-56.5 -56.5,-56.5c-31.20683,0 -56.5,25.29317 -56.5,56.5z"></path><path d="M113,94.16667c-20.80142,0 -37.66667,16.86525 -37.66667,37.66667c0,20.80142 16.86525,37.66667 37.66667,37.66667c20.80142,0 37.66667,-16.86525 37.66667,-37.66667c0,-20.80142 -16.86525,-37.66667 -37.66667,-37.66667zM127.125,131.83333c-7.797,0 -14.125,-6.328 -14.125,-14.125c0,-7.797 6.328,-14.125 14.125,-14.125c7.797,0 14.125,6.328 14.125,14.125c0,7.797 -6.328,14.125 -14.125,14.125z"></path></g></g></svg>
