<svg xmlns="http://www.w3.org/2000/svg" x="0px" y="0px"
width="24" height="24"
viewBox="0 0 226 226"
style=" fill:#000000;"><g fill="none" fill-rule="nonzero" stroke="none" stroke-width="1" stroke-linecap="butt" stroke-linejoin="miter" stroke-miterlimit="10" stroke-dasharray="" stroke-dashoffset="0" font-family="none" font-weight="none" font-size="none" text-anchor="none" style="mix-blend-mode: normal"><path d="M0,226v-226h226v226z" fill="none"></path><g fill="#1a5db4"><path d="M208.40025,141.25h-20.06692v-75.33333v0c0,-20.80142 -16.86525,-37.66667 -37.66667,-37.66667v0h-94.16667v37.66667h75.33333c10.40542,0 18.83333,8.42792 18.83333,18.83333v56.5h-20.06692c-7.26025,0 -10.91392,8.7575 -5.80067,13.91783l40.19975,40.58583c2.47658,2.50483 6.52575,2.50483 9.01175,0l40.19975,-40.58583c5.10383,-5.16033 1.45017,-13.91783 -5.81008,-13.91783z" opacity="0.35"></path><path d="M169.34933,197.59933c-1.582,-0.03767 -3.15458,-0.64033 -4.3505,-1.84567l-35.33133,-35.67033h-35.50083c-10.40542,0 -18.83333,-8.42792 -18.83333,-18.83333v-56.5h20.06692c7.26025,0 10.91392,-8.7575 5.80067,-13.91783l-40.57642,-40.9625c-2.27883,-2.29767 -5.97958,-2.29767 -8.25842,0l-40.57642,40.9625c-5.10383,5.16033 -1.45017,13.91783 5.81008,13.91783h20.06692v75.33333c0,20.80142 16.86525,37.66667 37.66667,37.66667h94.16667z"></path></g></g></svg>
