<svg xmlns="http://www.w3.org/2000/svg" x="0px" y="0px"
width="24" height="24"
viewBox="0 0 172 172"
style=" fill:#000000;"><g fill="none" fill-rule="nonzero" stroke="none" stroke-width="1" stroke-linecap="butt" stroke-linejoin="miter" stroke-miterlimit="10" stroke-dasharray="" stroke-dashoffset="0" font-family="none" font-weight="none" font-size="none" text-anchor="none" style="mix-blend-mode: normal"><path d="M0,172v-172h172v172z" fill="none"></path><g fill="#1a5db4"><path d="M136.16667,129h-100.33333c-11.87517,0 -21.5,-9.62483 -21.5,-21.5v-57.33333c0,-11.87517 9.62483,-21.5 21.5,-21.5h100.33333c11.87517,0 21.5,9.62483 21.5,21.5v57.33333c0,11.87517 -9.62483,21.5 -21.5,21.5z" opacity="0.35"></path><path d="M111.08333,129c-1.26133,0 -48.90533,0 -50.16667,0c-5.934,0 -10.75,4.816 -10.75,10.75c0,5.934 4.816,10.75 10.75,10.75c1.26133,0 48.90533,0 50.16667,0c5.934,0 10.75,-4.816 10.75,-10.75c0,-5.934 -4.816,-10.75 -10.75,-10.75z"></path><path d="M94.4495,105.67967c0,2.52983 -1.46917,8.987 -8.4925,8.987c-7.02333,0 -8.4065,-6.46433 -8.4065,-8.987c0,-2.4725 1.56233,-9.0945 8.4065,-9.0945c6.84417,0 8.4925,6.622 8.4925,9.0945zM78.25283,78.25283v-31.18217c0,-4.2785 3.46867,-7.74717 7.74717,-7.74717v0c4.2785,0 7.74717,3.46867 7.74717,7.74717v31.18933c0,4.27133 -3.46867,7.74 -7.74717,7.74v0c-4.2785,0 -7.74717,-3.46867 -7.74717,-7.74717z"></path></g></g></svg>