<svg xmlns="http://www.w3.org/2000/svg" x="0px" y="0px"
width="24" height="24"
viewBox="0 0 172 172"
style=" fill:#000000;"><g fill="none" fill-rule="nonzero" stroke="none" stroke-width="1" stroke-linecap="butt" stroke-linejoin="miter" stroke-miterlimit="10" stroke-dasharray="" stroke-dashoffset="0" font-family="none" font-weight="none" font-size="none" text-anchor="none" style="mix-blend-mode: normal"><path d="M0,172v-172h172v172z" fill="none"></path><g fill="#1a5db4"><path d="M150.5,43c0,-7.91917 -6.41417,-14.33333 -14.33333,-14.33333h-100.33333c-7.91917,0 -14.33333,6.41417 -14.33333,14.33333v86c0,11.87517 9.62483,21.5 21.5,21.5h86c11.87517,0 21.5,-9.62483 21.5,-21.5z" opacity="0.35"></path><path d="M129,21.5h-86c-11.87517,0 -21.5,9.62483 -21.5,21.5v21.5h129v-21.5c0,-11.87517 -9.62483,-21.5 -21.5,-21.5zM43,50.16667c-3.956,0 -7.16667,-3.21067 -7.16667,-7.16667c0,-3.956 3.21067,-7.16667 7.16667,-7.16667c3.956,0 7.16667,3.21067 7.16667,7.16667c0,3.956 -3.21067,7.16667 -7.16667,7.16667zM64.5,50.16667c-3.956,0 -7.16667,-3.21067 -7.16667,-7.16667c0,-3.956 3.21067,-7.16667 7.16667,-7.16667c3.956,0 7.16667,3.21067 7.16667,7.16667c0,3.956 -3.21067,7.16667 -7.16667,7.16667zM129,50.16667c-1.333,0 -34.50033,0 -35.83333,0c-3.956,0 -7.16667,-3.21067 -7.16667,-7.16667c0,-3.956 3.21067,-7.16667 7.16667,-7.16667c1.333,0 34.50033,0 35.83333,0c3.956,0 7.16667,3.21067 7.16667,7.16667c0,3.956 -3.21067,7.16667 -7.16667,7.16667z"></path><path d="M100.33333,86v17.91667c0,1.978 -1.60533,3.58333 -3.58333,3.58333h-7.16667c-1.978,0 -3.58333,-1.60533 -3.58333,-3.58333v-9.2665c0,-3.18917 -3.86283,-4.7945 -6.12033,-2.537l-15.37967,15.38683v-12.84983c0,-3.18917 -3.86283,-4.7945 -6.12033,-2.537l-13.287,13.287c-1.34017,1.34733 -2.09267,3.16767 -2.09267,5.06683v18.533c0,3.956 3.21067,7.16667 7.16667,7.16667h71.66667c3.956,0 7.16667,-3.21067 7.16667,-7.16667v-43c0,-3.956 -3.21067,-7.16667 -7.16667,-7.16667h-14.33333c-3.956,0 -7.16667,3.21067 -7.16667,7.16667z"></path></g></g></svg>