<svg xmlns="http://www.w3.org/2000/svg" x="0px" y="0px"
width="24" height="24"
viewBox="0 0 226 226"
style=" fill:#000000;"><g fill="none" fill-rule="nonzero" stroke="none" stroke-width="1" stroke-linecap="butt" stroke-linejoin="miter" stroke-miterlimit="10" stroke-dasharray="" stroke-dashoffset="0" font-family="none" font-weight="none" font-size="none" text-anchor="none" style="mix-blend-mode: normal"><path d="M0,226v-226h226v226z" fill="none"></path><g fill="#1a5db4"><path d="M169.5,197.75h-113c-15.60342,0 -28.25,-12.64658 -28.25,-28.25v-103.58333h169.5v103.58333c0,15.60342 -12.64658,28.25 -28.25,28.25z" opacity="0.35"></path><path d="M169.5,28.25h-113c-15.60342,0 -28.25,12.64658 -28.25,28.25v9.41667h169.5v-9.41667c0,-15.60342 -12.64658,-28.25 -28.25,-28.25z"></path><circle cx="10" cy="18" transform="scale(9.41667,9.41667)" r="1"></circle><circle cx="6" cy="18" transform="scale(9.41667,9.41667)" r="1"></circle><circle cx="6" cy="14" transform="scale(9.41667,9.41667)" r="1"></circle><circle cx="10" cy="14" transform="scale(9.41667,9.41667)" r="1"></circle><circle cx="16" cy="16" transform="scale(9.41667,9.41667)" r="3"></circle><circle cx="18" cy="10" transform="scale(9.41667,9.41667)" r="1"></circle><circle cx="14" cy="10" transform="scale(9.41667,9.41667)" r="1"></circle><circle cx="10" cy="10" transform="scale(9.41667,9.41667)" r="1"></circle></g></g></svg>
