<svg xmlns="http://www.w3.org/2000/svg" x="0px" y="0px"
width="24" height="24"
viewBox="0 0 172 172"
style=" fill:#000000;"><g fill="none" fill-rule="nonzero" stroke="none" stroke-width="1" stroke-linecap="butt" stroke-linejoin="miter" stroke-miterlimit="10" stroke-dasharray="" stroke-dashoffset="0" font-family="none" font-weight="none" font-size="none" text-anchor="none" style="mix-blend-mode: normal"><path d="M0,172v-172h172v172z" fill="none"></path><g fill="#1a5db4"><path d="M143.41217,28.58783c-9.44567,-9.44567 -24.76083,-9.44567 -34.2065,0l-79.04833,78.89783c-2.16433,2.16433 -3.60483,4.93783 -4.128,7.955l-4.4075,25.5635c-0.95317,5.53267 3.85567,10.33433 9.38833,9.374l25.2625,-4.39317c2.99567,-0.52317 5.762,-1.9565 7.912,-4.1065l79.2275,-79.09133c9.45283,-9.44567 9.45283,-24.75367 0,-34.19933z" opacity="0.35"></path><path d="M93.70417,44.032l34.2065,34.2065l14.21867,-14.1685l-34.2065,-34.2065z"></path><path d="M24.30933,125.41667l-2.6875,15.5875c-0.95317,5.53267 3.85567,10.33433 9.38833,9.374l15.55883,-2.709z"></path></g></g></svg>
