<svg xmlns="http://www.w3.org/2000/svg" x="0px" y="0px"
width="24" height="24"
viewBox="0 0 172 172"
style=" fill:#000000;"><g fill="none" fill-rule="nonzero" stroke="none" stroke-width="1" stroke-linecap="butt" stroke-linejoin="miter" stroke-miterlimit="10" stroke-dasharray="" stroke-dashoffset="0" font-family="none" font-weight="none" font-size="none" text-anchor="none" style="mix-blend-mode: normal"><path d="M0,172v-172h172v172z" fill="none"></path><g fill="#1a5db4"><circle cx="19" cy="19" transform="scale(7.16667,7.16667)" r="5" opacity="0.35"></circle><circle cx="7.5" cy="6.5" transform="scale(7.16667,7.16667)" r="3.5" opacity="0.35"></circle><circle cx="16.5" cy="6.5" transform="scale(7.16667,7.16667)" r="3.5" opacity="0.35"></circle><path d="M129,154.08333v-35.83333c0,-3.956 3.21067,-7.16667 7.16667,-7.16667v0c3.956,0 7.16667,3.21067 7.16667,7.16667v35.83333c0,3.956 -3.21067,7.16667 -7.16667,7.16667v0c-3.956,0 -7.16667,-3.21067 -7.16667,-7.16667z"></path><path d="M118.25,129h35.83333c3.956,0 7.16667,3.21067 7.16667,7.16667v0c0,3.956 -3.21067,7.16667 -7.16667,7.16667h-35.83333c-3.956,0 -7.16667,-3.21067 -7.16667,-7.16667v0c0,-3.956 3.21067,-7.16667 7.16667,-7.16667z"></path><path d="M100.33333,136.16667c0,-19.178 15.10017,-34.701 34.04167,-35.65417c-0.602,-0.043 -1.17533,-0.17917 -1.79167,-0.17917c-1.17533,0 -91.99133,0 -93.16667,0c-13.85317,0 -25.08333,11.23017 -25.08333,25.08333c0,13.85317 11.23017,25.08333 25.08333,25.08333c0.73817,0 36.894,0 63.941,0c-1.92067,-4.39317 -3.02433,-9.23067 -3.02433,-14.33333z"></path></g></g></svg>
