<svg xmlns="http://www.w3.org/2000/svg" x="0px" y="0px"
width="50" height="50"
viewBox="0 0 226 226"
style=" fill:#000000;"><g fill="none" fill-rule="nonzero" stroke="none" stroke-width="1" stroke-linecap="butt" stroke-linejoin="miter" stroke-miterlimit="10" stroke-dasharray="" stroke-dashoffset="0" font-family="none" font-weight="none" font-size="none" text-anchor="none" style="mix-blend-mode: normal"><path d="M0,226v-226h226v226z" fill="none"></path><g fill="#1a5db4"><path d="M169.5,197.75h-113c-15.60342,0 -28.25,-12.64658 -28.25,-28.25v-113c0,-15.60342 12.64658,-28.25 28.25,-28.25h113c15.60342,0 28.25,12.64658 28.25,28.25v113c0,15.60342 -12.64658,28.25 -28.25,28.25z" opacity="0.35"></path><path d="M160.08333,75.33333h-94.16667c-5.20742,0 -9.41667,-4.21867 -9.41667,-9.41667c0,-5.198 4.20925,-9.41667 9.41667,-9.41667h94.16667c5.20742,0 9.41667,4.21867 9.41667,9.41667c0,5.198 -4.20925,9.41667 -9.41667,9.41667z"></path><path d="M160.08333,122.41667h-94.16667c-5.20742,0 -9.41667,-4.21867 -9.41667,-9.41667c0,-5.198 4.20925,-9.41667 9.41667,-9.41667h94.16667c5.20742,0 9.41667,4.21867 9.41667,9.41667c0,5.198 -4.20925,9.41667 -9.41667,9.41667z"></path><path d="M160.08333,169.5h-94.16667c-5.20742,0 -9.41667,-4.21867 -9.41667,-9.41667c0,-5.198 4.20925,-9.41667 9.41667,-9.41667h94.16667c5.20742,0 9.41667,4.21867 9.41667,9.41667c0,5.198 -4.20925,9.41667 -9.41667,9.41667z"></path></g></g></svg>
