<svg xmlns="http://www.w3.org/2000/svg" x="0px" y="0px"
width="24" height="24"
viewBox="0 0 172 172"
style=" fill:#000000;"><g fill="none" fill-rule="nonzero" stroke="none" stroke-width="1" stroke-linecap="butt" stroke-linejoin="miter" stroke-miterlimit="10" stroke-dasharray="" stroke-dashoffset="0" font-family="none" font-weight="none" font-size="none" text-anchor="none" style="mix-blend-mode: normal"><path d="M0,172v-172h172v172z" fill="none"></path><g fill="#95a5a6"><path d="M143.33333,28.66667h-114.66667v116.60167c0,9.20917 9.68933,15.19333 17.92383,11.07967l39.4095,-19.70833l39.4095,19.70833c8.2345,4.11367 17.92383,-1.87767 17.92383,-11.07967z" opacity="0.35"></path><path d="M139.75,21.5c-2.76633,0 -104.73367,0 -107.5,0c-5.934,0 -10.75,4.816 -10.75,10.75c0,5.934 4.816,10.75 10.75,10.75c2.76633,0 104.73367,0 107.5,0c5.934,0 10.75,-4.816 10.75,-10.75c0,-5.934 -4.816,-10.75 -10.75,-10.75z"></path></g></g></svg>
