<svg xmlns="http://www.w3.org/2000/svg" x="0px" y="0px"
width="24" height="24"
viewBox="0 0 172 172"
style=" fill:#000000;"><g fill="none" fill-rule="nonzero" stroke="none" stroke-width="1" stroke-linecap="butt" stroke-linejoin="miter" stroke-miterlimit="10" stroke-dasharray="" stroke-dashoffset="0" font-family="none" font-weight="none" font-size="none" text-anchor="none" style="mix-blend-mode: normal"><path d="M0,172v-172h172v172z" fill="none"></path><g fill="#1a5db4"><path d="M129,150.5h-86c-11.87517,0 -21.5,-9.62483 -21.5,-21.5v-86c0,-11.87517 9.62483,-21.5 21.5,-21.5h86c11.87517,0 21.5,9.62483 21.5,21.5v86c0,11.87517 -9.62483,21.5 -21.5,21.5z" opacity="0.35"></path><path d="M126.248,112.961c-1.34733,-1.34733 -15.7595,-15.7595 -19.79433,-19.79433c-3.3755,5.36783 -7.91917,9.90433 -13.287,13.287c4.03483,4.03483 18.447,18.447 19.79433,19.79433c3.66933,3.66933 9.61767,3.66933 13.287,0c3.66933,-3.66933 3.66933,-9.61767 0,-13.287z"></path><path d="M82.41667,43c-21.77233,0 -39.41667,17.64433 -39.41667,39.41667c0,21.77233 17.64433,39.41667 39.41667,39.41667c21.77233,0 39.41667,-17.64433 39.41667,-39.41667c0,-21.77233 -17.64433,-39.41667 -39.41667,-39.41667zM82.41667,107.5c-13.85317,0 -25.08333,-11.23017 -25.08333,-25.08333c0,-13.85317 11.23017,-25.08333 25.08333,-25.08333c13.85317,0 25.08333,11.23017 25.08333,25.08333c0,13.85317 -11.23017,25.08333 -25.08333,25.08333z"></path></g></g>
</svg>
