<svg xmlns="http://www.w3.org/2000/svg" x="0px" y="0px"
width="24" height="24"
viewBox="0 0 226 226"
style=" fill:#000000;"><g fill="none" fill-rule="nonzero" stroke="none" stroke-width="1" stroke-linecap="butt" stroke-linejoin="miter" stroke-miterlimit="10" stroke-dasharray="" stroke-dashoffset="0" font-family="none" font-weight="none" font-size="none" text-anchor="none" style="mix-blend-mode: normal"><path d="M0,226v-226h226v226z" fill="none"></path><g fill="#1a5db4"><path d="M84.75,188.33333c0,15.60342 12.64658,28.25 28.25,28.25c15.60342,0 28.25,-12.64658 28.25,-28.25z"></path><path d="M178.91667,100.44758v-12.92908c0,-36.09408 -27.80742,-67.56458 -63.89208,-68.6475c-37.32767,-1.13 -67.94125,28.79617 -67.94125,65.879v15.69758c0,14.26625 -4.62358,28.137 -13.18333,39.55l-10.82917,14.43575c-2.74967,3.66308 -4.2375,8.12658 -4.2375,12.7125v0c0,11.70492 9.48258,21.1875 21.1875,21.1875h145.95833c11.70492,0 21.1875,-9.48258 21.1875,-21.1875v0c0,-4.58592 -1.48783,-9.04942 -4.2375,-12.7125l-10.82917,-14.43575c-8.55975,-11.413 -13.18333,-25.29317 -13.18333,-39.55z" opacity="0.35"></path></g></g></svg>
