<svg xmlns="http://www.w3.org/2000/svg" x="0px" y="0px"
width="24" height="24"
viewBox="0 0 172 172"
style=" fill:#000000;"><g fill="none" fill-rule="nonzero" stroke="none" stroke-width="1" stroke-linecap="butt" stroke-linejoin="miter" stroke-miterlimit="10" stroke-dasharray="" stroke-dashoffset="0" font-family="none" font-weight="none" font-size="none" text-anchor="none" style="mix-blend-mode: normal"><path d="M0,172v-172h172v172z" fill="none"></path><g fill="#95a5a6"><path d="M64.5,50.16667h50.16667v-16.44033c0,-4.4075 5.31767,-6.622 8.44233,-3.51883l29.412,29.20417c2.83083,2.80217 2.83083,7.38167 0,10.18383l-29.412,29.20417c-3.12467,3.096 -8.44233,0.87433 -8.44233,-3.526v-16.44033h-50.16667c-7.91917,0 -14.33333,6.41417 -14.33333,14.33333h-28.66667c0,-23.75033 19.24967,-43 43,-43z" opacity="0.35"></path><path d="M50.16667,93.16667v35.0665c0,7.138 -4.8805,13.76 -11.92533,14.90667c-8.97983,1.45483 -16.74133,-5.43233 -16.74133,-14.13983v-35.83333c0,-23.75033 19.24967,-43 43,-43c0,0 -14.33333,14.33333 -14.33333,43z"></path></g></g></svg>
