<svg xmlns="http://www.w3.org/2000/svg" x="0px" y="0px"
width="24" height="24"
viewBox="0 0 226 226"
style=" fill:#000000;"><g fill="none" fill-rule="nonzero" stroke="none" stroke-width="1" stroke-linecap="butt" stroke-linejoin="miter" stroke-miterlimit="10" stroke-dasharray="" stroke-dashoffset="0" font-family="none" font-weight="none" font-size="none" text-anchor="none" style="mix-blend-mode: normal"><path d="M0,226v-226h226v226z" fill="none"></path><g fill="#1a5db4"><rect x="9" y="15" transform="scale(9.41667,9.41667)" width="6" height="6" opacity="0.35"></rect><circle cx="12" cy="7" transform="scale(9.41667,9.41667)" r="5" opacity="0.35"></circle><path d="M169.5,141.25c-1.37483,0 -20.34942,0 -42.375,0l-7.94767,13.23983l11.79908,43.26017c20.34,0 37.2335,0 38.52358,0c15.60342,0 28.25,-12.64658 28.25,-28.25c0,-15.60342 -12.64658,-28.25 -28.25,-28.25z"></path><path d="M106.82267,154.48983l-7.94767,-13.23983c-22.02558,0 -41.00017,0 -42.375,0c-15.60342,0 -28.25,12.64658 -28.25,28.25c0,15.60342 12.64658,28.25 28.25,28.25c1.29008,0 18.18358,0 38.52358,0z"></path></g></g></svg>
