<svg xmlns="http://www.w3.org/2000/svg" x="0px" y="0px"
width="24" height="24"
viewBox="0 0 226 226"
style=" fill:#000000;"><g fill="none" fill-rule="nonzero" stroke="none" stroke-width="1" stroke-linecap="butt" stroke-linejoin="miter" stroke-miterlimit="10" stroke-dasharray="" stroke-dashoffset="0" font-family="none" font-weight="none" font-size="none" text-anchor="none" style="mix-blend-mode: normal"><path d="M0,226v-226h226v226z" fill="none"></path><g fill="#1a5db4"><path d="M70.625,197.75h-37.66667c-7.797,0 -14.125,-6.328 -14.125,-14.125v-141.25c0,-7.797 6.328,-14.125 14.125,-14.125h37.66667c7.797,0 14.125,6.328 14.125,14.125v141.25c0,7.797 -6.328,14.125 -14.125,14.125z" opacity="0.35"></path><path d="M193.04167,204.8125h-37.66667c-7.797,0 -14.125,-13.3905 -14.125,-21.1875v-113c0,-7.797 6.328,-14.125 14.125,-14.125h37.66667c7.797,0 14.125,6.328 14.125,14.125v113c0,7.797 -6.328,21.1875 -14.125,21.1875z" opacity="0.35"></path><circle cx="12" cy="18" transform="scale(9.41667,9.41667)" r="1" opacity="0.35"></circle><circle cx="5.5" cy="17.5" transform="scale(9.41667,9.41667)" r="1.5"></circle><path d="M127.125,75.33333h-28.25c-7.797,0 -14.125,6.328 -14.125,14.125v94.16667c0,7.797 6.328,14.125 14.125,14.125h28.25c7.797,0 14.125,-6.328 14.125,-14.125v-94.16667c0,-7.797 -6.328,-14.125 -14.125,-14.125zM113,178.91667c-5.198,0 -9.41667,-4.21867 -9.41667,-9.41667c0,-5.198 4.21867,-9.41667 9.41667,-9.41667c5.198,0 9.41667,4.21867 9.41667,9.41667c0,5.198 -4.21867,9.41667 -9.41667,9.41667z"></path><path d="M65.91667,65.91667h-28.25c-5.20742,0 -9.41667,-4.21867 -9.41667,-9.41667c0,-5.198 4.20925,-9.41667 9.41667,-9.41667h28.25c5.20742,0 9.41667,4.21867 9.41667,9.41667c0,5.198 -4.20925,9.41667 -9.41667,9.41667z"></path><path d="M65.91667,94.16667h-28.25c-5.20742,0 -9.41667,-4.21867 -9.41667,-9.41667c0,-5.198 4.20925,-9.41667 9.41667,-9.41667h28.25c5.20742,0 9.41667,4.21867 9.41667,9.41667c0,5.198 -4.20925,9.41667 -9.41667,9.41667z"></path><path d="M188.33333,94.16667h-28.25c-5.20742,0 -9.41667,-4.21867 -9.41667,-9.41667c0,-5.198 4.20925,-9.41667 9.41667,-9.41667h28.25c5.20742,0 9.41667,4.21867 9.41667,9.41667c0,5.198 -4.20925,9.41667 -9.41667,9.41667z"></path><path d="M188.33333,122.41667h-28.25c-5.20742,0 -9.41667,-4.21867 -9.41667,-9.41667c0,-5.198 4.20925,-9.41667 9.41667,-9.41667h28.25c5.20742,0 9.41667,4.21867 9.41667,9.41667c0,5.198 -4.20925,9.41667 -9.41667,9.41667z"></path><path d="M178.91667,131.83333c-25.99942,0 -47.08333,21.08392 -47.08333,47.08333c0,25.99942 21.08392,47.08333 47.08333,47.08333c25.99942,0 47.08333,-21.08392 47.08333,-47.08333c0,-25.99942 -21.08392,-47.08333 -47.08333,-47.08333zM203.57892,175.32892l-23.54167,23.54167c-1.55375,1.55375 -3.62542,2.41067 -5.82892,2.41067c-2.2035,0 -4.27517,-0.85692 -5.82892,-2.41067l-14.125,-14.125c-3.21108,-3.2205 -3.21108,-8.43733 0,-11.65783c3.21108,-3.20167 8.43733,-3.20167 11.64842,0l8.29608,8.3055l17.71275,-17.72217c3.21108,-3.20167 8.43733,-3.20167 11.64842,0c3.22992,3.2205 3.22992,8.43733 0.01883,11.65783z"></path></g></g></svg>
