<svg xmlns="http://www.w3.org/2000/svg" x="0px" y="0px"
width="24" height="24"
viewBox="0 0 172 172"
style=" fill:#000000;"><g fill="none" fill-rule="nonzero" stroke="none" stroke-width="1" stroke-linecap="butt" stroke-linejoin="miter" stroke-miterlimit="10" stroke-dasharray="" stroke-dashoffset="0" font-family="none" font-weight="none" font-size="none" text-anchor="none" style="mix-blend-mode: normal"><path d="M0,172v-172h172v172z" fill="none"></path><g fill="#1a5db4"><path d="M156.21183,55.73517c-1.23267,-5.14567 -7.73283,-6.87283 -11.47383,-3.13183c-8.99417,8.99417 -19.01317,19.01317 -20.984,20.984c-7.42467,7.42467 -19.7585,6.97317 -26.58117,-1.376c-5.934,-7.25267 -4.6655,-18.06 1.96367,-24.68917l20.253,-20.253c3.741,-3.741 2.021,-10.24833 -3.12467,-11.481c-7.49633,-1.79883 -15.60183,-2.01383 -24.00117,-0.1935c-20.86217,4.52933 -37.48883,21.61467 -41.22267,42.6345c-1.677,9.44567 -0.86717,18.54017 1.85617,26.76033l-31.476,31.38283c-9.44567,9.44567 -9.44567,24.76083 0,34.2065c9.44567,9.44567 24.76083,9.44567 34.2065,0l31.519,-31.42583c8.18433,2.6875 17.22867,3.46867 26.617,1.79883c21.027,-3.73383 38.11233,-20.35333 42.6345,-41.22267c1.8275,-8.39933 1.60533,-16.49767 -0.18633,-23.994z" opacity="0.35"></path><circle cx="5.5" cy="18.5" transform="scale(7.16667,7.16667)" r="1.5"></circle></g></g></svg>