<svg xmlns="http://www.w3.org/2000/svg" x="0px" y="0px"
width="24" height="24"
viewBox="0 0 226 226"
style=" fill:#000000;"><g fill="none" fill-rule="nonzero" stroke="none" stroke-width="1" stroke-linecap="butt" stroke-linejoin="miter" stroke-miterlimit="10" stroke-dasharray="" stroke-dashoffset="0" font-family="none" font-weight="none" font-size="none" text-anchor="none" style="mix-blend-mode: normal"><path d="M0,226v-226h226v226z" fill="none"></path><g fill="#1a5db4"><path d="M180.43275,65.54942c-5.85717,5.85717 -15.57517,5.49933 -20.95208,-1.08292c-4.68008,-5.71592 -3.6725,-14.238 1.54433,-19.46425l15.97067,-15.97067c2.94742,-2.94742 1.59142,-8.0795 -2.45775,-9.04942c-5.91367,-1.4125 -12.29817,-1.59142 -18.91808,-0.15067c-16.45092,3.56892 -29.55892,17.03475 -32.49692,33.60808c-5.22625,29.45533 20.001,54.68258 49.44692,49.44692c16.57333,-2.938 30.04858,-16.046 33.6175,-32.49692c1.44075,-6.61992 1.26183,-13.01383 -0.15067,-18.91808c-0.96992,-4.05858 -6.09258,-5.424 -9.04,-2.46717c-7.119,7.09075 -15.01017,14.98192 -16.56392,16.54508z"></path><path d="M151.03392,142.18225l-49.4375,-49.80475l21.14042,-21.14042l-6.78942,-2.41067c-17.7975,-6.30917 -37.64783,-1.82683 -51.00067,11.526l-35.06767,35.06767c-14.71825,14.70883 -14.72767,38.54242 -0.02825,53.26067l30.171,30.19925c8.60683,8.61625 21.7525,10.74442 32.63817,5.29217l44.93633,-22.50583l13.12683,-12.55242c7.64633,-7.29792 7.77817,-19.45483 0.31075,-26.93167z" opacity="0.35"></path><rect x="14.56522" y="-5.55217" transform="rotate(45.001) scale(9.41667,9.41667)" width="4.811" height="4.86"></rect></g></g></svg>
