<svg xmlns="http://www.w3.org/2000/svg" x="0px" y="0px"
width="24" height="24"
viewBox="0 0 172 172"
style=" fill:#000000;"><g fill="none" fill-rule="nonzero" stroke="none" stroke-width="1" stroke-linecap="butt" stroke-linejoin="miter" stroke-miterlimit="10" stroke-dasharray="" stroke-dashoffset="0" font-family="none" font-weight="none" font-size="none" text-anchor="none" style="mix-blend-mode: normal"><path d="M0,172v-172h172v172z" fill="none"></path><g fill="#1a5db4"><path d="M143.33333,114.66667v21.5l-14.19717,7.16667h-86.25083l-14.21867,-7.16667v-21.5l9.675,-7.16667c3.94167,-8.45667 12.61333,-14.33333 22.575,-14.33333h50.16667c9.96167,0 18.63333,5.87667 22.575,14.33333z" opacity="0.35"></path><path d="M60.91667,143.33333h-35.83333c-9.89,0 -17.91667,-8.02667 -17.91667,-17.91667c0,-9.89 8.02667,-17.91667 17.91667,-17.91667h13.25833c-1.64833,3.225 -2.50833,6.88 -2.50833,10.75c0,13.83167 11.25167,25.08333 25.08333,25.08333z"></path><path d="M164.83333,125.41667c0,9.89 -8.02667,17.91667 -17.91667,17.91667h-35.83333c13.83167,0 25.08333,-11.25167 25.08333,-25.08333c0,-3.87 -0.86,-7.525 -2.50833,-10.75h13.25833c9.89,0 17.91667,8.02667 17.91667,17.91667z"></path><circle cx="12" cy="7" transform="scale(7.16667,7.16667)" r="4" opacity="0.35"></circle><circle cx="20" cy="9" transform="scale(7.16667,7.16667)" r="3" opacity="0.35"></circle><circle cx="4" cy="9" transform="scale(7.16667,7.16667)" r="3" opacity="0.35"></circle></g></g></svg>