<svg xmlns="http://www.w3.org/2000/svg" x="0px" y="0px"
width="24" height="24"
viewBox="0 0 172 172"
style=" fill:#000000;"><g fill="none" fill-rule="nonzero" stroke="none" stroke-width="1" stroke-linecap="butt" stroke-linejoin="miter" stroke-miterlimit="10" stroke-dasharray="" stroke-dashoffset="0" font-family="none" font-weight="none" font-size="none" text-anchor="none" style="mix-blend-mode: normal"><path d="M0,172v-172h172v172z" fill="none"></path><g fill="#1a5db4"><rect x="2" y="6" transform="scale(7.16667,7.16667)" width="20" height="14" rx="2" ry="0" opacity="0.35"></rect><path d="M111.19083,87.02483l-35.83333,-21.5c-2.21366,-1.32997 -4.97166,-1.36611 -7.21941,-0.09461c-2.24775,1.2715 -3.63759,3.65398 -3.63809,6.23644v43c0.00049,2.58246 1.39033,4.96494 3.63809,6.23644c2.24775,1.2715 5.00576,1.23536 7.21941,-0.09461l35.83333,-21.5c2.1553,-1.29599 3.47357,-3.6269 3.47357,-6.14183c0,-2.51494 -1.31826,-4.84584 -3.47357,-6.14183z"></path><path d="M43,28.66667h86c7.91608,0 14.33333,6.41725 14.33333,14.33333v0v0h-114.66667v0v0c0,-7.91608 6.41725,-14.33333 14.33333,-14.33333z"></path></g></g></svg>
