<svg xmlns="http://www.w3.org/2000/svg" x="0px" y="0px"
width="24" height="24"
viewBox="0 0 226 226"
style=" fill:#000000;"><g fill="none" fill-rule="nonzero" stroke="none" stroke-width="1" stroke-linecap="butt" stroke-linejoin="miter" stroke-miterlimit="10" stroke-dasharray="" stroke-dashoffset="0" font-family="none" font-weight="none" font-size="none" text-anchor="none" style="mix-blend-mode: normal"><path d="M0,226v-226h226v226z" fill="none"></path><g fill="#1a5db4"><circle cx="11" cy="7" transform="scale(9.41667,9.41667)" r="5" opacity="0.35"></circle><path d="M160.08333,141.25c-25.17075,0 -87.82925,0 -113,0c-15.63167,0 -28.25,12.61833 -28.25,28.25c0,15.63167 12.61833,28.25 28.25,28.25c33.18433,0 79.81567,0 113,0c15.63167,0 28.25,-12.61833 28.25,-28.25c0,-15.63167 -12.61833,-28.25 -28.25,-28.25z"></path><path d="M178.91667,28.1935c0,-2.62725 1.6385,-9.36017 9.46375,-9.36017c7.82525,0 9.36958,6.73292 9.36958,9.36017c0,2.57075 -1.74208,9.47317 -9.36958,9.47317c-7.6275,0 -9.46375,-6.90242 -9.46375,-9.47317z"></path><path d="M196.62,54.89917v31.45167c0,4.32225 -3.71017,7.81583 -8.28667,7.81583v0c-4.5765,0 -8.28667,-3.49358 -8.28667,-7.81583v-31.45167c0,-4.32225 3.71017,-7.81583 8.28667,-7.81583v0c4.5765,0 8.28667,3.49358 8.28667,7.81583z"></path></g></g></svg>
