<svg xmlns="http://www.w3.org/2000/svg" x="0px" y="0px"
width="24" height="24"
viewBox="0 0 172 172"
style=" fill:#000000;"><g fill="none" fill-rule="nonzero" stroke="none" stroke-width="1" stroke-linecap="butt" stroke-linejoin="miter" stroke-miterlimit="10" stroke-dasharray="" stroke-dashoffset="0" font-family="none" font-weight="none" font-size="none" text-anchor="none" style="mix-blend-mode: normal"><path d="M0,172v-172h172v172z" fill="none"></path><g fill="#1a5db4"><path d="M150.5,114.66667h-129c-3.956,0 -7.16667,-3.21067 -7.16667,-7.16667v-14.33333c0,-3.956 3.21067,-7.16667 7.16667,-7.16667h129c3.956,0 7.16667,3.21067 7.16667,7.16667v14.33333c0,3.956 -3.21067,7.16667 -7.16667,7.16667z" opacity="0.35"></path><path d="M136.16667,150.5h-100.33333c-7.91917,0 -14.33333,-6.41417 -14.33333,-14.33333v-21.5h129v21.5c0,7.91917 -6.41417,14.33333 -14.33333,14.33333z"></path><circle cx="9" cy="5" transform="scale(7.16667,7.16667)" r="3" opacity="0.35"></circle><path d="M38.27717,64.5c-9.2665,0 -16.77717,7.51067 -16.77717,16.77717v4.72283h43l-21.5,-21.5z"></path><path d="M90.72283,64.5h-4.72283l-21.5,21.5h43v-4.72283c0,-9.2665 -7.51067,-16.77717 -16.77717,-16.77717z"></path><path d="M43,64.5l21.5,21.5l21.5,-21.5z" opacity="0.35"></path><path d="M136.16667,71.66667c-7.91917,0 -14.33333,6.41417 -14.33333,14.33333h28.66667c0,-7.91917 -6.41417,-14.33333 -14.33333,-14.33333z"></path></g></g></svg>
