<svg xmlns="http://www.w3.org/2000/svg" x="0px" y="0px"
width="24" height="24"
viewBox="0 0 226 226"
style=" fill:#000000;"><g fill="none" fill-rule="nonzero" stroke="none" stroke-width="1" stroke-linecap="butt" stroke-linejoin="miter" stroke-miterlimit="10" stroke-dasharray="" stroke-dashoffset="0" font-family="none" font-weight="none" font-size="none" text-anchor="none" style="mix-blend-mode: normal"><path d="M0,226v-226h226v226z" fill="none"></path><g fill="#1a5db4"><path d="M188.33333,197.75l-150.66667,-56.5v-56.5l150.66667,-56.5z" opacity="0.35"></path><path d="M47.08333,136.54167c0,-3.63483 0,-43.4485 0,-47.08333c0,-7.797 -6.328,-14.125 -14.125,-14.125c-7.797,0 -14.125,6.328 -14.125,14.125c0,3.63483 0,43.4485 0,47.08333c0,7.797 6.328,14.125 14.125,14.125c7.797,0 14.125,-6.328 14.125,-14.125z"></path><path d="M207.16667,193.04167c0,-3.63483 0,-156.4485 0,-160.08333c0,-7.797 -6.328,-14.125 -14.125,-14.125c-7.797,0 -14.125,6.328 -14.125,14.125c0,3.63483 0,156.4485 0,160.08333c0,7.797 6.328,14.125 14.125,14.125c7.797,0 14.125,-6.328 14.125,-14.125z"></path><path d="M75.28625,155.35617l-0.32958,0.87575c-3.66308,9.73683 1.26183,20.59425 10.99867,24.25733l17.628,6.62933c9.73683,3.66308 20.59425,-1.26183 24.25733,-10.99867l0.34842,-0.93225z"></path></g></g></svg>
