<svg xmlns="http://www.w3.org/2000/svg" x="0px" y="0px"
width="50" height="50"
viewBox="0 0 226 226"
style=" fill:#000000;"><g fill="none" fill-rule="nonzero" stroke="none" stroke-width="1" stroke-linecap="butt" stroke-linejoin="miter" stroke-miterlimit="10" stroke-dasharray="" stroke-dashoffset="0" font-family="none" font-weight="none" font-size="none" text-anchor="none" style="mix-blend-mode: normal"><path d="M0,226v-226h226v226z" fill="none"></path><g fill="#1a5db4"><path d="M28.25,56.5v113c0,15.60342 12.64658,28.25 28.25,28.25h113c15.60342,0 28.25,-12.64658 28.25,-28.25v-113z" opacity="0.35"></path><path d="M169.5,28.25h-113c-15.60342,0 -28.25,12.64658 -28.25,28.25v9.41667h169.5v-9.41667c0,-15.60342 -12.64658,-28.25 -28.25,-28.25z"></path><path d="M85.90825,141.25c-5.05675,0 -7.59925,6.102 -4.03975,9.68975l25.29317,25.538c3.2205,3.24875 8.46558,3.24875 11.68608,0l25.29317,-25.538c3.55008,-3.58775 1.00758,-9.68975 -4.04917,-9.68975z"></path><path d="M85.90825,122.41667c-5.05675,0 -7.59925,-6.102 -4.03975,-9.68975l25.29317,-25.538c3.2205,-3.24875 8.46558,-3.24875 11.68608,0l25.29317,25.538c3.55008,3.58775 1.00758,9.68975 -4.04917,9.68975z"></path></g></g></svg>