<svg xmlns="http://www.w3.org/2000/svg" x="0px" y="0px"
width="24" height="24"
viewBox="0 0 172 172"
style=" fill:#000000;"><g fill="none" fill-rule="nonzero" stroke="none" stroke-width="1" stroke-linecap="butt" stroke-linejoin="miter" stroke-miterlimit="10" stroke-dasharray="" stroke-dashoffset="0" font-family="none" font-weight="none" font-size="none" text-anchor="none" style="mix-blend-mode: normal"><path d="M0,172v-172h172v172z" fill="none"></path><g fill="#1a5db4"><path d="M159.69483,45.07117l-22.24533,-22.0375c-3.13183,-3.096 -8.4495,-0.87433 -8.4495,3.526v9.27367h-100.33333c-7.91917,0 -14.33333,6.41417 -14.33333,14.33333v0c0,7.91917 6.41417,14.33333 14.33333,14.33333h100.33333v9.27367c0,4.4075 5.31767,6.622 8.44233,3.51883l22.24533,-22.0375c2.838,-2.80217 2.838,-7.3745 0.00717,-10.18383z" opacity="0.35"></path><path d="M16.45467,126.92167l22.24533,22.0375c3.13183,3.10317 8.44233,0.8815 8.44233,-3.51883v-9.27367h100.33333c7.91917,0 14.33333,-6.41417 14.33333,-14.33333v0c0,-7.91917 -6.41417,-14.33333 -14.33333,-14.33333h-100.33333v-9.27367c0,-4.4075 -5.31767,-6.622 -8.44233,-3.51883l-22.24533,22.0375c-2.83083,2.80217 -2.83083,7.3745 0,10.17667z"></path></g></g></svg>