<svg xmlns="http://www.w3.org/2000/svg" x="0px" y="0px"
width="24" height="24"
viewBox="0 0 172 172"
style=" fill:#000000;"><g fill="none" fill-rule="nonzero" stroke="none" stroke-width="1" stroke-linecap="butt" stroke-linejoin="miter" stroke-miterlimit="10" stroke-dasharray="" stroke-dashoffset="0" font-family="none" font-weight="none" font-size="none" text-anchor="none" style="mix-blend-mode: normal"><path d="M0,172v-172h172v172z" fill="none"></path><g fill="#1a5db4"><path d="M153.86833,40.45583c-2.70183,-2.93833 -6.54317,-4.6225 -10.54217,-4.6225h-112.68867l-0.78833,-5.9555c-1.1825,-8.858 -8.815,-15.5445 -17.759,-15.5445h-4.9235c-3.96317,0 -7.16667,3.2035 -7.16667,7.16667c0,3.96317 3.2035,7.16667 7.16667,7.16667h4.9235c1.79167,0 3.31817,1.34017 3.55467,3.11033l11.01517,82.61733c1.64833,12.41267 12.33383,21.77233 24.854,21.77233h75.94517c12.943,0 23.92233,-10.09783 24.99733,-22.99783l5.16,-61.81967c0.3225,-3.98467 -1.03917,-7.955 -3.74817,-10.89333z" opacity="0.35"></path><circle cx="8" cy="19" transform="scale(7.16667,7.16667)" r="2"></circle><circle cx="17" cy="19" transform="scale(7.16667,7.16667)" r="2"></circle></g></g></svg>