<svg xmlns="http://www.w3.org/2000/svg" x="0px" y="0px"
width="24" height="24"
viewBox="0 0 226 226"
style=" fill:#000000;"><g fill="none" fill-rule="nonzero" stroke="none" stroke-width="1" stroke-linecap="butt" stroke-linejoin="miter" stroke-miterlimit="10" stroke-dasharray="" stroke-dashoffset="0" font-family="none" font-weight="none" font-size="none" text-anchor="none" style="mix-blend-mode: normal"><path d="M0,226v-226h226v226z" fill="none"></path><g fill="#1a5db4"><path d="M178.91667,188.33333h-131.83333c-15.60342,0 -28.25,-12.64658 -28.25,-28.25v-94.16667c0,-15.60342 12.64658,-28.25 28.25,-28.25h131.83333c15.60342,0 28.25,12.64658 28.25,28.25v94.16667c0,15.60342 -12.64658,28.25 -28.25,28.25z" opacity="0.35"></path><circle cx="8" cy="10" transform="scale(9.41667,9.41667)" r="2"></circle><path d="M98.875,150.66667h-47.08333c-7.797,0 -14.125,-6.328 -14.125,-14.125v0c0,-7.797 6.328,-14.125 14.125,-14.125h47.08333c7.797,0 14.125,6.328 14.125,14.125v0c0,7.797 -6.328,14.125 -14.125,14.125z"></path><path d="M178.91667,84.75h-37.66667c-5.198,0 -9.41667,-4.21867 -9.41667,-9.41667v0c0,-5.198 4.21867,-9.41667 9.41667,-9.41667h37.66667c5.198,0 9.41667,4.21867 9.41667,9.41667v0c0,5.198 -4.21867,9.41667 -9.41667,9.41667z"></path><path d="M178.91667,122.41667h-37.66667c-5.198,0 -9.41667,-4.21867 -9.41667,-9.41667v0c0,-5.198 4.21867,-9.41667 9.41667,-9.41667h37.66667c5.198,0 9.41667,4.21867 9.41667,9.41667v0c0,5.198 -4.21867,9.41667 -9.41667,9.41667z"></path><path d="M178.91667,160.08333h-37.66667c-5.198,0 -9.41667,-4.21867 -9.41667,-9.41667v0c0,-5.198 4.21867,-9.41667 9.41667,-9.41667h37.66667c5.198,0 9.41667,4.21867 9.41667,9.41667v0c0,5.198 -4.21867,9.41667 -9.41667,9.41667z"></path></g></g></svg>
