<svg xmlns="http://www.w3.org/2000/svg" x="0px" y="0px"
width="24" height="24"
viewBox="0 0 172 172"
style=" fill:#000000;"><g fill="none" fill-rule="nonzero" stroke="none" stroke-width="1" stroke-linecap="butt" stroke-linejoin="miter" stroke-miterlimit="10" stroke-dasharray="" stroke-dashoffset="0" font-family="none" font-weight="none" font-size="none" text-anchor="none" style="mix-blend-mode: normal"><path d="M0,172v-172h172v172z" fill="none"></path><g fill="#1a5db4"><rect x="13" y="17" transform="scale(7.16667,7.16667)" width="5" height="4" opacity="0.35"></rect><circle cx="12" cy="7" transform="scale(7.16667,7.16667)" r="5" opacity="0.35"></circle><path d="M128.226,107.5h-78.05217c-16.79867,0 -26.30883,7.0305 -28.26533,17.243c-2.63733,13.7385 7.826,25.757 21.0915,25.757h57.33333v-14.33333c0,-3.956 3.21067,-7.16667 7.16667,-7.16667h14.33333c3.956,0 7.16667,3.21067 7.16667,7.16667v14.33333c13.2655,0 23.72883,-12.0185 21.0915,-25.757c-1.9565,-10.2125 -11.46667,-17.243 -21.8655,-17.243z"></path></g></g></svg>
