<svg xmlns="http://www.w3.org/2000/svg" x="0px" y="0px"
width="24" height="24"
viewBox="0 0 226 226"
style=" fill:#000000;"><g fill="none" fill-rule="nonzero" stroke="none" stroke-width="1" stroke-linecap="butt" stroke-linejoin="miter" stroke-miterlimit="10" stroke-dasharray="" stroke-dashoffset="0" font-family="none" font-weight="none" font-size="none" text-anchor="none" style="mix-blend-mode: normal"><path d="M0,226v-226h226v226z" fill="none"></path><g fill="#1a5db4"><path d="M183.625,37.66667c-3.63483,0 -62.28183,0 -65.91667,0c-7.797,0 -14.125,6.328 -14.125,14.125c0,7.797 6.328,14.125 14.125,14.125c3.63483,0 62.28183,0 65.91667,0c7.797,0 14.125,-6.328 14.125,-14.125c0,-7.797 -6.328,-14.125 -14.125,-14.125z"></path><path d="M183.625,103.58333c-3.63483,0 -62.28183,0 -65.91667,0c-7.797,0 -14.125,6.328 -14.125,14.125c0,7.797 6.328,14.125 14.125,14.125c3.63483,0 62.28183,0 65.91667,0c7.797,0 14.125,-6.328 14.125,-14.125c0,-7.797 -6.328,-14.125 -14.125,-14.125z"></path><path d="M183.625,169.5c-3.63483,0 -62.28183,0 -65.91667,0c-7.797,0 -14.125,6.328 -14.125,14.125c0,7.797 6.328,14.125 14.125,14.125c3.63483,0 62.28183,0 65.91667,0c7.797,0 14.125,-6.328 14.125,-14.125c0,-7.797 -6.328,-14.125 -14.125,-14.125z" opacity="0.35"></path><path d="M56.5,141.25h-9.41667c-10.40542,0 -18.83333,-8.42792 -18.83333,-18.83333v-9.41667c0,-10.40542 8.42792,-18.83333 18.83333,-18.83333h9.41667c10.40542,0 18.83333,8.42792 18.83333,18.83333v9.41667c0,10.40542 -8.42792,18.83333 -18.83333,18.83333z"></path><path d="M56.5,75.33333h-9.41667c-10.40542,0 -18.83333,-8.42792 -18.83333,-18.83333v-9.41667c0,-10.40542 8.42792,-18.83333 18.83333,-18.83333h9.41667c10.40542,0 18.83333,8.42792 18.83333,18.83333v9.41667c0,10.40542 -8.42792,18.83333 -18.83333,18.83333z"></path><path d="M56.5,207.16667h-9.41667c-10.40542,0 -18.83333,-8.42792 -18.83333,-18.83333v-9.41667c0,-10.40542 8.42792,-18.83333 18.83333,-18.83333h9.41667c10.40542,0 18.83333,8.42792 18.83333,18.83333v9.41667c0,10.40542 -8.42792,18.83333 -18.83333,18.83333z" opacity="0.35"></path></g></g></svg>
