<svg xmlns="http://www.w3.org/2000/svg" x="0px" y="0px"
width="24" height="24"
viewBox="0 0 172 172"
style=" fill:#000000;"><g fill="none" fill-rule="nonzero" stroke="none" stroke-width="1" stroke-linecap="butt" stroke-linejoin="miter" stroke-miterlimit="10" stroke-dasharray="" stroke-dashoffset="0" font-family="none" font-weight="none" font-size="none" text-anchor="none" style="mix-blend-mode: normal"><path d="M0,172v-172h172v172z" fill="none"></path><g fill="#1a5db4"><circle cx="12" cy="12" transform="scale(7.16667,7.16667)" r="10" opacity="0.35"></circle><path d="M106.06667,116.1l-50.16667,-50.16667c-2.86667,-2.86667 -2.86667,-7.16667 0,-10.03333v0c2.86667,-2.86667 7.16667,-2.86667 10.03333,0l50.16667,50.16667c2.86667,2.86667 2.86667,7.16667 0,10.03333v0c-2.86667,2.86667 -7.16667,2.86667 -10.03333,0z"></path><path d="M55.9,106.06667l50.16667,-50.16667c2.86667,-2.86667 7.16667,-2.86667 10.03333,0v0c2.86667,2.86667 2.86667,7.16667 0,10.03333l-50.16667,50.16667c-2.86667,2.86667 -7.16667,2.86667 -10.03333,0v0c-2.86667,-2.86667 -2.86667,-7.16667 0,-10.03333z"></path></g></g></svg>