<svg xmlns="http://www.w3.org/2000/svg" x="0px" y="0px"
width="24" height="24"
viewBox="0 0 172 172"
style=" fill:#000000;"><g fill="none" fill-rule="nonzero" stroke="none" stroke-width="1" stroke-linecap="butt" stroke-linejoin="miter" stroke-miterlimit="10" stroke-dasharray="" stroke-dashoffset="0" font-family="none" font-weight="none" font-size="none" text-anchor="none" style="mix-blend-mode: normal"><path d="M0,172v-172h172v172z" fill="none"></path><g fill="#1a5db4"><path d="M16.26117,111.97917c-12.00417,-15.265 -12.00417,-36.7005 0,-51.9655c14.08967,-17.9095 37.33833,-38.51367 69.73883,-38.51367c32.4005,0 55.64917,20.60417 69.73883,38.52083c12.00417,15.265 12.00417,36.7005 0,51.9655c-14.08967,17.9095 -37.33833,38.51367 -69.73883,38.51367c-32.4005,0 -55.64917,-20.60417 -69.73883,-38.52083z" opacity="0.35"></path><path d="M44.505,74.89167c-1.00333,3.51167 -1.505,7.23833 -1.505,11.10833c0,23.72167 19.27833,43 43,43c3.87,0 7.59667,-0.50167 11.10833,-1.505zM86,43c-10.46333,0 -19.995,3.72667 -27.44833,9.89c6.88,6.665 14.04667,13.68833 21.285,20.855c2.00667,-5.375 7.23833,-9.245 13.33,-9.245c7.88333,0 14.33333,6.45 14.33333,14.33333c0,6.09167 -3.87,11.32333 -9.245,13.40167c7.23833,7.23833 14.26167,14.405 20.855,21.21333c6.16333,-7.45333 9.89,-16.985 9.89,-27.44833c0,-23.72167 -19.27833,-43 -43,-43z"></path><path d="M150.5,157.66667c-1.83467,0 -3.66933,-0.70233 -5.06683,-2.09983l-129,-129c-2.80217,-2.80217 -2.80217,-7.3315 0,-10.13367c2.80217,-2.80217 7.3315,-2.80217 10.13367,0l129,129c2.80217,2.80217 2.80217,7.3315 0,10.13367c-1.3975,1.3975 -3.23217,2.09983 -5.06683,2.09983z"></path></g></g></svg>
