<svg xmlns="http://www.w3.org/2000/svg" x="0px" y="0px"
width="24" height="24"
viewBox="0 0 172 172"
style=" fill:#000000;"><g fill="none" fill-rule="nonzero" stroke="none" stroke-width="1" stroke-linecap="butt" stroke-linejoin="miter" stroke-miterlimit="10" stroke-dasharray="" stroke-dashoffset="0" font-family="none" font-weight="none" font-size="none" text-anchor="none" style="mix-blend-mode: normal"><path d="M0,172v-172h172v172z" fill="none"></path><g fill="#1a5db4"><path d="M139.62817,58.70933c-8.15567,-21.72217 -29.05367,-37.20933 -53.62817,-37.20933c-29.46933,0 -53.72133,22.24533 -56.93917,50.8475c-16.54783,3.17483 -29.06083,17.68017 -29.06083,35.1525c0,19.78717 16.04617,35.83333 35.83333,35.83333h93.16667c23.75033,0 43,-19.24967 43,-43c0,-20.07383 -13.77433,-36.87967 -32.37183,-41.624z" opacity="0.35"></path><path d="M68.241,100.33333c-3.311,0 -4.98083,3.999 -2.65167,6.35683l16.58367,16.74133c2.107,2.1285 5.55417,2.1285 7.66117,0l16.58367,-16.74133c2.32917,-2.35783 0.65933,-6.35683 -2.65883,-6.35683z"></path><path d="M78.83333,107.5v-50.16667c0,-3.956 3.21067,-7.16667 7.16667,-7.16667v0c3.956,0 7.16667,3.21067 7.16667,7.16667v50.16667c0,3.956 -3.21067,7.16667 -7.16667,7.16667v0c-3.956,0 -7.16667,-3.21067 -7.16667,-7.16667z"></path></g></g></svg>