<svg xmlns="http://www.w3.org/2000/svg" x="0px" y="0px"
width="48" height="48"
viewBox="0 0 226 226"
style=" fill:#000000;"><g fill="none" fill-rule="nonzero" stroke="none" stroke-width="1" stroke-linecap="butt" stroke-linejoin="miter" stroke-miterlimit="10" stroke-dasharray="" stroke-dashoffset="0" font-family="none" font-weight="none" font-size="none" text-anchor="none" style="mix-blend-mode: normal"><path d="M0,226v-226h226v226z" fill="none"></path><g fill="#1a5db4"><path d="M75.33333,75.33333h-37.66667c-10.40542,0 -18.83333,-8.42792 -18.83333,-18.83333v0c0,-10.40542 8.42792,-18.83333 18.83333,-18.83333h37.66667c10.40542,0 18.83333,8.42792 18.83333,18.83333v0c0,10.40542 -8.42792,18.83333 -18.83333,18.83333z" opacity="0.35"></path><path d="M75.33333,131.83333h-37.66667c-10.40542,0 -18.83333,-8.42792 -18.83333,-18.83333v0c0,-10.40542 8.42792,-18.83333 18.83333,-18.83333h37.66667c10.40542,0 18.83333,8.42792 18.83333,18.83333v0c0,10.40542 -8.42792,18.83333 -18.83333,18.83333z" opacity="0.35"></path><path d="M75.33333,188.33333h-37.66667c-10.40542,0 -18.83333,-8.42792 -18.83333,-18.83333v0c0,-10.40542 8.42792,-18.83333 18.83333,-18.83333h37.66667c10.40542,0 18.83333,8.42792 18.83333,18.83333v0c0,10.40542 -8.42792,18.83333 -18.83333,18.83333z" opacity="0.35"></path><path d="M164.79167,188.33333h-37.66667c-7.797,0 -14.125,-6.328 -14.125,-14.125c0,-7.797 6.328,-14.125 14.125,-14.125h37.66667c7.78758,0 14.125,-6.33742 14.125,-14.125v-65.91667c0,-7.78758 -6.33742,-14.125 -14.125,-14.125h-28.25c-7.797,0 -14.125,-6.328 -14.125,-14.125c0,-7.797 6.328,-14.125 14.125,-14.125h28.25c23.36275,0 42.375,19.01225 42.375,42.375v65.91667c0,23.36275 -19.01225,42.375 -42.375,42.375z"></path><path d="M140.97692,20.65075l-25.538,25.29317c-3.24875,3.2205 -3.24875,8.46558 0,11.68608l25.538,25.29317c3.58775,3.5595 9.68975,1.017 9.68975,-4.03975v-54.1835c0,-5.05675 -6.102,-7.59925 -9.68975,-4.04917z"></path></g></g></svg>