<svg xmlns="http://www.w3.org/2000/svg" x="0px" y="0px"
width="24" height="24"
viewBox="0 0 226 226"
style=" fill:#000000;"><g fill="none" fill-rule="nonzero" stroke="none" stroke-width="1" stroke-linecap="butt" stroke-linejoin="miter" stroke-miterlimit="10" stroke-dasharray="" stroke-dashoffset="0" font-family="none" font-weight="none" font-size="none" text-anchor="none" style="mix-blend-mode: normal"><path d="M0,226v-226h226v226z" fill="none"></path><g fill="#1a5db4"><path d="M19.64317,80.23c2.0905,15.56575 10.27358,51.33967 42.53508,83.60117c32.2615,32.2615 68.026,40.44458 83.60117,42.53508c11.28117,2.43892 23.51342,-0.65917 32.28033,-9.42608c13.71067,-13.71067 -35.95283,-63.37417 -49.6635,-49.6635l-8.74808,8.74808l-49.6635,-49.6635l8.73867,-8.74808c13.71067,-13.71067 -35.95283,-63.37417 -49.6635,-49.6635c-8.76692,8.76692 -11.865,20.99917 -9.41667,32.28033z" opacity="0.35"></path><path d="M29.08808,47.92142l49.65408,49.65408c13.68242,-13.72008 13.68242,-35.92458 -0.02825,-49.63525c-13.69183,-13.69183 -35.90575,-13.70125 -49.62583,-0.01883z"></path><path d="M128.41508,147.24842l49.65408,49.65408c13.68242,-13.71067 13.68242,-35.92458 -0.02825,-49.63525c-13.70125,-13.69183 -35.90575,-13.70125 -49.62583,-0.01883z"></path><circle cx="17" cy="7" transform="scale(9.41667,9.41667)" r="5" opacity="0.35"></circle><path d="M160.08333,32.95833c-5.198,0 -9.41667,4.21867 -9.41667,9.41667v47.08333c0,5.198 4.21867,9.41667 9.41667,9.41667c5.198,0 9.41667,-4.21867 9.41667,-9.41667v-47.08333c0,-5.198 -4.21867,-9.41667 -9.41667,-9.41667z"></path><path d="M193.04167,65.91667c0,-5.198 -4.21867,-9.41667 -9.41667,-9.41667h-47.08333c-5.198,0 -9.41667,4.21867 -9.41667,9.41667c0,5.198 4.21867,9.41667 9.41667,9.41667h47.08333c5.198,0 9.41667,-4.21867 9.41667,-9.41667z"></path></g></g></svg>
