<svg xmlns="http://www.w3.org/2000/svg" x="0px" y="0px"
width="24" height="24"
viewBox="0 0 172 172"
style=" fill:#000000;"><g fill="none" fill-rule="nonzero" stroke="none" stroke-width="1" stroke-linecap="butt" stroke-linejoin="miter" stroke-miterlimit="10" stroke-dasharray="" stroke-dashoffset="0" font-family="none" font-weight="none" font-size="none" text-anchor="none" style="mix-blend-mode: normal"><path d="M0,172v-172h172v172z" fill="none"></path><g fill="#1a5db4"><path d="M146.91667,28.66667c-2.76633,0 -54.567,0 -57.33333,0c-5.934,0 -10.75,4.816 -10.75,10.75c0,5.934 4.816,10.75 10.75,10.75c2.76633,0 54.567,0 57.33333,0c5.934,0 10.75,-4.816 10.75,-10.75c0,-5.934 -4.816,-10.75 -10.75,-10.75z" opacity="0.35"></path><path d="M146.91667,78.83333c-2.76633,0 -54.567,0 -57.33333,0c-5.934,0 -10.75,4.816 -10.75,10.75c0,5.934 4.816,10.75 10.75,10.75c2.76633,0 54.567,0 57.33333,0c5.934,0 10.75,-4.816 10.75,-10.75c0,-5.934 -4.816,-10.75 -10.75,-10.75z" opacity="0.35"></path><path d="M146.91667,129c-2.76633,0 -54.567,0 -57.33333,0c-5.934,0 -10.75,4.816 -10.75,10.75c0,5.934 4.816,10.75 10.75,10.75c2.76633,0 54.567,0 57.33333,0c5.934,0 10.75,-4.816 10.75,-10.75c0,-5.934 -4.816,-10.75 -10.75,-10.75z" opacity="0.35"></path><circle cx="5.5" cy="12.5" transform="scale(7.16667,7.16667)" r="2.5"></circle><path d="M32.77317,125.78933l-11.58133,19.92333c-3.08883,5.30333 0.73817,11.954 6.87283,11.954h22.704c6.07017,0 9.90433,-6.52883 6.9445,-11.83217l-11.12267,-19.92333c-3.00283,-5.38217 -10.72133,-5.45383 -13.81733,-0.12183z"></path><path d="M48.375,55.54167h-17.91667c-3.956,0 -7.16667,-3.21067 -7.16667,-7.16667v-17.91667c0,-3.956 3.21067,-7.16667 7.16667,-7.16667h17.91667c3.956,0 7.16667,3.21067 7.16667,7.16667v17.91667c0,3.956 -3.21067,7.16667 -7.16667,7.16667z"></path></g></g></svg>