<svg xmlns="http://www.w3.org/2000/svg" x="0px" y="0px"
width="24" height="24"
viewBox="0 0 226 226"
style=" fill:#000000;"><g fill="none" fill-rule="nonzero" stroke="none" stroke-width="1" stroke-linecap="butt" stroke-linejoin="miter" stroke-miterlimit="10" stroke-dasharray="" stroke-dashoffset="0" font-family="none" font-weight="none" font-size="none" text-anchor="none" style="mix-blend-mode: normal"><path d="M0,226v-226h226v226z" fill="none"></path><g fill="#1a5db4"><path d="M188.33333,94.16667c0,-10.40542 -8.42792,-18.83333 -18.83333,-18.83333h-18.83333v-28.25h-75.33333v28.25h-18.83333c-10.40542,0 -18.83333,8.42792 -18.83333,18.83333v75.33333c0,15.60342 12.64658,28.25 28.25,28.25h94.16667c15.60342,0 28.25,-12.64658 28.25,-28.25z" opacity="0.35"></path><path d="M122.41667,122.41667h-18.83333v-18.83333h18.83333z"></path><path d="M122.41667,169.5h-18.83333v-28.25h18.83333z"></path><path d="M160.08333,122.41667h-18.83333v-18.83333h18.83333z"></path><path d="M160.08333,169.5h-18.83333v-28.25h18.83333z"></path><path d="M84.75,122.41667h-18.83333v-18.83333h18.83333z"></path><path d="M84.75,169.5h-18.83333v-28.25h18.83333z"></path><path d="M159.08517,38.54242l-33.45742,-16.724c-7.95708,-3.97383 -17.31725,-3.97383 -25.26492,0l-33.448,16.724c-6.3845,3.19225 -10.41483,9.70858 -10.41483,16.84642v19.9445h28.25v-18.83333h18.83333v18.83333h18.83333v-18.83333h18.83333v18.83333h28.25v-19.9445c0,-7.13783 -4.03033,-13.65417 -10.41483,-16.84642z"></path></g></g></svg>
