<svg xmlns="http://www.w3.org/2000/svg" x="0px" y="0px"
width="24" height="24"
viewBox="0 0 172 172"
style=" fill:#000000;"><g fill="none" fill-rule="nonzero" stroke="none" stroke-width="1" stroke-linecap="butt" stroke-linejoin="miter" stroke-miterlimit="10" stroke-dasharray="" stroke-dashoffset="0" font-family="none" font-weight="none" font-size="none" text-anchor="none" style="mix-blend-mode: normal"><path d="M0,172v-172h172v172z" fill="none"></path><g fill="#1a5db4"><path d="M136.16667,129h-100.33333c-11.87517,0 -21.5,-9.62483 -21.5,-21.5v-57.33333c0,-11.87517 9.62483,-21.5 21.5,-21.5h100.33333c11.87517,0 21.5,9.62483 21.5,21.5v57.33333c0,11.87517 -9.62483,21.5 -21.5,21.5z" opacity="0.35"></path><path d="M111.08333,129c-1.26133,0 -48.90533,0 -50.16667,0c-5.934,0 -10.75,4.816 -10.75,10.75c0,5.934 4.816,10.75 10.75,10.75c1.26133,0 48.90533,0 50.16667,0c5.934,0 10.75,-4.816 10.75,-10.75c0,-5.934 -4.816,-10.75 -10.75,-10.75z"></path><path d="M107.5,86c-1.83467,0 -3.66933,-0.70233 -5.06683,-2.09983l-14.33333,-14.33333c-2.80217,-2.80217 -2.80217,-7.3315 0,-10.13367l14.33333,-14.33333c2.80217,-2.80217 7.3315,-2.80217 10.13367,0c2.80217,2.80217 2.80217,7.3315 0,10.13367l-9.2665,9.2665l9.2665,9.2665c2.80217,2.80217 2.80217,7.3315 0,10.13367c-1.3975,1.3975 -3.23217,2.09983 -5.06683,2.09983z"></path><path d="M64.5,114.66667c-1.83467,0 -3.66933,-0.70233 -5.06683,-2.09983c-2.80217,-2.80217 -2.80217,-7.3315 0,-10.13367l9.2665,-9.2665l-9.2665,-9.2665c-2.80217,-2.80217 -2.80217,-7.3315 0,-10.13367c2.80217,-2.80217 7.3315,-2.80217 10.13367,0l14.33333,14.33333c2.80217,2.80217 2.80217,7.3315 0,10.13367l-14.33333,14.33333c-1.3975,1.3975 -3.23217,2.09983 -5.06683,2.09983z"></path></g></g></svg>
