<svg xmlns="http://www.w3.org/2000/svg" x="0px" y="0px"
width="24" height="24"
viewBox="0 0 172 172"
style=" fill:#000000;"><g fill="none" fill-rule="nonzero" stroke="none" stroke-width="1" stroke-linecap="butt" stroke-linejoin="miter" stroke-miterlimit="10" stroke-dasharray="" stroke-dashoffset="0" font-family="none" font-weight="none" font-size="none" text-anchor="none" style="mix-blend-mode: normal"><path d="M0,172v-172h172v172z" fill="none"></path><path d="M86,172c-47.49649,0 -86,-38.50351 -86,-86v0c0,-47.49649 38.50351,-86 86,-86v0c47.49649,0 86,38.50351 86,86v0c0,47.49649 -38.50351,86 -86,86z" fill="#afc6f5"></path><g fill="#1a5db4"><path d="M131.92965,40.07107c-7.55648,-7.55648 -19.80853,-7.55648 -27.36501,0l-63.23823,63.11784c-1.73145,1.73145 -2.88385,3.95024 -3.30238,6.36396l-3.52598,20.45066c-0.76253,4.4261 3.08451,8.26741 7.51062,7.49915l20.20986,-3.51451c2.39652,-0.41853 4.60957,-1.56519 6.32956,-3.28518l63.38157,-63.27263c7.56222,-7.55648 7.56222,-19.8028 0,-27.35928z" opacity="0.35"></path><path d="M92.16353,52.42632l27.36501,27.36501l11.37486,-11.33472l-27.36501,-27.36501z"></path><path d="M36.64804,117.53361l-2.14999,12.46991c-0.76253,4.4261 3.08451,8.26741 7.51062,7.49915l12.44698,-2.16719z"></path></g></g></svg>