<svg xmlns="http://www.w3.org/2000/svg" x="0px" y="0px"
width="24" height="24"
viewBox="0 0 172 172"
style=" fill:#000000;"><g fill="none" fill-rule="nonzero" stroke="none" stroke-width="1" stroke-linecap="butt" stroke-linejoin="miter" stroke-miterlimit="10" stroke-dasharray="" stroke-dashoffset="0" font-family="none" font-weight="none" font-size="none" text-anchor="none" style="mix-blend-mode: normal"><path d="M0,172v-172h172v172z" fill="none"></path><g fill="#1a5db4"><path d="M129,150.5h-86c-11.87517,0 -21.5,-9.62483 -21.5,-21.5v-78.83333h129v78.83333c0,11.87517 -9.62483,21.5 -21.5,21.5z" opacity="0.35"></path><path d="M129,21.5h-86c-11.87517,0 -21.5,9.62483 -21.5,21.5v7.16667h129v-7.16667c0,-11.87517 -9.62483,-21.5 -21.5,-21.5z"></path><path d="M107.5,93.16667c-1.83467,0 -3.66933,-0.70233 -5.06683,-2.09983l-7.16667,-7.16667c-2.80217,-2.80217 -2.80217,-7.3315 0,-10.13367c2.80217,-2.80217 7.3315,-2.80217 10.13367,0l2.09983,2.09983l9.2665,-9.2665c2.80217,-2.80217 7.3315,-2.80217 10.13367,0c2.80217,2.80217 2.80217,7.3315 0,10.13367l-14.33333,14.33333c-1.3975,1.3975 -3.23217,2.09983 -5.06683,2.09983z"></path><path d="M71.66667,71.66667c-1.333,0 -20.167,0 -21.5,0c-3.956,0 -7.16667,3.21067 -7.16667,7.16667c0,3.956 3.21067,7.16667 7.16667,7.16667c1.333,0 20.167,0 21.5,0c3.956,0 7.16667,-3.21067 7.16667,-7.16667c0,-3.956 -3.21067,-7.16667 -7.16667,-7.16667z"></path><path d="M107.5,129c-1.83467,0 -3.66933,-0.70233 -5.06683,-2.09983l-7.16667,-7.16667c-2.80217,-2.80217 -2.80217,-7.3315 0,-10.13367c2.80217,-2.80217 7.3315,-2.80217 10.13367,0l2.09983,2.09983l9.2665,-9.2665c2.80217,-2.80217 7.3315,-2.80217 10.13367,0c2.80217,2.80217 2.80217,7.3315 0,10.13367l-14.33333,14.33333c-1.3975,1.3975 -3.23217,2.09983 -5.06683,2.09983z"></path><path d="M71.66667,107.5c-1.333,0 -20.167,0 -21.5,0c-3.956,0 -7.16667,3.21067 -7.16667,7.16667c0,3.956 3.21067,7.16667 7.16667,7.16667c1.333,0 20.167,0 21.5,0c3.956,0 7.16667,-3.21067 7.16667,-7.16667c0,-3.956 -3.21067,-7.16667 -7.16667,-7.16667z"></path></g></g></svg>
