<svg xmlns="http://www.w3.org/2000/svg" x="0px" y="0px"
width="24" height="24"
viewBox="0 0 172 172"
style=" fill:#000000;"><g fill="none" fill-rule="nonzero" stroke="none" stroke-width="1" stroke-linecap="butt" stroke-linejoin="miter" stroke-miterlimit="10" stroke-dasharray="" stroke-dashoffset="0" font-family="none" font-weight="none" font-size="none" text-anchor="none" style="mix-blend-mode: normal"><path d="M0,172v-172h172v172z" fill="none"></path><g fill="#1a5db4"><path d="M75.10667,100.33333c-1.333,0 -27.33367,0 -28.66667,0c-3.956,0 -7.16667,3.21067 -7.16667,7.16667c0,3.956 3.21067,7.16667 7.16667,7.16667c1.333,0 27.33367,0 28.66667,0c3.956,0 7.16667,-3.21067 7.16667,-7.16667c0,-3.956 -3.21067,-7.16667 -7.16667,-7.16667z"></path><path d="M137.34917,104.15317c0,-16.899 -18.64767,-14.58417 -18.64767,-23.392c0,-5.18867 4.07783,-5.73333 5.48967,-5.73333c1.39033,0 2.623,0.32967 3.66217,0.80267c2.451,1.11083 5.36067,0.07883 6.91583,-2.11417c1.99233,-2.8165 0.96033,-6.7725 -2.18583,-8.1915c-1.72717,-0.774 -3.87717,-1.40467 -6.47867,-1.64833v-2.45817c0,-2.2575 -1.8275,-4.085 -4.085,-4.085c-2.2575,0 -4.085,1.8275 -4.085,4.085v3.31817c-6.84417,2.279 -11.29467,8.54267 -11.29467,16.56217c0,17.73033 18.41833,14.52683 18.41833,23.74317c0,1.77733 -0.8385,5.64017 -5.41083,5.64017c-2.02817,0 -3.784,-0.57333 -5.21017,-1.31867c-2.42233,-1.2685 -5.43233,-0.32967 -6.97317,1.92783l-0.16483,0.2365c-1.7845,2.60867 -1.06067,6.26367 1.68417,7.826c2.30767,1.3115 5.13133,2.32917 8.54267,2.6875v2.87383c0,2.2575 1.8275,4.085 4.085,4.085c2.2575,0 4.085,-1.8275 4.085,-4.085v-3.60483c7.568,-2.322 11.653,-9.23067 11.653,-17.157z"></path><path d="M136.16667,38.80033v0c-3.956,3.956 -10.37733,3.956 -14.33333,0v0c-3.956,-3.956 -10.37733,-3.956 -14.33333,0v0c-3.956,3.956 -10.37733,3.956 -14.33333,0v0c-3.956,-3.956 -10.37733,-3.956 -14.33333,0v0c-3.956,3.956 -10.37733,3.956 -14.33333,0v0c-3.956,-3.956 -10.37733,-3.956 -14.33333,0v0c-3.956,3.956 -10.37733,3.956 -14.33333,0v0c-3.956,-3.956 -10.37733,-3.956 -14.33333,0l-4.19967,4.19967c-1.89917,1.89917 -2.967,4.47917 -2.967,7.16667v71.66667c0,11.87517 9.62483,21.5 21.5,21.5h100.33333c11.87517,0 21.5,-9.62483 21.5,-21.5v-71.66667c0,-2.6875 -1.06783,-5.2675 -2.967,-7.16667l-4.19967,-4.19967c-3.956,-3.956 -10.37733,-3.956 -14.33333,0z" opacity="0.35"></path></g></g></svg>