<svg xmlns="http://www.w3.org/2000/svg" x="0px" y="0px"
width="24" height="24"
viewBox="0 0 226 226"
style=" fill:#000000;"><g fill="none" fill-rule="nonzero" stroke="none" stroke-width="1" stroke-linecap="butt" stroke-linejoin="miter" stroke-miterlimit="10" stroke-dasharray="" stroke-dashoffset="0" font-family="none" font-weight="none" font-size="none" text-anchor="none" style="mix-blend-mode: normal"><path d="M0,226v-226h226v226z" fill="none"></path><g fill="#1a5db4"><path d="M178.91667,188.33333h-131.83333c-15.60342,0 -28.25,-12.64658 -28.25,-28.25v-94.16667c0,-15.60342 12.64658,-28.25 28.25,-28.25h131.83333c15.60342,0 28.25,12.64658 28.25,28.25v94.16667c0,15.60342 -12.64658,28.25 -28.25,28.25z" opacity="0.35"></path><path d="M113,84.75h-56.5c-5.20742,0 -9.41667,-4.21867 -9.41667,-9.41667c0,-5.198 4.20925,-9.41667 9.41667,-9.41667h56.5c5.20742,0 9.41667,4.21867 9.41667,9.41667c0,5.198 -4.20925,9.41667 -9.41667,9.41667z"></path><path d="M159.00983,87.01l-5.89483,-5.89483c-3.19225,-3.19225 -3.19225,-8.37142 0,-11.56367l5.89483,-5.89483c3.19225,-3.19225 8.37142,-3.19225 11.56367,0l5.89483,5.89483c3.19225,3.19225 3.19225,8.37142 0,11.56367l-5.89483,5.89483c-3.19225,3.20167 -8.37142,3.20167 -11.56367,0z"></path><path d="M94.16667,122.41667h-37.66667c-5.20742,0 -9.41667,-4.21867 -9.41667,-9.41667c0,-5.198 4.20925,-9.41667 9.41667,-9.41667h37.66667c5.20742,0 9.41667,4.21867 9.41667,9.41667c0,5.198 -4.20925,9.41667 -9.41667,9.41667z"></path><path d="M159.00983,124.67667l-5.89483,-5.89483c-3.19225,-3.19225 -3.19225,-8.37142 0,-11.56367l5.89483,-5.89483c3.19225,-3.19225 8.37142,-3.19225 11.56367,0l5.89483,5.89483c3.19225,3.19225 3.19225,8.37142 0,11.56367l-5.89483,5.89483c-3.19225,3.20167 -8.37142,3.20167 -11.56367,0z"></path><path d="M113,160.08333h-56.5c-5.20742,0 -9.41667,-4.21867 -9.41667,-9.41667c0,-5.198 4.20925,-9.41667 9.41667,-9.41667h56.5c5.20742,0 9.41667,4.21867 9.41667,9.41667c0,5.198 -4.20925,9.41667 -9.41667,9.41667z"></path><path d="M159.00983,162.34333l-5.89483,-5.89483c-3.19225,-3.19225 -3.19225,-8.37142 0,-11.56367l5.89483,-5.89483c3.19225,-3.19225 8.37142,-3.19225 11.56367,0l5.89483,5.89483c3.19225,3.19225 3.19225,8.37142 0,11.56367l-5.89483,5.89483c-3.19225,3.20167 -8.37142,3.20167 -11.56367,0z"></path></g></g></svg>
