<svg xmlns="http://www.w3.org/2000/svg" x="0px" y="0px"
width="24" height="24"
viewBox="0 0 172 172"
style=" fill:#000000;"><g fill="none" fill-rule="nonzero" stroke="none" stroke-width="1" stroke-linecap="butt" stroke-linejoin="miter" stroke-miterlimit="10" stroke-dasharray="" stroke-dashoffset="0" font-family="none" font-weight="none" font-size="none" text-anchor="none" style="mix-blend-mode: normal"><path d="M0,172v-172h172v172z" fill="none"></path><g fill="#1a5db4"><path d="M43.83133,19.2855l-5.8695,5.87667l-8.86517,-8.86517c-2.50117,-2.50117 -6.55033,-2.50117 -9.0515,0l-3.83417,3.83417c-2.50117,2.50117 -2.50117,6.5575 0,9.0515l8.87233,8.87233l-5.7835,5.7835c-2.33633,2.33633 -0.68083,6.32817 2.623,6.32817h18.64767c5.29617,0 9.59617,-4.3 9.59617,-9.59617v-18.662c0,-3.30383 -3.999,-4.95933 -6.33533,-2.623z"></path><path d="M155.789,20.13117l-3.83417,-3.83417c-2.50117,-2.50117 -6.55033,-2.50117 -9.0515,0l-8.86517,8.86517l-5.87667,-5.87667c-2.32917,-2.33633 -6.32817,-0.68083 -6.32817,2.623v18.662c0,5.29617 4.3,9.59617 9.59617,9.59617h18.6405c3.30383,0 4.95933,-3.99183 2.623,-6.32817l-5.77633,-5.7835l8.87233,-8.87233c2.50117,-2.494 2.50117,-6.55033 0,-9.0515z"></path><path d="M155.789,142.81733l-8.87233,-8.87233l5.77633,-5.7835c2.33633,-2.33633 0.68083,-6.32817 -2.623,-6.32817h-18.6405c-5.29617,0 -9.59617,4.3 -9.59617,9.59617v18.662c0,3.311 3.999,4.95933 6.32817,2.623l5.87667,-5.87667l8.86517,8.86517c2.50117,2.50117 6.55033,2.50117 9.0515,0l3.83417,-3.83417c2.50117,-2.50117 2.50117,-6.55033 0,-9.0515z"></path><path d="M40.5705,121.83333h-18.64767c-3.30383,0 -4.95933,3.99183 -2.623,6.32817l5.7835,5.7835l-8.87233,8.87233c-2.50117,2.494 -2.50117,6.55033 0,9.04433l3.83417,3.84133c2.50117,2.50117 6.55033,2.50117 9.0515,0l8.86517,-8.86517l5.8695,5.87667c2.33633,2.33633 6.33533,0.68083 6.33533,-2.623v-18.662c0,-5.29617 -4.3,-9.59617 -9.59617,-9.59617z"></path><path d="M136.16667,107.5h-100.33333c-3.956,0 -7.16667,-3.21067 -7.16667,-7.16667c0,-3.956 3.21067,-7.16667 7.16667,-7.16667h100.33333c3.956,0 7.16667,3.21067 7.16667,7.16667c0,3.956 -3.21067,7.16667 -7.16667,7.16667z"></path><circle cx="6" cy="10" transform="scale(7.16667,7.16667)" r="2" opacity="0.35"></circle><circle cx="12" cy="9.5" transform="scale(7.16667,7.16667)" r="2.5" opacity="0.35"></circle><circle cx="18" cy="10" transform="scale(7.16667,7.16667)" r="2" opacity="0.35"></circle><path d="M100.33333,121.83333h-28.66667c-7.91917,0 -14.33333,-6.41417 -14.33333,-14.33333v-7.16667h57.33333v7.16667c0,7.91917 -6.41417,14.33333 -14.33333,14.33333z"></path></g></g></svg>
