<svg xmlns="http://www.w3.org/2000/svg" x="0px" y="0px"
width="64" height="64"
viewBox="0 0 172 172"
style=" fill:#000000;"><g fill="none" fill-rule="nonzero" stroke="none" stroke-width="1" stroke-linecap="butt" stroke-linejoin="miter" stroke-miterlimit="10" stroke-dasharray="" stroke-dashoffset="0" font-family="none" font-weight="none" font-size="none" text-anchor="none" style="mix-blend-mode: normal"><path d="M0,172v-172h172v172z" fill="none"></path><g fill="#000000"><path d="M8.0625,153.1875c0,9.675 7.79375,17.46875 17.46875,17.46875h107.36563c2.01563,0 3.7625,-1.34375 4.16563,-3.225c0.5375,-2.55313 -1.47813,-4.8375 -3.89687,-4.8375h-107.36562c-4.8375,0 -9.00313,-3.49375 -9.675,-8.19688c-0.67187,-5.77812 3.7625,-10.61562 9.27187,-10.61562h107.5c2.28438,0 4.03125,-1.74687 4.03125,-4.03125v-22.84375h9.40625c2.28438,0 4.03125,-1.74688 4.03125,-4.03125c0,-2.28437 -1.74687,-4.03125 -4.03125,-4.03125h-100.64687c-5.24063,0 -9.40625,-4.16562 -9.40625,-9.40625c0,-5.24063 4.16562,-9.40625 9.40625,-9.40625h100.78125c2.28438,0 4.03125,-1.74688 4.03125,-4.03125v-80.625c0,-2.28438 -1.74687,-4.03125 -4.03125,-4.03125h-100.78125c-8.73437,0 -15.99062,6.31563 -17.33437,14.91562c-0.13438,0.40313 -0.13438,0.80625 -0.13438,1.20938v37.625v9.1375c0,2.15 -1.6125,4.16562 -3.7625,4.3c-2.28438,0.13438 -4.3,-1.74688 -4.3,-4.03125v-4.3c0,-2.15 -2.28438,-3.49375 -4.16563,-2.28438c-4.16562,2.6875 -6.9875,6.9875 -7.79375,12.09375c-0.13438,0.40313 -0.13438,0.80625 -0.13438,1.20938z"></path></g></g></svg>