<svg xmlns="http://www.w3.org/2000/svg" x="0px" y="0px"
width="48" height="48"
viewBox="0 0 172 172"
style=" fill:#000000;"><g fill="none" fill-rule="nonzero" stroke="none" stroke-width="1" stroke-linecap="butt" stroke-linejoin="miter" stroke-miterlimit="10" stroke-dasharray="" stroke-dashoffset="0" font-family="none" font-weight="none" font-size="none" text-anchor="none" style="mix-blend-mode: normal"><path d="M0,172v-172h172v172z" fill="none"></path><g fill="#cccccc"><path d="M40.13333,17.2c-9.50013,0 -17.2,7.69987 -17.2,17.2v74.53333c0.00029,1.52596 0.60882,2.98887 1.69089,4.06484c2.02291,7.24685 7.65651,13.13516 15.50911,13.13516h11.46667v-11.46667h-11.46667c-3.23951,0 -5.73333,-2.49383 -5.73333,-5.73333c0,-2.62188 1.66853,-4.6792 4.00885,-5.39739l13.19115,1.09739v-47.3c0,-12.66493 10.2684,-22.93333 22.93333,-22.93333h40.13333v-5.73333c0,-6.33533 -5.13133,-11.46667 -11.46667,-11.46667zM80.26667,45.86667c-9.50013,0 -17.2,7.69987 -17.2,17.2v74.53333c0.00029,1.52597 0.60882,2.98887 1.69089,4.06484c2.02291,7.24685 7.65651,13.13516 15.50911,13.13516h68.8c2.06765,0.02924 3.99087,-1.05709 5.03322,-2.843c1.04236,-1.78592 1.04236,-3.99474 0,-5.78066c-1.04236,-1.78592 -2.96558,-2.87225 -5.03322,-2.843h-68.8c-3.23951,0 -5.73333,-2.49383 -5.73333,-5.73333c0,-3.23951 2.49383,-5.73333 5.73333,-5.73333h63.06667c6.33533,0 11.46667,-5.13133 11.46667,-11.46667v-63.06667c0,-6.33533 -5.13133,-11.46667 -11.46667,-11.46667zM91.73333,68.8h34.4c3.1648,0 5.73333,2.56853 5.73333,5.73333c0,3.1648 -2.56853,5.73333 -5.73333,5.73333h-34.4c-3.1648,0 -5.73333,-2.56853 -5.73333,-5.73333c0,-3.1648 2.56853,-5.73333 5.73333,-5.73333z"></path></g></g></svg>