<svg xmlns="http://www.w3.org/2000/svg" x="0px" y="0px"
width="24" height="24"
viewBox="0 0 172 172"
style=" fill:#000000;"><g fill="none" fill-rule="nonzero" stroke="none" stroke-width="1" stroke-linecap="butt" stroke-linejoin="miter" stroke-miterlimit="10" stroke-dasharray="" stroke-dashoffset="0" font-family="none" font-weight="none" font-size="none" text-anchor="none" style="mix-blend-mode: normal"><path d="M0,172v-172h172v172z" fill="none"></path><g fill="#333333"><path d="M71.66667,74.992c2.4295,-1.40467 5.2245,-1.51933 7.64683,-0.58767c2.021,0.78117 4.32867,0.13617 5.70467,-1.54083c2.451,-2.9885 4.42183,-6.37117 5.805,-10.04767c0.7955,-2.107 0.043,-4.41467 -1.677,-5.8695c-1.92067,-1.62683 -3.14617,-4.05633 -3.14617,-6.77967c0,-2.72333 1.2255,-5.15283 3.15333,-6.77967c1.71283,-1.45483 2.46533,-3.7625 1.677,-5.8695c-1.39033,-3.6765 -3.36117,-7.06633 -5.805,-10.04767c-1.376,-1.66983 -3.68367,-2.31483 -5.70467,-1.54083c-2.4295,0.93167 -5.2245,0.80983 -7.654,-0.58767c-2.43667,-1.40467 -3.94167,-3.784 -4.33583,-6.364c-0.3225,-2.107 -1.99233,-3.79117 -4.09933,-4.14233c-1.9135,-0.32967 -3.88433,-0.50167 -5.89817,-0.50167c-2.01383,0 -3.98467,0.172 -5.89817,0.50167c-2.107,0.35117 -3.77683,2.03533 -4.09933,4.14233c-0.39417,2.58 -1.89917,4.95933 -4.33583,6.364c-2.4295,1.3975 -5.2245,1.51933 -7.64683,0.58767c-2.021,-0.78117 -4.33583,-0.13617 -5.70467,1.53367c-2.451,2.9885 -4.42183,6.37833 -5.81217,10.05483c-0.78833,2.09983 -0.03583,4.41467 1.677,5.8695c1.92783,1.62683 3.15333,4.05633 3.15333,6.77967c0,2.72333 -1.2255,5.15283 -3.15333,6.77967c-1.71283,1.45483 -2.46533,3.76967 -1.677,5.8695c1.39033,3.6765 3.36117,7.06633 5.805,10.04767c1.376,1.66983 3.68367,2.31483 5.70467,1.54083c2.42233,-0.93167 5.2245,-0.817 7.64683,0.58767c2.43667,1.40467 3.94167,3.784 4.33583,6.35683c0.3225,2.107 1.99233,3.79117 4.09217,4.1495c1.92783,0.32967 3.89867,0.50167 5.9125,0.50167c2.01383,0 3.98467,-0.172 5.89817,-0.50167c2.09983,-0.35833 3.76967,-2.0425 4.09217,-4.1495c0.40133,-2.57283 1.90633,-4.95217 4.343,-6.35683z" opacity="0.35"></path><path d="M57.33333,35.83333c-7.91917,0 -14.33333,6.41417 -14.33333,14.33333c0,7.91917 6.41417,14.33333 14.33333,14.33333c7.91917,0 14.33333,-6.41417 14.33333,-14.33333c0,-7.91917 -6.41417,-14.33333 -14.33333,-14.33333z"></path><path d="M140.46667,84.35883c1.94217,-1.118 4.17817,-1.21833 6.12033,-0.46583c1.6125,0.6235 3.4615,0.1075 4.56517,-1.23267c1.9565,-2.3865 3.53317,-5.0955 4.644,-8.041c0.63783,-1.68417 0.03583,-3.53317 -1.34017,-4.69417c-1.54083,-1.30433 -2.52267,-3.2465 -2.52267,-5.42517c0,-2.17867 0.98183,-4.12083 2.52267,-5.42517c1.376,-1.161 1.97083,-3.01 1.34017,-4.69417c-1.11083,-2.9455 -2.6875,-5.6545 -4.644,-8.041c-1.0965,-1.34017 -2.9455,-1.85617 -4.56517,-1.23267c-1.94217,0.74533 -4.17817,0.65217 -6.12033,-0.46583c-1.94933,-1.12517 -3.15333,-3.02433 -3.46867,-5.08833c-0.258,-1.68417 -1.591,-3.0315 -3.27517,-3.31817c-1.53367,-0.26517 -3.11033,-0.40133 -4.72283,-0.40133c-1.6125,0 -3.18917,0.13617 -4.72283,0.40133c-1.68417,0.28667 -3.01717,1.634 -3.27517,3.31817c-0.31533,2.064 -1.51933,3.96317 -3.46867,5.08833c-1.94217,1.118 -4.17817,1.21833 -6.12033,0.46583c-1.6125,-0.6235 -3.4615,-0.1075 -4.56517,1.23267c-1.9565,2.3865 -3.53317,5.0955 -4.644,8.041c-0.63783,1.68417 -0.03583,3.53317 1.34017,4.69417c1.54083,1.30433 2.52267,3.2465 2.52267,5.42517c0,2.17867 -0.98183,4.12083 -2.52267,5.42517c-1.376,1.161 -1.97083,3.01 -1.34017,4.69417c1.11083,2.9455 2.6875,5.6545 4.644,8.041c1.0965,1.34017 2.9455,1.85617 4.56517,1.23267c1.94217,-0.74533 4.17817,-0.65217 6.12033,0.46583c1.94933,1.12517 3.15333,3.02433 3.46867,5.08833c0.258,1.68417 1.591,3.0315 3.27517,3.31817c1.53367,0.26517 3.11033,0.40133 4.72283,0.40133c1.6125,0 3.18917,-0.13617 4.72283,-0.40133c1.68417,-0.28667 3.01717,-1.634 3.27517,-3.31817c0.31533,-2.05683 1.51933,-3.96317 3.46867,-5.08833z" opacity="0.35"></path><path d="M129,53.03333c-6.33533,0 -11.46667,5.13133 -11.46667,11.46667c0,6.33533 5.13133,11.46667 11.46667,11.46667c6.33533,0 11.46667,-5.13133 11.46667,-11.46667c0,-6.33533 -5.13133,-11.46667 -11.46667,-11.46667z"></path><path d="M100.33333,146.65867c2.4295,-1.40467 5.2245,-1.51933 7.64683,-0.58767c2.021,0.78117 4.32867,0.13617 5.70467,-1.54083c2.451,-2.9885 4.42183,-6.37117 5.805,-10.04767c0.7955,-2.107 0.043,-4.41467 -1.677,-5.8695c-1.92067,-1.62683 -3.14617,-4.05633 -3.14617,-6.77967c0,-2.72333 1.2255,-5.15283 3.15333,-6.77967c1.71283,-1.45483 2.46533,-3.7625 1.677,-5.8695c-1.39033,-3.6765 -3.36117,-7.06633 -5.805,-10.04767c-1.376,-1.66983 -3.68367,-2.31483 -5.70467,-1.54083c-2.42233,0.93167 -5.2245,0.817 -7.64683,-0.58767c-2.43667,-1.40467 -3.94167,-3.784 -4.33583,-6.35683c-0.3225,-2.107 -1.99233,-3.79117 -4.09217,-4.1495c-1.92783,-0.32967 -3.89867,-0.50167 -5.9125,-0.50167c-2.01383,0 -3.98467,0.172 -5.89817,0.50167c-2.09983,0.35833 -3.76967,2.0425 -4.09217,4.1495c-0.40133,2.57283 -1.90633,4.95217 -4.343,6.35683c-2.4295,1.40467 -5.2245,1.51933 -7.64683,0.58767c-2.021,-0.78117 -4.32867,-0.13617 -5.70467,1.54083c-2.451,2.9885 -4.42183,6.37117 -5.805,10.04767c-0.7955,2.107 -0.043,4.41467 1.677,5.8695c1.92067,1.62683 3.14617,4.05633 3.14617,6.77967c0,2.72333 -1.2255,5.15283 -3.15333,6.77967c-1.71283,1.45483 -2.46533,3.7625 -1.677,5.8695c1.39033,3.6765 3.36117,7.06633 5.805,10.04767c1.376,1.66983 3.68367,2.31483 5.70467,1.54083c2.42233,-0.93167 5.2245,-0.817 7.64683,0.58767c2.43667,1.40467 3.94167,3.784 4.33583,6.35683c0.3225,2.107 1.99233,3.79117 4.09217,4.1495c1.92783,0.32967 3.89867,0.50167 5.9125,0.50167c2.01383,0 3.98467,-0.172 5.89817,-0.50167c2.09983,-0.35833 3.76967,-2.0425 4.09217,-4.1495c0.40133,-2.57283 1.90633,-4.95217 4.343,-6.35683z" opacity="0.35"></path><path d="M86,107.5c-7.91917,0 -14.33333,6.41417 -14.33333,14.33333c0,7.91917 6.41417,14.33333 14.33333,14.33333c7.91917,0 14.33333,-6.41417 14.33333,-14.33333c0,-7.91917 -6.41417,-14.33333 -14.33333,-14.33333z"></path></g></g></svg>