<svg xmlns="http://www.w3.org/2000/svg" x="0px" y="0px"
width="48" height="48"
viewBox="0 0 172 172"
style=" fill:#000000;"><g fill="none" fill-rule="nonzero" stroke="none" stroke-width="1" stroke-linecap="butt" stroke-linejoin="miter" stroke-miterlimit="10" stroke-dasharray="" stroke-dashoffset="0" font-family="none" font-weight="none" font-size="none" text-anchor="none" style="mix-blend-mode: normal"><path d="M0,172v-172h172v172z" fill="none"></path><g fill="#cccccc"><path d="M86,14.33333c-5.934,0 -10.75,4.816 -10.75,10.75v4.98307c-18.54017,4.78017 -32.25,21.56943 -32.25,41.60026v43l-14.33333,14.33333v7.16667h114.66667v-7.16667l-14.33333,-14.33333v-43c0,-20.03083 -13.70983,-36.8061 -32.25,-41.58626v-4.99707c0,-5.934 -4.816,-10.75 -10.75,-10.75zM71.66667,143.33333c0,7.91917 6.42133,14.33333 14.33333,14.33333c7.912,0 14.33333,-6.42133 14.33333,-14.33333z"></path></g></g></svg>