<svg xmlns="http://www.w3.org/2000/svg" x="0px" y="0px"
width="48" height="48"
viewBox="0 0 172 172"
style=" fill:#000000;"><defs><linearGradient x1="117.95258" y1="71.66667" x2="122.73275" y2="71.66667" gradientUnits="userSpaceOnUse" id="color-1_Ry7mumEprV9w_gr1"><stop offset="0" stop-color="#c48f0c"></stop><stop offset="0.251" stop-color="#d19b16"></stop><stop offset="0.619" stop-color="#dca51f"></stop><stop offset="1" stop-color="#e0a922"></stop></linearGradient><linearGradient x1="54.04742" y1="71.66667" x2="49.26725" y2="71.66667" gradientUnits="userSpaceOnUse" id="color-2_Ry7mumEprV9w_gr2"><stop offset="0" stop-color="#c48f0c"></stop><stop offset="0.251" stop-color="#d19b16"></stop><stop offset="0.619" stop-color="#dca51f"></stop><stop offset="1" stop-color="#e0a922"></stop></linearGradient><radialGradient cx="86.004" cy="67.00768" r="38.61643" gradientUnits="userSpaceOnUse" id="color-3_Ry7mumEprV9w_gr3"><stop offset="0" stop-color="#ffcf54"></stop><stop offset="0.261" stop-color="#fdcb4d"></stop><stop offset="0.639" stop-color="#f7c13a"></stop><stop offset="1" stop-color="#f0b421"></stop></radialGradient><radialGradient cx="55.35473" cy="23.87694" r="91.34441" gradientUnits="userSpaceOnUse" id="color-4_Ry7mumEprV9w_gr4"><stop offset="0" stop-color="#c26715"></stop><stop offset="0.508" stop-color="#b85515"></stop><stop offset="1" stop-color="#ad3f16"></stop></radialGradient><radialGradient cx="80.86962" cy="29.9929" r="100.89898" gradientUnits="userSpaceOnUse" id="color-5_Ry7mumEprV9w_gr5"><stop offset="0" stop-color="#c26715"></stop><stop offset="0.508" stop-color="#b85515"></stop><stop offset="1" stop-color="#ad3f16"></stop></radialGradient><linearGradient x1="122.70444" y1="110.85113" x2="149.62889" y2="161.4822" gradientUnits="userSpaceOnUse" id="color-6_Ry7mumEprV9w_gr6"><stop offset="0" stop-color="#fcfcfc"></stop><stop offset="0.495" stop-color="#f4f4f4"></stop><stop offset="0.869" stop-color="#e8e8e8"></stop><stop offset="1" stop-color="#e8e8e8"></stop></linearGradient><linearGradient x1="100.33333" y1="136.16667" x2="172" y2="136.16667" gradientUnits="userSpaceOnUse" id="color-7_Ry7mumEprV9w_gr7"><stop offset="0" stop-color="#f44f5a"></stop><stop offset="0.443" stop-color="#ee3d4a"></stop><stop offset="1" stop-color="#e52030"></stop></linearGradient></defs><g fill="none" fill-rule="nonzero" stroke="none" stroke-width="1" stroke-linecap="butt" stroke-linejoin="miter" stroke-miterlimit="10" stroke-dasharray="" stroke-dashoffset="0" font-family="none" font-weight="none" font-size="none" text-anchor="none" style="mix-blend-mode: normal"><path d="M0,172v-172h172v172z" fill="none" stroke="none"></path><g stroke="none"><path d="M86,109.54608c-31.66592,0 -57.33333,17.63358 -57.33333,36.85817v4.09575c0,3.95958 3.20708,7.16667 7.16667,7.16667h100.33333c3.95958,0 7.16667,-3.20708 7.16667,-7.16667v-4.09575c0,-19.22458 -25.66742,-36.85817 -57.33333,-36.85817z" fill="#3498db"></path><path d="M107.5,116.81667c0,-1.32583 0,-2.82367 0,-4.41467c-6.6435,-1.81317 -13.889,-2.85233 -21.5,-2.85233c-7.611,0 -14.8565,1.03917 -21.5,2.85233c0,1.59458 0,3.09242 0,4.41467c0,8.15925 21.5,30.1 21.5,30.1c0,0 21.5,-21.94433 21.5,-30.1z" fill="#2154a3"></path><path d="M103.91667,114.66667c0,6.79758 -17.91667,25.08333 -17.91667,25.08333c0,0 -17.91667,-18.28575 -17.91667,-25.08333c0,-9.44925 0,-28.79208 0,-28.79208h35.83333c0,0 0,19.34283 0,28.79208z" fill="#d6a121"></path><path d="M103.91667,114.66667c0,6.79758 -17.91667,25.08333 -17.91667,25.08333c0,0 -17.91667,-18.28575 -17.91667,-25.08333c0,0 7.16667,7.16667 17.91667,7.16667c10.75,0 17.91667,-7.16667 17.91667,-7.16667z" fill="#ffffff"></path><path d="M117.949,64.5h-1.88842v14.33333h2.51908c1.84542,0 3.4185,-1.118 3.73025,-2.65167l1.23267,-6.10242c0.59125,-2.91683 -2.07833,-5.57925 -5.59358,-5.57925z" fill="url(#color-1_Ry7mumEprV9w_gr1)"></path><path d="M54.051,64.5h1.88842v14.33333h-2.51908c-1.84542,0 -3.4185,-1.118 -3.73025,-2.65167l-1.23267,-6.10242c-0.59125,-2.91683 2.07833,-5.57925 5.59358,-5.57925z" fill="url(#color-2_Ry7mumEprV9w_gr2)"></path><path d="M86,22.93333c-15.91358,0 -32.25,2.41875 -32.25,36.81875c0,2.752 0,21.05925 0,24.00117c0,12.28008 19.35,27.33008 32.25,27.33008c12.9,0 32.25,-15.05 32.25,-27.33008c0,-2.94192 0,-21.24558 0,-24.00117c0,-34.4 -16.33642,-36.81875 -32.25,-36.81875z" fill="url(#color-3_Ry7mumEprV9w_gr3)"></path><path d="M86,19.86958c-15.60183,0 -17.91667,5.86233 -17.91667,5.86233c-6.3425,0.93525 -17.91667,10.22683 -17.91667,20.84783c0,5.92683 0.94958,10.30567 3.58333,25.08333c1.95292,-23.45292 8.05892,-32.25 14.33333,-32.25c4.54008,0 8.14492,3.58333 17.91667,3.58333c8.25242,0 10.30208,-3.58333 17.91667,-3.58333c10.75,0 14.33333,28.552 14.33333,32.25c2.15358,-10.78583 3.58333,-19.90542 3.58333,-25.08333c0,-12.28725 -13.58442,-26.71017 -35.83333,-26.71017z" fill="url(#color-4_Ry7mumEprV9w_gr4)"></path><path d="M86.78475,17.91667c-14.921,0 -18.69067,7.81883 -18.69067,7.81883c-0.1505,4.15308 1.8705,7.81883 1.8705,7.81883c0,0 2.72333,5.86233 18.275,5.86233c9.38833,0 22.84375,-5.85875 22.84375,-21.5c0,0 -3.02075,0 -24.29858,0z" fill="url(#color-5_Ry7mumEprV9w_gr5)"></path><rect x="23" y="39" transform="scale(3.58333,3.58333)" width="2" height="5" fill="#2154a3"></rect></g><g stroke="none"><g id="Layer_17"><circle cx="38" cy="38" transform="scale(3.58333,3.58333)" r="8" fill="url(#color-6_Ry7mumEprV9w_gr6)"></circle><path d="M136.16667,100.33333c-19.7585,0 -35.83333,16.07483 -35.83333,35.83333c0,19.7585 16.07483,35.83333 35.83333,35.83333c19.7585,0 35.83333,-16.07483 35.83333,-35.83333c0,-19.7585 -16.07483,-35.83333 -35.83333,-35.83333zM136.16667,111.08333c4.97367,0 9.59975,1.47275 13.502,3.9775l-34.60783,34.60783c-2.50475,-3.90225 -3.9775,-8.52833 -3.9775,-13.502c0,-13.82808 11.25167,-25.08333 25.08333,-25.08333zM136.16667,161.25c-4.97367,0 -9.59975,-1.47275 -13.502,-3.9775l34.60783,-34.60783c2.50475,3.90225 3.9775,8.52833 3.9775,13.502c0,13.82808 -11.25167,25.08333 -25.08333,25.08333z" fill="url(#color-7_Ry7mumEprV9w_gr7)"></path></g></g><path d="M100.33333,172v-71.66667h71.66667v71.66667z" id="overlay-drag" fill="#ff0000" stroke="none" opacity="0"></path></g></svg>