<svg xmlns="http://www.w3.org/2000/svg" x="0px" y="0px"
width="24" height="24"
viewBox="0 0 172 172"
style=" fill:#000000;"><g fill="none" fill-rule="nonzero" stroke="none" stroke-width="1" stroke-linecap="butt" stroke-linejoin="miter" stroke-miterlimit="10" stroke-dasharray="" stroke-dashoffset="0" font-family="none" font-weight="none" font-size="none" text-anchor="none" style="mix-blend-mode: normal"><path d="M0,172v-172h172v172z" fill="none"></path><g fill="#000000"><path d="M28.66667,150.5v-129c0,-3.956 3.21067,-7.16667 7.16667,-7.16667h86c11.87517,0 21.5,9.62483 21.5,21.5v100.33333c0,11.87517 -9.62483,21.5 -21.5,21.5h-86c-3.956,0 -7.16667,-3.21067 -7.16667,-7.16667z" opacity="0.35"></path><circle cx="12" cy="9" transform="scale(7.16667,7.16667)" r="3"></circle><path d="M107.5,100.33333h-43c-7.91917,0 -14.33333,6.41417 -14.33333,14.33333c0,7.91917 6.41417,14.33333 14.33333,14.33333h43c7.91917,0 14.33333,-6.41417 14.33333,-14.33333c0,-7.91917 -6.41417,-14.33333 -14.33333,-14.33333z"></path><path d="M28.66667,107.5c-1.10367,0 -2.20017,0 -3.58333,0c-5.934,0 -10.75,4.816 -10.75,10.75c0,5.934 4.816,10.75 10.75,10.75c1.38317,0 2.47967,0 3.58333,0z"></path><path d="M28.66667,43c-1.10367,0 -2.20017,0 -3.58333,0c-5.934,0 -10.75,4.816 -10.75,10.75c0,5.934 4.816,10.75 10.75,10.75c1.38317,0 2.47967,0 3.58333,0z"></path></g></g></svg>