<svg xmlns="http://www.w3.org/2000/svg" x="0px" y="0px"
width="50" height="50"
viewBox="0 0 226 226"
style=" fill:#000000;"><g fill="none" fill-rule="nonzero" stroke="none" stroke-width="1" stroke-linecap="butt" stroke-linejoin="miter" stroke-miterlimit="10" stroke-dasharray="" stroke-dashoffset="0" font-family="none" font-weight="none" font-size="none" text-anchor="none" style="mix-blend-mode: normal"><path d="M0,226v-226h226v226z" fill="none"></path><g id="original-icon" fill="#000000"><path d="M113,9.04c-0.6554,0 -1.31045,0.13489 -1.89805,0.40609l-99.44,46.51539c-1.6272,0.7232 -2.62195,2.34228 -2.62195,4.10508v7.73344h207.92v-7.73344c0,-1.7628 -0.99475,-3.38188 -2.62195,-4.10508l-99.44,-46.51539c-0.5876,-0.2712 -1.24265,-0.40609 -1.89805,-0.40609zM23.36805,76.84c1.356,3.9324 4.42995,7.7292 8.27195,9.04h4.52v72.32h22.6v-72.32h22.6v72.32h22.6v-72.32h18.08v72.32h22.6v-72.32h22.6v72.32h22.6v-72.32h4.52c3.842,-1.3108 6.91595,-5.1076 8.27195,-9.04zM35.46258,167.24c-7.09188,0 -12.86258,6.08392 -12.86258,13.56h180.8c0,-7.47608 -5.76618,-13.56 -12.86258,-13.56zM21.90258,189.84c-7.09188,0 -12.86258,6.08392 -12.86258,13.56v9.04h207.92v-9.04c0,-7.47608 -5.76618,-13.56 -12.86258,-13.56z"></path></g></g></svg>