<svg xmlns="http://www.w3.org/2000/svg" x="0px" y="0px"
width="60" height="60"
viewBox="0 0 172 172"
style=" fill:#000000;"><g fill="none" fill-rule="nonzero" stroke="none" stroke-width="1" stroke-linecap="butt" stroke-linejoin="miter" stroke-miterlimit="10" stroke-dasharray="" stroke-dashoffset="0" font-family="none" font-weight="none" font-size="none" text-anchor="none" style="mix-blend-mode: normal"><path d="M0,172v-172h172v172z" fill="none"></path><g fill="#333333"><path d="M160.90045,80.40078c-0.90836,1.12694 -1.26418,2.40438 -1.23265,3.88069c0.11287,5.26025 -3.28586,10.05825 -8.37053,11.43423c-1.32939,0.36191 -2.47963,1.19323 -3.23211,2.34704c-2.87629,4.4085 -8.54933,6.29689 -13.53761,4.40026c-1.2864,-0.49091 -2.70537,-0.49091 -3.99535,0c-4.9485,1.8848 -10.64232,0.03583 -13.53761,-4.40026c-0.75249,-1.15381 -1.89914,-1.98513 -3.23211,-2.34704c-5.10975,-1.38314 -8.62852,-6.22773 -8.36694,-11.51664c0.12147,-1.09218 -0.2734,-2.60683 -1.23265,-3.79827c-3.05689,-3.79254 -3.59653,-9.45411 0.05017,-14.32234c0.38341,-0.53391 1.27923,-1.78089 1.18248,-3.71227c-0.26158,-5.28891 3.2572,-10.12991 8.36694,-11.51306c1.65834,-0.45149 2.46565,-1.33334 3.2787,-2.41871c2.90603,-4.38234 8.56761,-6.20623 13.49103,-4.32859c1.28998,0.49091 2.70895,0.49091 3.99535,0c4.9485,-1.8848 10.64232,-0.03583 13.53761,4.39668c0.75249,1.15381 1.90272,1.98872 3.23211,2.35063c5.23194,1.41539 8.8428,6.43592 8.35978,11.61697c-0.03082,0.3293 -0.07883,2.0568 1.2434,3.69794c3.34857,4.14943 3.29231,10.15285 0,14.23276zM133.38808,108.13496c-0.55648,-0.17666 -1.15417,-0.17701 -1.71065,0c-4.55506,1.44836 -9.38101,0.84422 -13.35199,-1.3061c-1.91741,-1.03807 -4.24725,0.32894 -4.24725,2.50937v13.26958c0,6.31086 6.57352,10.47283 12.27988,7.77212c4.22289,-1.73323 5.44013,-3.27189 7.40376,-2.36962c4.35153,1.99983 5.81637,3.20452 8.62816,3.20452c4.57011,0 8.59269,-3.68755 8.59269,-8.60702v-13.26671c0,-2.1772 -2.32662,-3.55031 -4.24045,-2.51295c-4.00037,2.16824 -8.83098,2.74192 -13.35414,1.30682zM39.90763,0.84099l-30.45783,30.45783c-1.80024,1.80812 -0.51707,4.89475 2.02813,4.89475h30.45783c1.58381,0 2.86662,-1.28281 2.86662,-2.86662v-30.45783c0,-2.54126 -3.08377,-3.83088 -4.89475,-2.02813zM111.38929,45.58103c-6.92718,2.28398 -11.70225,8.85212 -11.74024,16.14623c-0.00287,0.54609 -0.16447,1.07928 -0.46654,1.53436c-1.63146,2.45669 -6.48214,11.15616 -0.07919,19.95919c0.35224,0.48446 0.54358,1.06746 0.54824,1.66658c0.043,5.64724 2.92789,10.85589 7.45213,13.97083c0.7765,0.53462 1.24125,1.41539 1.24125,2.35815v21.39214c0,10.52802 10.97091,17.45807 20.46766,12.95353l2.49288,-1.17926c1.88803,-0.89295 4.15409,0.48948 4.15409,2.62045v32.13014c0,1.58309 -1.28353,2.86662 -2.86662,2.86662h-121.11465c-1.58309,0 -2.86662,-1.28353 -2.86662,-2.86662v-124.34497c0,-1.6114 1.3276,-2.91213 2.93828,-2.86554c2.94903,0.08528 9.81745,-0.05017 30.38616,0.0043c4.74784,0.01254 8.6124,-3.85202 8.59986,-8.59986c-0.05482,-20.54327 0.09854,-27.37908 0.00251,-30.36753c-0.05196,-1.61892 1.24519,-2.95692 2.86483,-2.95692h79.18927c1.58309,0 2.86662,1.28353 2.86662,2.86662v32.81204c0,2.03207 -2.01989,3.31059 -3.79146,2.7498c-6.49038,-2.05429 -14.05611,-0.16662 -18.92972,6.18975c-0.34292,0.44755 -0.81304,0.7833 -1.34874,0.95996zM34.76922,63.06848c0,1.58381 1.28281,2.86662 2.86662,2.86662h38.69936c1.58381,0 2.86662,-1.28281 2.86662,-2.86662c0,-1.58381 -1.28281,-2.86662 -2.86662,-2.86662h-38.69936c-1.58381,0 -2.86662,1.28281 -2.86662,2.86662zM34.76922,91.73467c0,1.58381 1.28281,2.86662 2.86662,2.86662h49.44918c1.58381,0 2.86662,-1.28281 2.86662,-2.86662c0,-1.58381 -1.28281,-2.86662 -2.86662,-2.86662h-49.44918c-1.58381,0 -2.86662,1.28281 -2.86662,2.86662zM93.53491,120.40086c0,-1.58381 -1.28281,-2.86662 -2.86662,-2.86662h-53.03245c-1.58381,0 -2.86662,1.28281 -2.86662,2.86662c0,1.58381 1.28281,2.86662 2.86662,2.86662h53.03245c1.58381,0 2.86662,-1.28281 2.86662,-2.86662z"></path></g></g></svg>