<svg xmlns="http://www.w3.org/2000/svg" x="0px" y="0px"
width="50" height="50"
viewBox="0 0 226 226"
style=" fill:#000000;"><g fill="none" fill-rule="nonzero" stroke="none" stroke-width="1" stroke-linecap="butt" stroke-linejoin="miter" stroke-miterlimit="10" stroke-dasharray="" stroke-dashoffset="0" font-family="none" font-weight="none" font-size="none" text-anchor="none" style="mix-blend-mode: normal"><path d="M0,226v-226h226v226z" fill="none"></path><g fill="#cccccc"><path d="M113,18.83333c-2.51536,0.00032 -4.92605,1.00698 -6.69467,2.79557l-94.97591,82.87402c-1.20292,0.88763 -1.91282,2.29378 -1.91276,3.78874c0,2.60034 2.10799,4.70833 4.70833,4.70833h23.54167v75.33333c0,5.198 4.21867,9.41667 9.41667,9.41667h37.66667c5.198,0 9.41667,-4.21867 9.41667,-9.41667v-56.5h37.66667v56.5c0,5.198 4.21867,9.41667 9.41667,9.41667h37.66667c5.198,0 9.41667,-4.21867 9.41667,-9.41667v-75.33333h23.54167c2.60034,0 4.70833,-2.10799 4.70833,-4.70833c0.00006,-1.49496 -0.70984,-2.90111 -1.91276,-3.78874l-94.92073,-82.81885c-0.01831,-0.01847 -0.03671,-0.03686 -0.05517,-0.05518c-1.76862,-1.78859 -4.1793,-2.79525 -6.69467,-2.79557z"></path></g></g></svg>