<svg xmlns="http://www.w3.org/2000/svg" x="0px" y="0px"
width="48" height="48"
viewBox="0 0 172 172"
style=" fill:#000000;"><defs><linearGradient x1="88.61583" y1="71.27967" x2="120.572" y2="155.11175" gradientUnits="userSpaceOnUse" id="color-1_LPcVDft9Isqt_gr1"><stop offset="0" stop-color="#5059c9"></stop><stop offset="0.999" stop-color="#4750b3"></stop></linearGradient><linearGradient x1="21.457" y1="24.897" x2="95.245" y2="158.94233" gradientUnits="userSpaceOnUse" id="color-2_LPcVDft9Isqt_gr2"><stop offset="0" stop-color="#5961c3"></stop><stop offset="1" stop-color="#3a41ac"></stop></linearGradient></defs><g fill="none" fill-rule="nonzero" stroke="none" stroke-width="1" stroke-linecap="butt" stroke-linejoin="miter" stroke-miterlimit="10" stroke-dasharray="" stroke-dashoffset="0" font-family="none" font-weight="none" font-size="none" text-anchor="none" style="mix-blend-mode: normal"><path d="M0,172v-172h172v172z" fill="none"></path><g><path d="M32.25,93.16667l129,-51.27033v94.27033c0,3.95958 -3.20708,7.16667 -7.16667,7.16667h-121.83333z" fill="url(#color-1_LPcVDft9Isqt_gr1)"></path><path d="M10.75,41.89633v94.27033c0,3.95958 3.20708,7.16667 7.16667,7.16667h136.16667c1.75942,0 3.35042,-0.65933 4.59742,-1.71283z" fill="url(#color-2_LPcVDft9Isqt_gr2)"></path><path d="M10.75,39.41667h150.5v6.063l-62.06333,48.19583c-7.75792,6.02358 -18.61542,6.02358 -26.37333,0l-62.06333,-48.19583z" fill="#000000" opacity="0.05"></path><path d="M10.75,37.625h150.5v6.063l-64.62183,46.98467c-6.31383,4.67267 -14.9425,4.67267 -21.25633,0l-64.62183,-46.98467z" fill="#000000" opacity="0.07"></path><path d="M17.91667,28.66667h136.16667c3.95958,0 7.16667,3.20708 7.16667,7.16667v6.063l-67.18033,45.7735c-4.86975,3.31817 -11.27317,3.31817 -16.13933,0l-67.18033,-45.7735v-6.063c0,-3.95958 3.20708,-7.16667 7.16667,-7.16667z" fill="#7b83eb"></path></g></g></svg>