<svg xmlns="http://www.w3.org/2000/svg" x="0px" y="0px"
width="50" height="50"
viewBox="0 0 226 226"
style=" fill:#000000;"><g fill="none" fill-rule="nonzero" stroke="none" stroke-width="1" stroke-linecap="butt" stroke-linejoin="miter" stroke-miterlimit="10" stroke-dasharray="" stroke-dashoffset="0" font-family="none" font-weight="none" font-size="none" text-anchor="none" style="mix-blend-mode: normal"><path d="M0,226v-226h226v226z" fill="none"></path><g fill="#333333"><path d="M169.5,141.25h-141.25v-84.75c0,-15.60342 12.64658,-28.25 28.25,-28.25h113c15.60342,0 28.25,12.64658 28.25,28.25v56.5c0,15.60342 -12.64658,28.25 -28.25,28.25z" opacity="0.35"></path><circle cx="6.5" cy="4.5" transform="scale(9.41667,9.41667)" r="2.5"></circle><path d="M131.16475,75.33333h-84.08142c-10.40542,0 -18.83333,8.42792 -18.83333,18.83333v47.08333h56.5v-34.75692c0,-2.43892 1.79858,-4.51058 4.20925,-4.859l43.166,-6.16792c4.87783,-0.69683 8.8705,-4.633 9.10592,-9.5485c0.2825,-5.80067 -4.33167,-10.58433 -10.06642,-10.58433z"></path><circle cx="12" cy="19" transform="scale(9.41667,9.41667)" r="2"></circle><circle cx="19" cy="19" transform="scale(9.41667,9.41667)" r="2"></circle><circle cx="5" cy="19" transform="scale(9.41667,9.41667)" r="2"></circle></g></g></svg>