<svg xmlns="http://www.w3.org/2000/svg" x="0px" y="0px"
width="48" height="48"
viewBox="0 0 172 172"
style=" fill:#000000;"><defs><linearGradient x1="86" y1="21.26708" x2="86" y2="53.75" gradientUnits="userSpaceOnUse" id="color-1_PL4OHdJ2n5XD_gr1"><stop offset="0" stop-color="#34dbd1"></stop><stop offset="1" stop-color="#34a6db"></stop></linearGradient><linearGradient x1="76.95208" y1="19.98425" x2="91.48967" y2="74.23233" gradientUnits="userSpaceOnUse" id="color-2_PL4OHdJ2n5XD_gr2"><stop offset="0" stop-color="#54baff"></stop><stop offset="0.261" stop-color="#4db6fd"></stop><stop offset="0.639" stop-color="#3ab0f7"></stop><stop offset="1" stop-color="#216df0"></stop></linearGradient><linearGradient x1="84.14383" y1="32.49367" x2="87.85258" y2="46.33967" gradientUnits="userSpaceOnUse" id="color-3_PL4OHdJ2n5XD_gr3"><stop offset="0" stop-color="#001ac2"></stop><stop offset="1" stop-color="#0c10b7"></stop></linearGradient><linearGradient x1="86" y1="139.75" x2="86" y2="150.5" gradientUnits="userSpaceOnUse" id="color-4_PL4OHdJ2n5XD_gr4"><stop offset="0" stop-color="#34dbd1"></stop><stop offset="1" stop-color="#34a6db"></stop></linearGradient><linearGradient x1="86" y1="129" x2="86" y2="139.75" gradientUnits="userSpaceOnUse" id="color-5_PL4OHdJ2n5XD_gr5"><stop offset="0" stop-color="#34dbd1"></stop><stop offset="1" stop-color="#34a6db"></stop></linearGradient><linearGradient x1="86" y1="129" x2="86" y2="57.33333" gradientUnits="userSpaceOnUse" id="color-6_PL4OHdJ2n5XD_gr6"><stop offset="0" stop-color="#0c10b7"></stop><stop offset="1" stop-color="#001ac2"></stop></linearGradient><linearGradient x1="96.26983" y1="64.629" x2="111.5635" y2="121.70433" gradientUnits="userSpaceOnUse" id="color-7_PL4OHdJ2n5XD_gr7"><stop offset="0" stop-color="#54baff"></stop><stop offset="0.261" stop-color="#4db6fd"></stop><stop offset="0.639" stop-color="#3ab0f7"></stop><stop offset="1" stop-color="#216df0"></stop></linearGradient><linearGradient x1="132.10317" y1="64.629" x2="147.39683" y2="121.70433" gradientUnits="userSpaceOnUse" id="color-8_PL4OHdJ2n5XD_gr8"><stop offset="0" stop-color="#54baff"></stop><stop offset="0.261" stop-color="#4db6fd"></stop><stop offset="0.639" stop-color="#3ab0f7"></stop><stop offset="1" stop-color="#216df0"></stop></linearGradient><linearGradient x1="60.4365" y1="64.629" x2="75.73017" y2="121.70433" gradientUnits="userSpaceOnUse" id="color-9_PL4OHdJ2n5XD_gr9"><stop offset="0" stop-color="#54baff"></stop><stop offset="0.261" stop-color="#4db6fd"></stop><stop offset="0.639" stop-color="#3ab0f7"></stop><stop offset="1" stop-color="#216df0"></stop></linearGradient><linearGradient x1="24.60317" y1="64.629" x2="39.89683" y2="121.70433" gradientUnits="userSpaceOnUse" id="color-10_PL4OHdJ2n5XD_gr10"><stop offset="0" stop-color="#54baff"></stop><stop offset="0.261" stop-color="#4db6fd"></stop><stop offset="0.639" stop-color="#3ab0f7"></stop><stop offset="1" stop-color="#216df0"></stop></linearGradient><linearGradient x1="103.91667" y1="121.83333" x2="103.91667" y2="129" gradientUnits="userSpaceOnUse" id="color-11_PL4OHdJ2n5XD_gr11"><stop offset="0" stop-color="#54baff"></stop><stop offset="0.261" stop-color="#4db6fd"></stop><stop offset="0.639" stop-color="#3ab0f7"></stop><stop offset="1" stop-color="#216df0"></stop></linearGradient><linearGradient x1="139.75" y1="121.83333" x2="139.75" y2="129" gradientUnits="userSpaceOnUse" id="color-12_PL4OHdJ2n5XD_gr12"><stop offset="0" stop-color="#54baff"></stop><stop offset="0.261" stop-color="#4db6fd"></stop><stop offset="0.639" stop-color="#3ab0f7"></stop><stop offset="1" stop-color="#216df0"></stop></linearGradient><linearGradient x1="68.08333" y1="121.83333" x2="68.08333" y2="129" gradientUnits="userSpaceOnUse" id="color-13_PL4OHdJ2n5XD_gr13"><stop offset="0" stop-color="#54baff"></stop><stop offset="0.261" stop-color="#4db6fd"></stop><stop offset="0.639" stop-color="#3ab0f7"></stop><stop offset="1" stop-color="#216df0"></stop></linearGradient><linearGradient x1="32.25" y1="121.83333" x2="32.25" y2="129" gradientUnits="userSpaceOnUse" id="color-14_PL4OHdJ2n5XD_gr14"><stop offset="0" stop-color="#54baff"></stop><stop offset="0.261" stop-color="#4db6fd"></stop><stop offset="0.639" stop-color="#3ab0f7"></stop><stop offset="1" stop-color="#216df0"></stop></linearGradient><linearGradient x1="103.91667" y1="64.5" x2="103.91667" y2="57.33333" gradientUnits="userSpaceOnUse" id="color-15_PL4OHdJ2n5XD_gr15"><stop offset="0" stop-color="#54baff"></stop><stop offset="0.261" stop-color="#4db6fd"></stop><stop offset="0.639" stop-color="#3ab0f7"></stop><stop offset="1" stop-color="#216df0"></stop></linearGradient><linearGradient x1="139.75" y1="64.5" x2="139.75" y2="57.33333" gradientUnits="userSpaceOnUse" id="color-16_PL4OHdJ2n5XD_gr16"><stop offset="0" stop-color="#54baff"></stop><stop offset="0.261" stop-color="#4db6fd"></stop><stop offset="0.639" stop-color="#3ab0f7"></stop><stop offset="1" stop-color="#216df0"></stop></linearGradient><linearGradient x1="68.08333" y1="64.5" x2="68.08333" y2="57.33333" gradientUnits="userSpaceOnUse" id="color-17_PL4OHdJ2n5XD_gr17"><stop offset="0" stop-color="#54baff"></stop><stop offset="0.261" stop-color="#4db6fd"></stop><stop offset="0.639" stop-color="#3ab0f7"></stop><stop offset="1" stop-color="#216df0"></stop></linearGradient><linearGradient x1="32.25" y1="64.5" x2="32.25" y2="57.33333" gradientUnits="userSpaceOnUse" id="color-18_PL4OHdJ2n5XD_gr18"><stop offset="0" stop-color="#54baff"></stop><stop offset="0.261" stop-color="#4db6fd"></stop><stop offset="0.639" stop-color="#3ab0f7"></stop><stop offset="1" stop-color="#216df0"></stop></linearGradient><linearGradient x1="121.83333" y1="111.08333" x2="168.41667" y2="111.08333" gradientUnits="userSpaceOnUse" id="color-19_PL4OHdJ2n5XD_gr19"><stop offset="0" stop-color="#3079d6"></stop><stop offset="1" stop-color="#297cd2"></stop></linearGradient><linearGradient x1="118.25" y1="107.5" x2="172" y2="107.5" gradientUnits="userSpaceOnUse" id="color-20_PL4OHdJ2n5XD_gr20"><stop offset="0" stop-color="#42a3f2"></stop><stop offset="1" stop-color="#42a4eb"></stop></linearGradient><linearGradient x1="145.125" y1="124.90783" x2="145.125" y2="137.61075" gradientUnits="userSpaceOnUse" id="color-21_PL4OHdJ2n5XD_gr21"><stop offset="0" stop-color="#eba84b"></stop><stop offset="1" stop-color="#d97218"></stop></linearGradient><linearGradient x1="145.125" y1="147.0471" x2="145.125" y2="166.10255" gradientUnits="userSpaceOnUse" id="color-22_PL4OHdJ2n5XD_gr22"><stop offset="0" stop-color="#eba84b"></stop><stop offset="1" stop-color="#d97218"></stop></linearGradient><linearGradient x1="168.41667" y1="163.9375" x2="121.83333" y2="163.9375" gradientUnits="userSpaceOnUse" id="color-23_PL4OHdJ2n5XD_gr23"><stop offset="0" stop-color="#3079d6"></stop><stop offset="1" stop-color="#297cd2"></stop></linearGradient><linearGradient x1="172" y1="168.41667" x2="118.25" y2="168.41667" gradientUnits="userSpaceOnUse" id="color-24_PL4OHdJ2n5XD_gr24"><stop offset="0" stop-color="#42a3f2"></stop><stop offset="1" stop-color="#42a4eb"></stop></linearGradient></defs><g fill="none" fill-rule="nonzero" stroke="none" stroke-width="1" stroke-linecap="butt" stroke-linejoin="miter" stroke-miterlimit="10" stroke-dasharray="" stroke-dashoffset="0" font-family="none" font-weight="none" font-size="none" text-anchor="none" style="mix-blend-mode: normal"><path d="M0,172v-172h172v172z" fill="none" stroke="none"></path><g stroke="none"><path d="M86,21.26708l-68.08333,32.48292h136.16667z" fill="url(#color-1_PL4OHdJ2n5XD_gr1)"></path><path d="M154.08333,57.33333h-136.16667c-1.73433,0 -3.22142,-1.247 -3.526,-2.95267c-0.30458,-1.71283 0.65933,-3.38983 2.28975,-3.99183l68.08333,-32.48292c0.79908,-0.29383 1.68058,-0.29383 2.47608,0l68.08333,32.48292c1.63042,0.602 2.59433,2.28258 2.28975,3.99183c-0.30817,1.70567 -1.79525,2.95267 -3.52958,2.95267zM35.83333,50.16667h100.33333l-50.16667,-25.08333z" fill="url(#color-2_PL4OHdJ2n5XD_gr2)"></path><circle cx="24" cy="11" transform="scale(3.58333,3.58333)" r="2" fill="url(#color-3_PL4OHdJ2n5XD_gr3)"></circle><path d="M3.58333,150.5h164.83333v-7.16667c0,-1.978 -1.60533,-3.58333 -3.58333,-3.58333h-157.66667c-1.978,0 -3.58333,1.60533 -3.58333,3.58333z" fill="url(#color-4_PL4OHdJ2n5XD_gr4)"></path><path d="M10.75,139.75h150.5v-7.16667c0,-1.978 -1.60533,-3.58333 -3.58333,-3.58333h-143.33333c-1.978,0 -3.58333,1.60533 -3.58333,3.58333z" fill="url(#color-5_PL4OHdJ2n5XD_gr5)"></path><rect x="10" y="16" transform="scale(3.58333,3.58333)" width="28" height="20" fill="url(#color-6_PL4OHdJ2n5XD_gr6)"></rect><rect x="27" y="18" transform="scale(3.58333,3.58333)" width="4" height="16" fill="url(#color-7_PL4OHdJ2n5XD_gr7)"></rect><rect x="37" y="18" transform="scale(3.58333,3.58333)" width="4" height="16" fill="url(#color-8_PL4OHdJ2n5XD_gr8)"></rect><rect x="17" y="18" transform="scale(3.58333,3.58333)" width="4" height="16" fill="url(#color-9_PL4OHdJ2n5XD_gr9)"></rect><rect x="7" y="18" transform="scale(3.58333,3.58333)" width="4" height="16" fill="url(#color-10_PL4OHdJ2n5XD_gr10)"></rect><path d="M111.08333,121.83333h-14.33333c-1.978,0 -3.58333,1.60533 -3.58333,3.58333v3.58333h21.5v-3.58333c0,-1.978 -1.60533,-3.58333 -3.58333,-3.58333z" fill="url(#color-11_PL4OHdJ2n5XD_gr11)"></path><path d="M146.91667,121.83333h-14.33333c-1.978,0 -3.58333,1.60533 -3.58333,3.58333v3.58333h21.5v-3.58333c0,-1.978 -1.60533,-3.58333 -3.58333,-3.58333z" fill="url(#color-12_PL4OHdJ2n5XD_gr12)"></path><path d="M75.25,121.83333h-14.33333c-1.978,0 -3.58333,1.60533 -3.58333,3.58333v3.58333h21.5v-3.58333c0,-1.978 -1.60533,-3.58333 -3.58333,-3.58333z" fill="url(#color-13_PL4OHdJ2n5XD_gr13)"></path><path d="M39.41667,121.83333h-14.33333c-1.978,0 -3.58333,1.60533 -3.58333,3.58333v3.58333h21.5v-3.58333c0,-1.978 -1.60533,-3.58333 -3.58333,-3.58333z" fill="url(#color-14_PL4OHdJ2n5XD_gr14)"></path><path d="M114.66667,57.33333h-21.5v3.58333c0,1.978 1.60533,3.58333 3.58333,3.58333h14.33333c1.978,0 3.58333,-1.60533 3.58333,-3.58333z" fill="url(#color-15_PL4OHdJ2n5XD_gr15)"></path><path d="M150.5,57.33333h-21.5v3.58333c0,1.978 1.60533,3.58333 3.58333,3.58333h14.33333c1.978,0 3.58333,-1.60533 3.58333,-3.58333z" fill="url(#color-16_PL4OHdJ2n5XD_gr16)"></path><path d="M78.83333,57.33333h-21.5v3.58333c0,1.978 1.60533,3.58333 3.58333,3.58333h14.33333c1.978,0 3.58333,-1.60533 3.58333,-3.58333z" fill="url(#color-17_PL4OHdJ2n5XD_gr17)"></path><path d="M43,57.33333h-21.5v3.58333c0,1.978 1.60533,3.58333 3.58333,3.58333h14.33333c1.978,0 3.58333,-1.60533 3.58333,-3.58333z" fill="url(#color-18_PL4OHdJ2n5XD_gr18)"></path></g><g stroke="none"><g id="Layer_39"><path d="M166.625,120.42867v-11.137h-43v11.137c0,8.19508 5.57567,15.34025 13.53067,17.329l0.80267,0.20067l-0.80267,0.20067c-7.955,1.98875 -13.53067,9.13033 -13.53067,17.329v11.137h43v-11.137c0,-8.19508 -5.57567,-15.34025 -13.53067,-17.32542l-0.80267,-0.20425l0.80267,-0.20067c7.955,-1.98875 13.53067,-9.13033 13.53067,-17.329z" fill="#6ad7fc"></path><path d="M166.625,114.66667h-43c-0.989,0 -1.79167,-0.80267 -1.79167,-1.79167v-5.375h46.58333v5.375c0,0.989 -0.80267,1.79167 -1.79167,1.79167z" fill="url(#color-19_PL4OHdJ2n5XD_gr19)"></path><path d="M168.41667,111.08333h-46.58333c-1.978,0 -3.58333,-1.60533 -3.58333,-3.58333v-1.79167c0,-0.989 0.80267,-1.79167 1.79167,-1.79167h50.16667c0.989,0 1.79167,0.80267 1.79167,1.79167v1.79167c0,1.978 -1.60533,3.58333 -3.58333,3.58333z" fill="url(#color-20_PL4OHdJ2n5XD_gr20)"></path><path d="M129,127.20833c0,5.375 14.33333,10.75 16.125,10.75c1.79167,0 16.125,-5.375 16.125,-10.75z" fill="url(#color-21_PL4OHdJ2n5XD_gr21)"></path><path d="M145.125,150.5c-1.79167,0 -14.33333,8.44592 -14.33333,16.125h28.66667c0,-7.67908 -12.54167,-16.125 -14.33333,-16.125z" fill="url(#color-22_PL4OHdJ2n5XD_gr22)"></path><path d="M123.625,161.25h43c0.989,0 1.79167,0.80267 1.79167,1.79167v3.58333h-46.58333v-3.58333c0,-0.989 0.80267,-1.79167 1.79167,-1.79167z" fill="url(#color-23_PL4OHdJ2n5XD_gr23)"></path><path d="M121.83333,164.83333h46.58333c1.978,0 3.58333,1.60533 3.58333,3.58333v1.79167c0,0.989 -0.80267,1.79167 -1.79167,1.79167h-50.16667c-0.989,0 -1.79167,-0.80267 -1.79167,-1.79167v-1.79167c0,-1.978 1.60533,-3.58333 3.58333,-3.58333z" fill="url(#color-24_PL4OHdJ2n5XD_gr24)"></path></g></g><path d="M118.25,172v-68.08333h53.75v68.08333z" id="overlay-drag" fill="#ff0000" stroke="none" opacity="0"></path></g></svg>