<svg xmlns="http://www.w3.org/2000/svg" x="0px" y="0px"
width="30" height="30"
viewBox="0 0 172 172"
style=" fill:#000000;"><g fill="none" fill-rule="nonzero" stroke="none" stroke-width="1" stroke-linecap="butt" stroke-linejoin="miter" stroke-miterlimit="10" stroke-dasharray="" stroke-dashoffset="0" font-family="none" font-weight="none" font-size="none" text-anchor="none" style="mix-blend-mode: normal"><path d="M0,172v-172h172v172z" fill="none"></path><g fill="#000000"><path d="M37.84896,17.2c-5.23453,0 -9.18229,5.73333 -9.18229,5.73333c-30.014,0 -13.45479,47.90711 -22.27266,54.97058c0,0 5.40519,6.68515 22.27266,6.68515v5.72214c-4.65547,12.1432 -28.66667,7.65427 -28.66667,30.0888h30.1l4.3,-17.2l-2.86667,-5.73333h11.46667l-2.86667,5.73333l4.3,17.2h1.56771c4.03627,-2.4424 17.06563,-9.21589 17.06563,-9.21589c-3.1132,-3.32533 -7.60428,-9.06897 -9.23828,-13.4263c-3.5776,-1.79453 -6.60292,-3.90341 -7.96172,-7.44661v-5.78932c1.08933,0 4.30152,-0.25164 5.43099,-0.50391c-2.55707,-3.9388 -4.71432,-12.91639 -4.71432,-17.95026c0,-12.80254 5.51341,-23.33297 14.65808,-29.93203c-2.75773,-10.55507 -8.88138,-18.93568 -23.39245,-18.93568zM131.86667,17.2c-12.7452,0 -20.57102,8.76743 -22.46302,20.25703c9.26507,4.96507 15.29636,15.66911 15.29636,29.14818c0,4.21399 -0.98282,8.26881 -2.04922,11.41067c0.3956,1.55373 0.61589,3.28636 0.61589,5.20703c0,14.16133 -14.33333,28.28594 -14.33333,28.28594c3.1132,1.3588 13.07334,6.42008 17.14401,8.89114h0.05599l2.86667,-22.93333l-2.86667,-5.73333h11.46667l-2.86667,5.73333l2.86667,22.93333h34.4c0,-30.1 -24.4412,-21.5 -28.66667,-34.4v-8.6c1.90347,-0.95747 6.43656,-7.54991 7.00989,-12.69844c1.49067,-0.11467 4.45677,-3.75882 4.45677,-7.02109c0,-3.26227 -1.03711,-4.63477 -1.93724,-5.16224c0,0 1.93724,-4.30663 1.93724,-9.51823c0,-10.4404 -2.8208,-20.06667 -11.46667,-20.06667c0,0 -2.48253,-5.73333 -11.46667,-5.73333zM86,40.13333c-15.43413,0 -27.95,9.29624 -27.95,25.93438c0,7.0348 3.94167,12.51927 3.94167,12.51927c0,0 -1.79167,0.88061 -1.79167,4.63594c0,7.29853 4.69192,9.04792 4.69192,9.04792c0.6536,5.7792 9.64141,14.24375 9.64141,14.24375v9.6638c-4.82747,14.4824 -34.4,4.93828 -34.4,38.62161h40.13333l2.86667,-22.93333l-2.86667,-5.73333h11.46667l-2.86667,5.73333l2.86667,22.93333h40.13333c0,-33.798 -29.57253,-24.13921 -34.4,-38.62161v-9.6638c0,0 8.98781,-8.46455 9.64141,-14.24375c0,0 4.69192,-3.24005 4.69192,-9.04792c0,-4.0248 -1.79167,-4.63594 -1.79167,-4.63594c0,0 3.225,-6.13377 3.225,-11.98177c0,-11.72467 -5.8824,-20.73854 -15.76667,-20.73854c0,0 -4.1968,-5.73333 -11.46667,-5.73333z"></path></g></g></svg>