<svg xmlns="http://www.w3.org/2000/svg" x="0px" y="0px"
width="24" height="24"
viewBox="0 0 172 172"
style=" fill:#000000;"><g fill="none" fill-rule="nonzero" stroke="none" stroke-width="1" stroke-linecap="butt" stroke-linejoin="miter" stroke-miterlimit="10" stroke-dasharray="" stroke-dashoffset="0" font-family="none" font-weight="none" font-size="none" text-anchor="none" style="mix-blend-mode: normal"><path d="M0,172v-172h172v172z" fill="none"></path><g fill="#333333"><circle cx="19" cy="5" transform="scale(7.16667,7.16667)" r="2" opacity="0.35"></circle><circle cx="5" cy="5" transform="scale(7.16667,7.16667)" r="2" opacity="0.35"></circle><circle cx="12" cy="5" transform="scale(7.16667,7.16667)" r="2" opacity="0.35"></circle><rect x="12" y="-17" transform="rotate(90) scale(7.16667,7.16667)" width="2" height="10" opacity="0.35"></rect><path d="M107.5,78.83333c0,-11.87517 -9.62483,-21.5 -21.5,-21.5c-11.87517,0 -21.5,9.62483 -21.5,21.5c0,3.9345 0,7.16667 0,7.16667h43c0,0 0,-3.23217 0,-7.16667z"></path><path d="M107.5,157.66667c-3.956,0 -7.16667,-3.2035 -7.16667,-7.16667v-21.48567c0,-3.83417 1.49067,-7.43183 4.20683,-10.14083c2.709,-2.70183 6.2995,-4.1925 10.1265,-4.1925c0.00717,0 0.01433,0 0.02867,0l21.48567,0.043c3.956,0.00717 7.1595,3.21783 7.15233,7.181c-0.00717,3.956 -3.21783,7.15233 -7.16667,7.15233c0,0 -0.00717,0 -0.01433,0l-21.48567,-0.043v21.48567c0,3.96317 -3.21067,7.16667 -7.16667,7.16667z"></path><path d="M139.75,57.33333c-9.89717,0 -17.91667,8.0195 -17.91667,17.91667c0,3.28233 0,36.00533 0,36.00533l-13.3515,4.78017l6.18483,34.4645l1.7415,-18.84833l19.7585,-2.65167c11.87517,0 21.5,-9.62483 21.5,-21.5c0,0 0,-28.96767 0,-32.25c0,-9.89717 -8.0195,-17.91667 -17.91667,-17.91667z"></path><path d="M64.5,157.66667c3.956,0 7.16667,-3.2035 7.16667,-7.16667v-21.48567c0,-3.83417 -1.49067,-7.43183 -4.20683,-10.14083c-2.709,-2.70183 -6.2995,-4.1925 -10.1265,-4.1925c-0.00717,0 -0.01433,0 -0.02867,0l-21.48567,0.043c-3.956,0.00717 -7.1595,3.21783 -7.15233,7.181c0.00717,3.956 3.21783,7.15233 7.16667,7.15233c0,0 0.00717,0 0.01433,0l21.48567,-0.043v21.48567c0,3.96317 3.21067,7.16667 7.16667,7.16667z"></path><path d="M32.25,57.33333c9.89717,0 17.91667,8.0195 17.91667,17.91667c0,3.28233 0,36.00533 0,36.00533l13.3515,4.78017l-6.18483,34.4645l-1.7415,-18.84833l-19.7585,-2.65167c-11.87517,0 -21.5,-9.62483 -21.5,-21.5c0,0 0,-28.96767 0,-32.25c0,-9.89717 8.0195,-17.91667 17.91667,-17.91667z"></path></g></g></svg>