<svg xmlns="http://www.w3.org/2000/svg" x="0px" y="0px"
width="30" height="30"
viewBox="0 0 226 226"
style=" fill:#000000;"><g fill="none" fill-rule="nonzero" stroke="none" stroke-width="1" stroke-linecap="butt" stroke-linejoin="miter" stroke-miterlimit="10" stroke-dasharray="" stroke-dashoffset="0" font-family="none" font-weight="none" font-size="none" text-anchor="none" style="mix-blend-mode: normal"><path d="M0,226v-226h226v226z" fill="none"></path><g fill="#000000"><path d="M150.66667,178.23867c6.3845,-3.68192 13.73892,-3.99267 20.10458,-1.54433c5.311,2.04342 11.38475,0.34842 14.99133,-4.04917c6.43158,-7.84408 11.62017,-16.74283 15.26442,-26.41375c2.08108,-5.52758 0.113,-11.60133 -4.39758,-15.4245c-5.07558,-4.27517 -8.29608,-10.64083 -8.29608,-17.80692c0,-7.16608 3.2205,-13.53175 8.28667,-17.82575c4.51058,-3.82317 6.48808,-9.8875 4.39758,-15.4245c-3.64425,-9.6615 -8.82342,-18.56967 -15.26442,-26.41375c-3.60658,-4.39758 -9.68033,-6.09258 -14.99133,-4.04917c-6.35625,2.46717 -13.71067,2.15642 -20.09517,-1.5255c-6.40333,-3.70075 -10.35833,-9.944 -11.39417,-16.71458c-0.8475,-5.537 -5.23567,-9.96283 -10.76325,-10.9045c-5.04733,-0.85692 -10.2265,-1.30892 -15.50925,-1.30892c-5.28275,0 -10.46192,0.452 -15.50925,1.30892c-5.52758,0.94167 -9.90633,5.3675 -10.76325,10.9045c-1.03583,6.77058 -4.99083,13.01383 -11.39417,16.71458c-6.3845,3.68192 -13.73892,3.99267 -20.10458,1.53492c-5.311,-2.04342 -11.38475,-0.34842 -14.99133,4.04917c-6.43158,7.84408 -11.61075,16.74283 -15.255,26.41375c-2.0905,5.52758 -0.113,11.60133 4.39758,15.41508c5.06617,4.294 8.28667,10.65967 8.28667,17.82575c0,7.16608 -3.2205,13.53175 -8.28667,17.82575c-4.51058,3.82317 -6.48808,9.8875 -4.39758,15.4245c3.64425,9.6615 8.82342,18.56967 15.26442,26.41375c3.60658,4.39758 9.68033,6.09258 14.99133,4.04917c6.35625,-2.46717 13.71067,-2.15642 20.09517,1.5255c6.40333,3.70075 10.35833,9.944 11.39417,16.71458c0.8475,5.537 5.23567,9.96283 10.76325,10.9045c5.04733,0.85692 10.2265,1.30892 15.50925,1.30892c5.28275,0 10.46192,-0.452 15.50925,-1.30892c5.52758,-0.93225 9.91575,-5.35808 10.76325,-10.9045c1.03583,-6.77058 4.99083,-13.01383 11.39417,-16.71458z" opacity="0.35"></path><path d="M113,75.33333c-20.80142,0 -37.66667,16.86525 -37.66667,37.66667c0,20.80142 16.86525,37.66667 37.66667,37.66667c20.80142,0 37.66667,-16.86525 37.66667,-37.66667c0,-20.80142 -16.86525,-37.66667 -37.66667,-37.66667z"></path></g></g></svg>