<svg xmlns="http://www.w3.org/2000/svg" x="0px" y="0px"
width="48" height="48"
viewBox="0 0 172 172"
style=" fill:#000000;"><defs><linearGradient x1="122.70444" y1="110.85113" x2="149.62889" y2="161.4822" gradientUnits="userSpaceOnUse" id="color-1_svF8ZHwtgbpX_gr1"><stop offset="0" stop-color="#fcfcfc"></stop><stop offset="0.495" stop-color="#f4f4f4"></stop><stop offset="0.869" stop-color="#e8e8e8"></stop><stop offset="1" stop-color="#e8e8e8"></stop></linearGradient><linearGradient x1="100.33333" y1="136.16667" x2="172" y2="136.16667" gradientUnits="userSpaceOnUse" id="color-2_svF8ZHwtgbpX_gr2"><stop offset="0" stop-color="#f44f5a"></stop><stop offset="0.443" stop-color="#ee3d4a"></stop><stop offset="1" stop-color="#e52030"></stop></linearGradient></defs><g fill="none" fill-rule="nonzero" stroke="none" stroke-width="1" stroke-linecap="butt" stroke-linejoin="miter" stroke-miterlimit="10" stroke-dasharray="" stroke-dashoffset="0" font-family="none" font-weight="none" font-size="none" text-anchor="none" style="mix-blend-mode: normal"><path d="M0,172v-172h172v172z" fill="none"></path><g><path d="M86,21.5l-68.08333,25.08333h136.16667z" fill="#ffa76b"></path><path d="M3.58333,143.33333h164.83333v-7.16667c0,-1.978 -1.60533,-3.58333 -3.58333,-3.58333h-157.66667c-1.978,0 -3.58333,1.60533 -3.58333,3.58333z" fill="#d12a2a"></path><path d="M21.5,143.33333h129v-7.16667c0,-1.978 -1.60533,-3.58333 -3.58333,-3.58333h-121.83333c-1.978,0 -3.58333,1.60533 -3.58333,3.58333z" fill="#f07854"></path><path d="M10.75,132.58333h150.5v-7.16667c0,-1.978 -1.60533,-3.58333 -3.58333,-3.58333h-143.33333c-1.978,0 -3.58333,1.60533 -3.58333,3.58333z" fill="#e33d3d"></path><path d="M28.66667,132.58333h114.66667v-7.16667c0,-1.978 -1.60533,-3.58333 -3.58333,-3.58333h-107.5c-1.978,0 -3.58333,1.60533 -3.58333,3.58333z" fill="#ffa76b"></path><path d="M154.08333,50.16667h-136.16667c-1.73433,0 -3.22142,-1.247 -3.526,-2.95267c-0.30458,-1.71283 0.65933,-3.38983 2.28975,-3.99183l68.08333,-25.08333c0.79908,-0.29383 1.68058,-0.29383 2.47608,0l68.08333,25.08333c1.63042,0.602 2.59433,2.28258 2.28975,3.99183c-0.30817,1.70567 -1.79525,2.95267 -3.52958,2.95267zM38.00842,43h95.98317l-47.99158,-17.68375z" fill="#ed7c47"></path><circle cx="24" cy="10" transform="scale(3.58333,3.58333)" r="1" fill="#b6162d"></circle><rect x="10" y="14" transform="scale(3.58333,3.58333)" width="28" height="20" fill="#b6162d"></rect><rect x="27" y="16" transform="scale(3.58333,3.58333)" width="4" height="16" fill="#ed7c47"></rect><rect x="37" y="16" transform="scale(3.58333,3.58333)" width="4" height="16" fill="#ed7c47"></rect><rect x="17" y="16" transform="scale(3.58333,3.58333)" width="4" height="16" fill="#ed7c47"></rect><rect x="7" y="16" transform="scale(3.58333,3.58333)" width="4" height="16" fill="#ed7c47"></rect><path d="M111.08333,114.66667h-14.33333c-1.978,0 -3.58333,1.60533 -3.58333,3.58333v3.58333h21.5v-3.58333c0,-1.978 -1.60533,-3.58333 -3.58333,-3.58333z" fill="#ed7c47"></path><path d="M146.91667,114.66667h-14.33333c-1.978,0 -3.58333,1.60533 -3.58333,3.58333v3.58333h21.5v-3.58333c0,-1.978 -1.60533,-3.58333 -3.58333,-3.58333z" fill="#ed7c47"></path><path d="M75.25,114.66667h-14.33333c-1.978,0 -3.58333,1.60533 -3.58333,3.58333v3.58333h21.5v-3.58333c0,-1.978 -1.60533,-3.58333 -3.58333,-3.58333z" fill="#ed7c47"></path><path d="M39.41667,114.66667h-14.33333c-1.978,0 -3.58333,1.60533 -3.58333,3.58333v3.58333h21.5v-3.58333c0,-1.978 -1.60533,-3.58333 -3.58333,-3.58333z" fill="#ed7c47"></path><path d="M114.66667,50.16667h-21.5v3.58333c0,1.978 1.60533,3.58333 3.58333,3.58333h14.33333c1.978,0 3.58333,-1.60533 3.58333,-3.58333z" fill="#ffa76b"></path><path d="M150.5,50.16667h-21.5v3.58333c0,1.978 1.60533,3.58333 3.58333,3.58333h14.33333c1.978,0 3.58333,-1.60533 3.58333,-3.58333z" fill="#ffa76b"></path><path d="M78.83333,50.16667h-21.5v3.58333c0,1.978 1.60533,3.58333 3.58333,3.58333h14.33333c1.978,0 3.58333,-1.60533 3.58333,-3.58333z" fill="#ffa76b"></path><path d="M43,50.16667h-21.5v3.58333c0,1.978 1.60533,3.58333 3.58333,3.58333h14.33333c1.978,0 3.58333,-1.60533 3.58333,-3.58333z" fill="#ffa76b"></path></g><g><g id="Layer_17"><circle cx="38" cy="38" transform="scale(3.58333,3.58333)" r="8" fill="url(#color-1_svF8ZHwtgbpX_gr1)"></circle><path d="M136.16667,100.33333c-19.7585,0 -35.83333,16.07483 -35.83333,35.83333c0,19.7585 16.07483,35.83333 35.83333,35.83333c19.7585,0 35.83333,-16.07483 35.83333,-35.83333c0,-19.7585 -16.07483,-35.83333 -35.83333,-35.83333zM136.16667,111.08333c4.97367,0 9.59975,1.47275 13.502,3.9775l-34.60783,34.60783c-2.50475,-3.90225 -3.9775,-8.52833 -3.9775,-13.502c0,-13.82808 11.25167,-25.08333 25.08333,-25.08333zM136.16667,161.25c-4.97367,0 -9.59975,-1.47275 -13.502,-3.9775l34.60783,-34.60783c2.50475,3.90225 3.9775,8.52833 3.9775,13.502c0,13.82808 -11.25167,25.08333 -25.08333,25.08333z" fill="url(#color-2_svF8ZHwtgbpX_gr2)"></path></g></g></g></svg>