<svg xmlns="http://www.w3.org/2000/svg" x="0px" y="0px"
width="50" height="50"
viewBox="0 0 226 226"
style=" fill:#000000;"><g fill="none" fill-rule="nonzero" stroke="none" stroke-width="1" stroke-linecap="butt" stroke-linejoin="miter" stroke-miterlimit="10" stroke-dasharray="" stroke-dashoffset="0" font-family="none" font-weight="none" font-size="none" text-anchor="none" style="mix-blend-mode: normal"><path d="M0,226v-226h226v226z" fill="none"></path><g fill="#cccccc"><path d="M194.51302,28.25c-3.90792,0 -7.57659,1.80359 -9.96843,4.89225l-5.62793,7.20964l-116.21859,42.1543c-3.729,1.34658 -6.19808,4.8821 -6.19808,8.84652v43.29459c0,3.96442 2.46908,7.49993 6.19808,8.84652l16.88379,6.12452l-2.66683,7.54069c-2.00575,5.65942 0.95226,11.86176 6.62109,13.86751l20.507,7.26482c5.65942,2.00575 11.88015,-0.97065 13.88591,-6.63948l2.53808,-7.20964l58.44954,21.20589l5.62793,7.20964c2.39183,3.08867 6.06051,4.89225 9.96843,4.89225c6.98717,0 12.65365,-5.66648 12.65365,-12.65365v-144.19271c0,-6.98717 -5.66648,-12.65365 -12.65365,-12.65365zM28.25,84.75c-5.198,0 -9.41667,4.21867 -9.41667,9.41667v37.66667c0,5.198 4.21867,9.41667 9.41667,9.41667c5.198,0 9.41667,-4.21867 9.41667,-9.41667v-37.66667c0,-5.198 -4.21867,-9.41667 -9.41667,-9.41667z"></path></g></g></svg> 