<svg xmlns="http://www.w3.org/2000/svg" x="0px" y="0px"
width="24" height="24"
viewBox="0 0 172 172"
style=" fill:#000000;"><g fill="none" fill-rule="nonzero" stroke="none" stroke-width="1" stroke-linecap="butt" stroke-linejoin="miter" stroke-miterlimit="10" stroke-dasharray="" stroke-dashoffset="0" font-family="none" font-weight="none" font-size="none" text-anchor="none" style="mix-blend-mode: normal"><path d="M0,172v-172h172v172z" fill="none"></path><g fill="#1a5db4"><path d="M100.33333,57.33333h-28.66667c-3.956,0 -7.16667,-3.21067 -7.16667,-7.16667v0c0,-3.956 3.21067,-7.16667 7.16667,-7.16667h28.66667c3.956,0 7.16667,3.21067 7.16667,7.16667v0c0,3.956 -3.21067,7.16667 -7.16667,7.16667z"></path><path d="M150.5,107.42117v-78.7545c0,-3.956 -3.21067,-7.16667 -7.16667,-7.16667h-114.66667c-3.956,0 -7.16667,3.21067 -7.16667,7.16667v100.33333c0,11.87517 9.62483,21.5 21.5,21.5h64.414c5.289,10.578 16.11783,17.91667 28.75267,17.91667c17.80917,0 32.25,-14.44083 32.25,-32.25c0,-12.63483 -7.33867,-23.4565 -17.91667,-28.7455z" opacity="0.35"></path><path d="M136.16667,100.33333c-19.78,0 -35.83333,16.05333 -35.83333,35.83333c0,19.78 16.05333,35.83333 35.83333,35.83333c19.78,0 35.83333,-16.05333 35.83333,-35.83333c0,-19.78 -16.05333,-35.83333 -35.83333,-35.83333zM139.24833,158.67v2.86667c0,1.86333 -1.43333,3.29667 -3.225,3.29667c-1.86333,0 -3.29667,-1.43333 -3.29667,-3.29667v-2.29333c-2.72333,-0.28667 -5.01667,-1.075 -6.80833,-2.15c-2.22167,-1.21833 -2.795,-4.15667 -1.36167,-6.235l0.14333,-0.215c1.21833,-1.79167 3.58333,-2.50833 5.51833,-1.505c1.14667,0.57333 2.58,1.075 4.22833,1.075c3.655,0 4.3,-3.15333 4.3,-4.515c0,-7.38167 -14.76333,-4.87333 -14.76333,-18.99167c0,-6.45 3.58333,-11.46667 9.03,-13.25833v-2.65167c0,-1.86333 1.505,-3.29667 3.29667,-3.29667c1.79167,0 3.29667,1.43333 3.29667,3.29667v1.935c2.07833,0.215 3.79833,0.71667 5.16,1.29c2.50833,1.14667 3.36833,4.3 1.72,6.59333c-1.21833,1.72 -3.51167,2.58 -5.51833,1.72c-0.78833,-0.43 -1.79167,-0.645 -2.93833,-0.645c-1.075,0 -4.37167,0.43 -4.37167,4.58667c0,7.02333 14.90667,5.16 14.90667,18.705c0,6.30667 -3.225,11.825 -9.31667,13.68833z"></path></g></g></svg>