<svg xmlns="http://www.w3.org/2000/svg" x="0px" y="0px"
width="48" height="48"
viewBox="0 0 226 226"
style=" fill:#000000;"><g fill="none" fill-rule="nonzero" stroke="none" stroke-width="1" stroke-linecap="butt" stroke-linejoin="miter" stroke-miterlimit="10" stroke-dasharray="" stroke-dashoffset="0" font-family="none" font-weight="none" font-size="none" text-anchor="none" style="mix-blend-mode: normal"><path d="M0,226v-226h226v226z" fill="none"></path><g fill="#1a5db4"><path d="M207.16667,170.36633v-0.86633c0,-5.198 -4.21867,-9.41667 -9.41667,-9.41667h-9.41667v-65.91667h4.70833c6.6105,0 12.34525,-4.58592 13.786,-11.04575c1.44075,-6.45983 -1.77975,-13.04208 -7.76875,-15.86708l-80.04167,-37.66667c-3.81375,-1.78917 -8.22075,-1.78917 -12.02508,0l-80.04167,37.66667c-5.989,2.825 -9.21892,9.41667 -7.77817,15.86708c1.44075,6.45042 7.1755,11.04575 13.786,11.04575h4.70833v65.91667h-9.41667c-5.198,0 -9.41667,4.21867 -9.41667,9.41667v0.86633c-5.47108,1.94925 -9.41667,7.119 -9.41667,13.25867c0,7.797 6.328,14.125 14.125,14.125h178.91667c7.797,0 14.125,-6.328 14.125,-14.125c0,-6.13967 -3.94558,-11.31883 -9.41667,-13.25867z" opacity="0.35"></path><rect x="11" y="10" transform="scale(9.41667,9.41667)" width="2" height="6.999"></rect><path d="M47.08333,94.16667v65.91667h-18.83333v-66.76417c1.50667,0.565 3.01333,0.8475 4.70833,0.8475z"></path><rect x="7" y="10" transform="scale(9.41667,9.41667)" width="2" height="7"></rect><path d="M197.75,93.31917v66.76417h-18.83333v-65.91667h14.125c1.695,0 3.20167,-0.2825 4.70833,-0.8475z"></path><rect x="15" y="10" transform="scale(9.41667,9.41667)" width="2" height="7"></rect><circle cx="12" cy="7" transform="scale(9.41667,9.41667)" r="1"></circle></g></g></svg>
