<svg xmlns="http://www.w3.org/2000/svg" x="0px" y="0px"
width="24" height="24"
viewBox="0 0 172 172"
style=" fill:#000000;"><g fill="none" fill-rule="nonzero" stroke="none" stroke-width="1" stroke-linecap="butt" stroke-linejoin="miter" stroke-miterlimit="10" stroke-dasharray="" stroke-dashoffset="0" font-family="none" font-weight="none" font-size="none" text-anchor="none" style="mix-blend-mode: normal"><path d="M0,172v-172h172v172z" fill="none"></path><g fill="#1a5db4"><path d="M129,86v-50.16667l-43,-14.33333l-43,14.33333v50.16667l-14.33333,4.78017v52.55317c0,7.91917 6.41417,14.33333 14.33333,14.33333h86c7.91917,0 14.33333,-6.41417 14.33333,-14.33333v-52.55317z" opacity="0.35"></path><path d="M93.16667,157.66667h-14.33333v-28.66667h14.33333z"></path><path d="M121.83333,114.66667h-14.33333v-14.33333h14.33333z"></path><path d="M78.83333,57.33333h-14.33333v-14.33333h14.33333z"></path><path d="M107.5,57.33333h-14.33333v-14.33333h14.33333z"></path><path d="M64.5,143.33333h-14.33333v-14.33333h14.33333z"></path><path d="M64.5,114.66667h-14.33333v-14.33333h14.33333z"></path><path d="M93.16667,114.66667h-14.33333v-14.33333h14.33333z"></path><path d="M121.83333,143.33333h-14.33333v-14.33333h14.33333z"></path><path d="M129,43c-0.74533,0 -1.51217,-0.12183 -2.26467,-0.37267l-40.73533,-13.57367l-40.73533,13.57367c-3.7625,1.2685 -7.81167,-0.774 -9.06583,-4.52933c-1.25417,-3.75533 0.78117,-7.81167 4.5365,-9.05867l43,-14.33333c1.47633,-0.48733 3.06017,-0.48733 4.5365,0l43,14.33333c3.75533,1.247 5.7835,5.30333 4.52933,9.06583c-1.00333,2.99567 -3.79833,4.89483 -6.80117,4.89483z"></path><path d="M143.33333,97.94683c-0.74533,0 -1.51217,-0.12183 -2.26467,-0.37267l-55.06867,-18.35383l-55.06867,18.361c-3.77683,1.26133 -7.81167,-0.774 -9.06583,-4.52933c-1.25417,-3.75533 0.774,-7.81883 4.52933,-9.06583l57.33333,-19.1135c1.47633,-0.48733 3.06017,-0.48733 4.5365,0l57.33333,19.1135c3.75533,1.247 5.7835,5.30333 4.52933,9.06583c-0.99617,2.99567 -3.79117,4.89483 -6.794,4.89483z"></path></g></g></svg>