<svg xmlns="http://www.w3.org/2000/svg" x="0px" y="0px"
width="24" height="24"
viewBox="0 0 172 172"
style=" fill:#000000;"><g fill="none" fill-rule="nonzero" stroke="none" stroke-width="1" stroke-linecap="butt" stroke-linejoin="miter" stroke-miterlimit="10" stroke-dasharray="" stroke-dashoffset="0" font-family="none" font-weight="none" font-size="none" text-anchor="none" style="mix-blend-mode: normal"><path d="M0,172v-172h172v172z" fill="none"></path><g fill="#1a5db4"><circle cx="16" cy="5" transform="scale(7.16667,7.16667)" r="3"></circle><circle cx="10.5" cy="5.5" transform="scale(7.16667,7.16667)" r="2.5" opacity="0.35"></circle><circle cx="6" cy="6" transform="scale(7.16667,7.16667)" r="2"></circle><path d="M129,157.66667h-28.66667c-7.91917,0 -14.33333,-6.41417 -14.33333,-14.33333v-50.16667c0,-15.83117 12.8355,-28.66667 28.66667,-28.66667v0c15.83117,0 28.66667,12.8355 28.66667,28.66667v50.16667c0,7.91917 -6.41417,14.33333 -14.33333,14.33333z"></path><path d="M50.16667,121.83333h-14.33333c-7.91917,0 -14.33333,-6.41417 -14.33333,-14.33333v-21.5c0,-11.87517 9.62483,-21.5 21.5,-21.5v0c11.87517,0 21.5,9.62483 21.5,21.5v21.5c0,7.91917 -6.41417,14.33333 -14.33333,14.33333z"></path><path d="M75.25,64.5c-6.493,0 -12.35533,2.52983 -16.813,6.58617c3.741,3.86283 6.063,9.10883 6.063,14.91383v21.5c0,7.91917 -6.41417,14.33333 -14.33333,14.33333v7.16667c0,7.91917 6.41417,14.33333 14.33333,14.33333h21.5c7.91917,0 14.33333,-6.41417 14.33333,-14.33333v-39.41667c0,-13.85317 -11.23017,-25.08333 -25.08333,-25.08333z" opacity="0.35"></path></g></g></svg>