<svg xmlns="http://www.w3.org/2000/svg" x="0px" y="0px"
width="48" height="48"
viewBox="0 0 226 226"
style=" fill:#000000;"><g fill="none" fill-rule="nonzero" stroke="none" stroke-width="1" stroke-linecap="butt" stroke-linejoin="miter" stroke-miterlimit="10" stroke-dasharray="" stroke-dashoffset="0" font-family="none" font-weight="none" font-size="none" text-anchor="none" style="mix-blend-mode: normal"><path d="M0,226v-226h226v226z" fill="none"></path><g fill="#1a5db4"><path d="M183.625,188.33333h-141.25c-7.80642,0 -14.125,-6.31858 -14.125,-14.125c0,-7.80642 6.31858,-14.125 14.125,-14.125h141.25c7.80642,0 14.125,6.31858 14.125,14.125c0,7.80642 -6.31858,14.125 -14.125,14.125z" opacity="0.35"></path><path d="M206.2815,61.42492l-21.04625,-21.04625c-5.80067,-5.80067 -15.73525,-1.68558 -15.73525,6.52575v9.59558h-136.54167c-7.797,0 -14.125,6.328 -14.125,14.125c0,7.797 6.328,14.125 14.125,14.125h136.54167v9.59558c0,8.21133 9.93458,12.32642 15.74467,6.51633l21.04625,-21.04625c5.07558,-5.07558 5.07558,-13.30575 -0.00942,-18.39075z" opacity="0.35"></path><circle cx="4.5" cy="17.5" transform="scale(9.41667,9.41667)" r="2.5"></circle><circle cx="12" cy="17.5" transform="scale(9.41667,9.41667)" r="2.5"></circle><circle cx="19.5" cy="17.5" transform="scale(9.41667,9.41667)" r="2.5"></circle></g></g></svg>