<svg xmlns="http://www.w3.org/2000/svg" x="0px" y="0px"
width="24" height="24"
viewBox="0 0 226 226"
style=" fill:#000000;"><g fill="none" fill-rule="nonzero" stroke="none" stroke-width="1" stroke-linecap="butt" stroke-linejoin="miter" stroke-miterlimit="10" stroke-dasharray="" stroke-dashoffset="0" font-family="none" font-weight="none" font-size="none" text-anchor="none" style="mix-blend-mode: normal"><path d="M0,226v-226h226v226z" fill="none"></path><g fill="#1a5db4"><path d="M150.66667,75.33333v-37.66667c0,-10.38658 -8.44675,-18.83333 -18.83333,-18.83333h-94.16667c-10.38658,0 -18.83333,8.44675 -18.83333,18.83333v94.16667c0,10.38658 8.44675,18.83333 18.83333,18.83333h37.66667z" opacity="0.35"></path><path d="M150.60075,173.01242l-1.60083,-6.85533h-16.46975l-1.60083,6.85533c-0.81925,3.51242 -4.05858,6.01725 -7.80642,6.01725v0c-5.17917,0 -8.99292,-4.67067 -7.76875,-9.52025l12.95733,-51.36792c1.44075,-5.71592 6.75175,-9.73683 12.85375,-9.73683v0c6.11142,0 11.42242,4.03033 12.86317,9.74625l12.882,51.3585c1.21475,4.84958 -2.599,9.51083 -7.77817,9.51083h-0.7345c-3.729,0 -6.96833,-2.49542 -7.797,-6.00783zM141.024,123.76325h-0.41433l-6.20558,30.02033h12.53358z" opacity="0.35"></path><path d="M63.55308,122.41667c-3.29583,0 -6.24325,-2.32592 -6.91183,-5.67825c-0.76275,-3.82317 1.71383,-7.54275 5.537,-8.3055c20.66958,-4.13392 36.69675,-30.04858 36.69675,-49.57875c0,-3.8985 3.164,-7.0625 7.0625,-7.0625c3.8985,0 7.0625,3.164 7.0625,7.0625c0,25.45325 -19.73733,57.76183 -48.05325,63.42125c-0.46142,0.10358 -0.93225,0.14125 -1.39367,0.14125z"></path><path d="M96.53025,113c-0.5085,0 -1.017,-0.0565 -1.54433,-0.1695c-23.79592,-5.29217 -36.86625,-25.8205 -37.41242,-26.69625c-2.07167,-3.30525 -1.06408,-7.66517 2.24117,-9.73683c3.32408,-2.07167 7.65575,-1.05467 9.718,2.23175c0.24483,0.37667 10.72558,16.45092 28.51367,20.40592c3.80433,0.8475 6.20558,4.61417 5.35808,8.42792c-0.72508,3.29583 -3.63483,5.537 -6.87417,5.537z"></path><path d="M115.35417,65.91667h-61.20833c-3.8985,0 -7.0625,-3.164 -7.0625,-7.0625c0,-3.8985 3.164,-7.0625 7.0625,-7.0625h61.20833c3.8985,0 7.0625,3.164 7.0625,7.0625c0,3.8985 -3.164,7.0625 -7.0625,7.0625z"></path><path d="M84.75,63.5625c-3.8985,0 -7.0625,-3.164 -7.0625,-7.0625v-11.77083c0,-3.8985 3.164,-7.0625 7.0625,-7.0625c3.8985,0 7.0625,3.164 7.0625,7.0625v11.77083c0,3.8985 -3.164,7.0625 -7.0625,7.0625z"></path><path d="M141.024,123.76325l5.90425,30.02033h-12.53358l6.20558,-30.02033zM207.16667,94.16667v94.16667c0,10.40542 -8.42792,18.83333 -18.83333,18.83333h-94.16667c-10.40542,0 -18.83333,-8.42792 -18.83333,-18.83333v-37.66667l75.33333,-75.33333h37.66667c10.40542,0 18.83333,8.42792 18.83333,18.83333zM166.91983,169.50942l-12.882,-51.3585c-1.43133,-5.72533 -6.75175,-9.75567 -12.86317,-9.75567c-6.102,0 -11.413,4.02092 -12.85375,9.73683l-12.95733,51.36792c-1.22417,4.84958 2.58958,9.52025 7.77817,9.52025c3.73842,0 6.98717,-2.49542 7.80642,-6.01725l1.60083,-6.85533h16.46975l1.60083,6.85533c0.81925,3.51242 4.05858,6.01725 7.80642,6.01725h0.71567c5.17917,0 8.99292,-4.66125 7.77817,-9.51083z"></path></g></g></svg>
