<svg xmlns="http://www.w3.org/2000/svg" x="0px" y="0px"
width="24" height="24"
viewBox="0 0 226 226"
style=" fill:#000000;"><g fill="none" fill-rule="nonzero" stroke="none" stroke-width="1" stroke-linecap="butt" stroke-linejoin="miter" stroke-miterlimit="10" stroke-dasharray="" stroke-dashoffset="0" font-family="none" font-weight="none" font-size="none" text-anchor="none" style="mix-blend-mode: normal"><path d="M0,226v-226h226v226z" fill="none"></path><g fill="#1a5db4"><path d="M28.25,56.5v113c0,15.60342 12.64658,28.25 28.25,28.25h113c15.60342,0 28.25,-12.64658 28.25,-28.25v-113z" opacity="0.35"></path><path d="M169.5,28.25h-113c-15.60342,0 -28.25,12.64658 -28.25,28.25v9.41667h169.5v-9.41667c0,-15.60342 -12.64658,-28.25 -28.25,-28.25z"></path><path d="M124.10225,167.10817c0,3.32408 -1.93042,11.8085 -11.15875,11.8085c-9.22833,0 -11.04575,-8.49383 -11.04575,-11.8085c0,-3.24875 2.05283,-11.94975 11.04575,-11.94975c8.99292,0 11.15875,8.701 11.15875,11.94975z"></path><path d="M102.82058,135.90133v-40.98133c0,-5.61233 4.55767,-10.17 10.17942,-10.17v0c5.62175,0 10.17942,4.55767 10.17942,10.17942v40.98133c0,5.62175 -4.55767,10.17942 -10.17942,10.17942v0c-5.62175,-0.00942 -10.17942,-4.56708 -10.17942,-10.18883z"></path></g></g></svg>
