<svg xmlns="http://www.w3.org/2000/svg" x="0px" y="0px"
width="48" height="48"
viewBox="0 0 226 226"
style=" fill:#000000;"><g fill="none" fill-rule="nonzero" stroke="none" stroke-width="1" stroke-linecap="butt" stroke-linejoin="miter" stroke-miterlimit="10" stroke-dasharray="" stroke-dashoffset="0" font-family="none" font-weight="none" font-size="none" text-anchor="none" style="mix-blend-mode: normal"><path d="M0,226v-226h226v226z" fill="none"></path><g fill="#1a5db4"><path d="M193.04167,150.66667c-3.63483,0 -156.4485,0 -160.08333,0c-7.797,0 -14.125,6.328 -14.125,14.125c0,7.797 6.328,14.125 14.125,14.125c3.63483,0 156.4485,0 160.08333,0c7.797,0 14.125,-6.328 14.125,-14.125c0,-7.797 -6.328,-14.125 -14.125,-14.125z"></path><path d="M65.91667,169.5h-28.25c0,0 0,10.49017 0,14.125c0,7.797 6.328,14.125 14.125,14.125c7.797,0 14.125,-6.328 14.125,-14.125c0,-3.63483 0,-14.125 0,-14.125z"></path><path d="M188.33333,169.5h-28.25c0,0 0,10.49017 0,14.125c0,7.797 6.328,14.125 14.125,14.125c7.797,0 14.125,-6.328 14.125,-14.125c0,-3.63483 0,-14.125 0,-14.125z"></path><path d="M65.91667,150.66667h-18.83333c-10.40542,0 -18.83333,-8.42792 -18.83333,-18.83333v-84.75c0,-10.40542 8.42792,-18.83333 18.83333,-18.83333h18.83333c10.40542,0 18.83333,8.42792 18.83333,18.83333v84.75c0,10.40542 -8.42792,18.83333 -18.83333,18.83333z" opacity="0.35"></path><path d="M122.41667,150.66667h-18.83333c-5.198,0 -9.41667,-4.21867 -9.41667,-9.41667v-84.75c0,-5.198 4.21867,-9.41667 9.41667,-9.41667h18.83333c5.198,0 9.41667,4.21867 9.41667,9.41667v84.75c0,5.198 -4.21867,9.41667 -9.41667,9.41667z"></path><path d="M188.98308,146.90942l-5.44283,2.47658c-7.19433,3.26758 -15.66933,0.09417 -18.93692,-7.10017l-31.10325,-68.40267c-3.26758,-7.19433 -0.09417,-15.66933 7.10017,-18.93692l5.44283,-2.47658c7.19433,-3.26758 15.66933,-0.09417 18.93692,7.10017l31.10325,68.40267c3.26758,7.18492 0.09417,15.65992 -7.10017,18.93692z" opacity="0.35"></path><rect x="5" y="11" transform="scale(9.41667,9.41667)" width="2" height="2"></rect><circle cx="7" cy="12" transform="scale(9.41667,9.41667)" r="1"></circle><circle cx="5" cy="12" transform="scale(9.41667,9.41667)" r="1"></circle></g></g></svg>
