<svg xmlns="http://www.w3.org/2000/svg" x="0px" y="0px"
width="24" height="24"
viewBox="0 0 172 172"
style=" fill:#000000;"><g fill="none" fill-rule="nonzero" stroke="none" stroke-width="1" stroke-linecap="butt" stroke-linejoin="miter" stroke-miterlimit="10" stroke-dasharray="" stroke-dashoffset="0" font-family="none" font-weight="none" font-size="none" text-anchor="none" style="mix-blend-mode: normal"><path d="M0,172v-172h172v172z" fill="none"></path><g fill="#95a5a6"><path d="M32.25,57.33333h14.33333c5.934,0 10.75,4.816 10.75,10.75v71.66667c0,5.934 -4.816,10.75 -10.75,10.75h-14.33333c-5.934,0 -10.75,-4.816 -10.75,-10.75v-71.66667c0,-5.934 4.816,-10.75 10.75,-10.75z"></path><path d="M117.12483,150.5h-45.45817c-7.91917,0 -14.33333,-6.41417 -14.33333,-14.33333v-70.57733c0,-5.3105 1.96367,-10.43467 5.51833,-14.3835l17.59417,-19.5435l2.71617,-16.35433c1.2255,-7.36733 9.9975,-10.49917 15.70217,-5.676c4.6225,3.90583 8.63583,9.70367 8.63583,18.06c0,12.65633 -7.16667,29.64133 -7.16667,29.64133h35.83333c11.87517,0 21.5,9.62483 21.5,21.5v9.546c0,3.15333 -0.69517,6.27083 -2.03533,9.12317l-19.04183,40.62067c-3.54033,7.55367 -11.12267,12.37683 -19.46467,12.37683z" opacity="0.35"></path></g></g></svg>
