<svg xmlns="http://www.w3.org/2000/svg" x="0px" y="0px"
width="48" height="48"
viewBox="0 0 226 226"
style=" fill:#000000;"><g fill="none" fill-rule="nonzero" stroke="none" stroke-width="1" stroke-linecap="butt" stroke-linejoin="miter" stroke-miterlimit="10" stroke-dasharray="" stroke-dashoffset="0" font-family="none" font-weight="none" font-size="none" text-anchor="none" style="mix-blend-mode: normal"><path d="M0,226v-226h226v226z" fill="none"></path><g fill="#1a5db4"><rect x="7.549" y="18.58" transform="scale(9.41667,9.41667)" width="5.611" height="3.42" opacity="0.35"></rect><rect x="9.474" y="12.534" transform="scale(9.41667,9.41667)" width="5.198" height="3.813" opacity="0.35"></rect><path d="M113,18.83333c-15.60342,0 -28.25,12.64658 -28.25,28.25c0,15.60342 12.64658,28.25 28.25,28.25c15.60342,0 28.25,-12.64658 28.25,-28.25c0,-15.60342 -12.64658,-28.25 -28.25,-28.25z" opacity="0.35"></path><path d="M172.74875,180.37625l-22.08208,-15.8765v-7.07192c0,0 14.65233,2.6555 15.44333,2.6555c4.03033,0 7.83467,-1.88333 10.29242,-5.22625c2.938,-4.00208 3.34292,-9.2095 1.03583,-13.58825l-21.77133,-41.4145c-4.89667,-9.3225 -14.48283,-15.10433 -25.01067,-15.10433h-35.32192c-10.52783,0 -20.10458,5.78183 -25.01067,15.10433l-21.77133,41.40508c-2.30708,4.38817 -1.91158,9.59558 1.03583,13.58825c2.94742,3.99267 7.82525,5.91367 12.69367,5.00025l13.0515,-2.42008v6.8365l-22.08208,16.11192c-5.23567,3.74783 -7.42033,10.396 -5.44283,16.53567c1.9775,6.13967 7.6275,10.25475 14.0685,10.25475h15.09492c-0.3955,-1.10175 -0.75333,-2.22233 -0.99817,-3.38058c-1.21475,-5.71592 -0.64975,-11.15875 1.19592,-15.97067c2.10933,-5.47108 7.61808,-8.89875 13.49408,-8.89875h5.74417c7.84408,0 15.4245,2.32592 21.89375,6.554l-18.66383,2.86267c-5.198,0 -9.41667,4.20925 -9.41667,9.41667c0,5.20742 4.21867,9.41667 9.41667,9.41667h64.48533c6.441,0 12.10042,-4.1245 14.07792,-10.25475c1.9775,-6.13025 -0.21658,-12.77842 -5.45225,-16.53567zM94.16667,147.28608c0,-10.40542 8.42792,-24.86942 18.83333,-24.86942c10.40542,0 18.83333,14.464 18.83333,24.86942c0,10.396 -8.42792,-6.03608 -18.83333,-6.03608c-10.40542,0 -18.83333,16.43208 -18.83333,6.03608z"></path></g></g></svg>
