<svg xmlns="http://www.w3.org/2000/svg" x="0px" y="0px"
width="24" height="24"
viewBox="0 0 226 226"
style=" fill:#000000;"><g fill="none" fill-rule="nonzero" stroke="none" stroke-width="1" stroke-linecap="butt" stroke-linejoin="miter" stroke-miterlimit="10" stroke-dasharray="" stroke-dashoffset="0" font-family="none" font-weight="none" font-size="none" text-anchor="none" style="mix-blend-mode: normal"><path d="M0,226v-226h226v226z" fill="none"></path><g fill="#1a5db4"><path d="M21.36642,147.13542c-15.77292,-20.0575 -15.77292,-48.22275 0,-68.28025c18.51317,-23.53225 49.06083,-50.60517 91.63358,-50.60517c42.57275,0 73.12042,27.07292 91.63358,50.61458c15.77292,20.0575 15.77292,48.22275 0,68.28025c-18.51317,23.53225 -49.06083,50.60517 -91.63358,50.60517c-42.57275,0 -73.12042,-27.07292 -91.63358,-50.61458z" opacity="0.35"></path><path d="M113,56.5c-31.20683,0 -56.5,25.29317 -56.5,56.5c0,31.20683 25.29317,56.5 56.5,56.5c31.20683,0 56.5,-25.29317 56.5,-56.5c0,-31.20683 -25.29317,-56.5 -56.5,-56.5zM122.41667,122.41667c-10.40542,0 -18.83333,-8.42792 -18.83333,-18.83333c0,-10.40542 8.42792,-18.83333 18.83333,-18.83333c10.40542,0 18.83333,8.42792 18.83333,18.83333c0,10.40542 -8.42792,18.83333 -18.83333,18.83333z"></path></g></g></svg>
