<svg xmlns="http://www.w3.org/2000/svg" x="0px" y="0px"
width="24" height="24"
viewBox="0 0 172 172"
style=" fill:#000000;"><g fill="none" fill-rule="nonzero" stroke="none" stroke-width="1" stroke-linecap="butt" stroke-linejoin="miter" stroke-miterlimit="10" stroke-dasharray="" stroke-dashoffset="0" font-family="none" font-weight="none" font-size="none" text-anchor="none" style="mix-blend-mode: normal"><path d="M0,172v-172h172v172z" fill="none"></path><g fill="#1a5db4"><path d="M136.16667,143.33333h-100.33333c-11.87517,0 -21.5,-9.62483 -21.5,-21.5v-71.66667h143.33333v71.66667c0,11.87517 -9.62483,21.5 -21.5,21.5z" opacity="0.35"></path><path d="M136.16667,71.66667c-1.333,0 -20.167,0 -21.5,0c-3.956,0 -7.16667,3.21067 -7.16667,7.16667c0,3.956 3.21067,7.16667 7.16667,7.16667c1.333,0 20.167,0 21.5,0c3.956,0 7.16667,-3.21067 7.16667,-7.16667c0,-3.956 -3.21067,-7.16667 -7.16667,-7.16667z"></path><path d="M129,100.33333c-1.333,0 -13.00033,0 -14.33333,0c-3.956,0 -7.16667,3.21067 -7.16667,7.16667c0,3.956 3.21067,7.16667 7.16667,7.16667c1.333,0 13.00033,0 14.33333,0c3.956,0 7.16667,-3.21067 7.16667,-7.16667c0,-3.956 -3.21067,-7.16667 -7.16667,-7.16667z"></path><path d="M57.33333,71.66667c-1.333,0 -20.167,0 -21.5,0c-3.956,0 -7.16667,3.21067 -7.16667,7.16667c0,3.956 3.21067,7.16667 7.16667,7.16667c1.333,0 20.167,0 21.5,0c3.956,0 7.16667,-3.21067 7.16667,-7.16667c0,-3.956 -3.21067,-7.16667 -7.16667,-7.16667z"></path><path d="M50.16667,100.33333c-1.333,0 -13.00033,0 -14.33333,0c-3.956,0 -7.16667,3.21067 -7.16667,7.16667c0,3.956 3.21067,7.16667 7.16667,7.16667c1.333,0 13.00033,0 14.33333,0c3.956,0 7.16667,-3.21067 7.16667,-7.16667c0,-3.956 -3.21067,-7.16667 -7.16667,-7.16667z"></path><rect x="11" y="6" transform="scale(7.16667,7.16667)" width="2" height="14"></rect><path d="M14.33333,50.16667c0,-11.87517 9.62483,-21.5 21.5,-21.5h100.33333c11.87517,0 21.5,9.62483 21.5,21.5z"></path></g></g></svg>