<svg xmlns="http://www.w3.org/2000/svg" x="0px" y="0px"
width="24" height="24"
viewBox="0 0 172 172"
style=" fill:#000000;"><g fill="none" fill-rule="nonzero" stroke="none" stroke-width="1" stroke-linecap="butt" stroke-linejoin="miter" stroke-miterlimit="10" stroke-dasharray="" stroke-dashoffset="0" font-family="none" font-weight="none" font-size="none" text-anchor="none" style="mix-blend-mode: normal"><path d="M0,172v-172h172v172z" fill="none"></path><g fill="#1a5db4"><path d="M125.41667,28.66667h-17.91667v-5.41083c0,-6.20633 -7.353,-9.4815 -11.96117,-5.32483l-17.9525,16.16083c-3.1605,2.84517 -3.1605,7.8045 0,10.64967l17.9525,16.16083c4.60817,4.1495 11.96117,0.8815 11.96117,-5.32483v-5.41083h17.91667c1.978,0 3.58333,1.60533 3.58333,3.58333v71.66667c0,5.934 4.816,10.75 10.75,10.75v0c5.934,0 10.75,-4.816 10.75,-10.75v-71.66667c0,-13.85317 -11.23017,-25.08333 -25.08333,-25.08333z" opacity="0.35"></path><circle cx="19.5" cy="18.5" transform="scale(7.16667,7.16667)" r="3.5"></circle><circle cx="4.5" cy="5.5" transform="scale(7.16667,7.16667)" r="3.5"></circle><circle cx="4.5" cy="18.5" transform="scale(7.16667,7.16667)" r="3.5"></circle><rect x="3" y="7" transform="scale(7.16667,7.16667)" width="3" height="12" opacity="0.35"></rect></g></g></svg>