<svg xmlns="http://www.w3.org/2000/svg" x="0px" y="0px"
width="24" height="24"
viewBox="0 0 226 226"
style=" fill:#000000;"><g fill="none" fill-rule="nonzero" stroke="none" stroke-width="1" stroke-linecap="butt" stroke-linejoin="miter" stroke-miterlimit="10" stroke-dasharray="" stroke-dashoffset="0" font-family="none" font-weight="none" font-size="none" text-anchor="none" style="mix-blend-mode: normal"><path d="M0,226v-226h226v226z" fill="none"></path><g fill="#1a5db4"><path d="M216.58333,164.79167c0,-11.38475 -8.08892,-20.88617 -18.83333,-23.07083v-9.8875v-75.33333c0,-15.60342 -12.64658,-28.25 -28.25,-28.25h-113c-15.60342,0 -28.25,12.64658 -28.25,28.25v113c0,15.60342 12.64658,28.25 28.25,28.25h141.25v-9.8875c10.74442,-2.18467 18.83333,-11.68608 18.83333,-23.07083z" opacity="0.35"></path><path d="M169.5,178.91667v37.66667c0,3.47475 1.91158,6.667 4.972,8.3055c3.051,1.6385 6.77058,1.45017 9.6615,-0.47083l8.89875,-5.9325l8.89875,5.9325c1.59142,1.05467 3.40883,1.582 5.23567,1.582c1.5255,0 3.051,-0.36725 4.44467,-1.11117c3.06042,-1.6385 4.972,-4.83075 4.972,-8.3055v-37.66667z"></path><path d="M150.66667,131.83333h-75.33333c-5.198,0 -9.41667,-4.21867 -9.41667,-9.41667v0c0,-5.198 4.21867,-9.41667 9.41667,-9.41667h75.33333c5.198,0 9.41667,4.21867 9.41667,9.41667v0c0,5.198 -4.21867,9.41667 -9.41667,9.41667z"></path><path d="M131.83333,169.5h-56.5c-5.198,0 -9.41667,-4.21867 -9.41667,-9.41667v0c0,-5.198 4.21867,-9.41667 9.41667,-9.41667h56.5c5.198,0 9.41667,4.21867 9.41667,9.41667v0c0,5.198 -4.21867,9.41667 -9.41667,9.41667z"></path><path d="M145.95833,65.91667c-3.63483,0 -62.28183,0 -65.91667,0c-7.797,0 -14.125,6.328 -14.125,14.125c0,7.797 6.328,14.125 14.125,14.125c3.63483,0 62.28183,0 65.91667,0c7.797,0 14.125,-6.328 14.125,-14.125c0,-7.797 -6.328,-14.125 -14.125,-14.125z"></path><path d="M193.04167,131.83333c-18.20242,0 -32.95833,14.75592 -32.95833,32.95833c0,18.20242 14.75592,32.95833 32.95833,32.95833c18.20242,0 32.95833,-14.75592 32.95833,-32.95833c0,-18.20242 -14.75592,-32.95833 -32.95833,-32.95833zM193.04167,178.91667c-7.797,0 -14.125,-6.328 -14.125,-14.125c0,-7.797 6.328,-14.125 14.125,-14.125c7.797,0 14.125,6.328 14.125,14.125c0,7.797 -6.328,14.125 -14.125,14.125z"></path></g></g></svg>
