<svg xmlns="http://www.w3.org/2000/svg" x="0px" y="0px"
width="24" height="24"
viewBox="0 0 226 226"
style=" fill:#000000;"><g fill="none" fill-rule="nonzero" stroke="none" stroke-width="1" stroke-linecap="butt" stroke-linejoin="miter" stroke-miterlimit="10" stroke-dasharray="" stroke-dashoffset="0" font-family="none" font-weight="none" font-size="none" text-anchor="none" style="mix-blend-mode: normal"><path d="M0,226v-226h226v226z" fill="none"></path><g fill="#1a5db4"><path d="M94.16667,113c-3.842,0 -7.458,-2.373 -8.84225,-6.20558l-16.1025,-44.2395c-1.78917,-4.87783 0.7345,-10.283 5.62175,-12.06275c4.87783,-1.77975 10.29242,0.74392 12.06275,5.63117l16.1025,44.2395c1.77975,4.88725 -0.7345,10.29242 -5.63117,12.07217c-1.05467,0.38608 -2.147,0.565 -3.21108,0.565z" opacity="0.35"></path><path d="M131.82392,113c-1.921,0 -3.86083,-0.58383 -5.52758,-1.79858c-4.20925,-3.06042 -5.1415,-8.94583 -2.08108,-13.15508l42.23375,-58.06317c3.04158,-4.20925 8.95525,-5.15092 13.14567,-2.07167c4.20925,3.06042 5.1415,8.94583 2.08108,13.15508l-42.23375,58.06317c-1.83625,2.52367 -4.69892,3.87025 -7.61808,3.87025z" opacity="0.35"></path><circle cx="5" cy="12.5" transform="scale(9.41667,9.41667)" r="2.5" opacity="0.35"></circle><path d="M94.16667,94.16667c-5.20742,0 -9.41667,4.21867 -9.41667,9.41667v26.43258c0,3.48417 -1.921,6.68583 -5.00025,8.31492l-17.03475,9.04c-4.08683,2.16583 -8.62567,3.29583 -13.24925,3.29583h-11.79908c-15.60342,0 -28.25,12.64658 -28.25,28.25v4.70833c0,7.797 6.328,14.125 14.125,14.125h37.66667c7.797,0 14.125,-6.328 14.125,-14.125v0c0,-5.82892 2.23175,-11.44125 6.24325,-15.67875l18.1365,-19.19117c2.373,-1.76092 3.87025,-4.49175 3.87025,-7.50508v-37.66667c0,-5.198 -4.20925,-9.41667 -9.41667,-9.41667z"></path><path d="M138.81108,50.19083l44.66325,31.0185c4.27517,2.96625 10.14175,1.91158 13.108,-2.36358l15.12317,-21.77133c2.96625,-4.27517 1.91158,-10.14175 -2.36358,-13.108l-44.66325,-31.0185c-4.27517,-2.96625 -10.14175,-1.91158 -13.108,2.36358l-15.12317,21.78075c-2.96625,4.26575 -1.91158,10.13233 2.36358,13.09858z"></path><circle cx="20" cy="12.5" transform="scale(9.41667,9.41667)" r="2.5" opacity="0.35"></circle><path d="M188.33333,150.66667h-9.19067c-6.0455,0 -11.93092,-1.93983 -16.78992,-5.52758l-7.345,-5.43342c-3.51242,-2.599 -6.01725,-6.33742 -7.08133,-10.57492l-6.95892,-27.82625c-1.26183,-5.03792 -6.3845,-8.136 -11.413,-6.85533c-5.04733,1.26183 -8.11717,6.37508 -6.85533,11.42242l8.73867,34.93583c0.54617,2.18467 1.47842,4.24692 2.74967,6.102l11.50717,16.73342c3.23933,4.70833 4.972,10.29242 4.972,16.00833v3.97383c0,7.797 6.328,14.125 14.125,14.125h37.66667c7.797,0 14.125,-6.328 14.125,-14.125v-4.70833c0,-15.60342 -12.64658,-28.25 -28.25,-28.25z"></path><path d="M105.63617,64.76783l-45.2,16.46033c-4.88725,1.77975 -10.29242,-0.74392 -12.07217,-5.63117l-9.17183,-25.18958c-1.77975,-4.88725 0.74392,-10.29242 5.63117,-12.07217l45.2,-16.45092c4.88725,-1.77975 10.29242,0.74392 12.07217,5.63117l9.17183,25.18958c1.77975,4.88725 -0.74392,10.29242 -5.63117,12.06275z"></path></g></g></svg>
