<svg xmlns="http://www.w3.org/2000/svg" x="0px" y="0px"
width="24" height="24"
viewBox="0 0 226 226"
style=" fill:#000000;"><g fill="none" fill-rule="nonzero" stroke="none" stroke-width="1" stroke-linecap="butt" stroke-linejoin="miter" stroke-miterlimit="10" stroke-dasharray="" stroke-dashoffset="0" font-family="none" font-weight="none" font-size="none" text-anchor="none" style="mix-blend-mode: normal"><path d="M0,226v-226h226v226z" fill="none"></path><g fill="#1a5db4"><path d="M169.5,32.95833v23.54167h-23.54167c-7.797,0 -14.125,6.328 -14.125,14.125v0c0,7.797 6.328,14.125 14.125,14.125h32.95833c10.40542,0 18.83333,-8.42792 18.83333,-18.83333v-32.95833c0,-7.797 -6.328,-14.125 -14.125,-14.125v0c-7.797,0 -14.125,6.328 -14.125,14.125z"></path><path d="M48.364,99.79783c5.01908,-25.877 25.97117,-46.65017 51.87642,-51.51858c23.43808,-4.39758 45.17175,3.64425 59.84292,18.63558v-0.99817h34.38025c-17.75042,-30.63242 -52.17775,-50.40742 -90.91792,-46.62192c-43.58975,4.25633 -79.29775,39.437 -84.11908,82.96083c-0.3955,3.62542 -0.58383,7.20375 -0.58383,10.74442h28.33475c0,-4.32225 0.32017,-8.71983 1.1865,-13.20217z"></path><path d="M113,207.16667c46.39592,0 84.95717,-33.561 92.73533,-77.72517c1.50667,-8.5315 -4.78367,-16.4415 -13.447,-16.4415h-0.87575c-6.84592,0 -12.33583,5.11325 -13.56,11.84617c-5.58408,30.75483 -32.49692,54.0705 -64.85258,54.0705c-36.39542,0 -65.81308,-29.52125 -65.8225,-65.91667h-28.33475c0,52.00825 42.149,94.16667 94.15725,94.16667z" opacity="0.35"></path></g></g></svg>
