<svg xmlns="http://www.w3.org/2000/svg" x="0px" y="0px"
width="24" height="24"
viewBox="0 0 226 226"
style=" fill:#000000;"><g fill="none" fill-rule="nonzero" stroke="none" stroke-width="1" stroke-linecap="butt" stroke-linejoin="miter" stroke-miterlimit="10" stroke-dasharray="" stroke-dashoffset="0" font-family="none" font-weight="none" font-size="none" text-anchor="none" style="mix-blend-mode: normal"><path d="M0,226v-226h226v226z" fill="none"></path><g fill="#1a5db4"><path d="M56.5,197.75h-18.83333c-10.40542,0 -18.83333,-8.42792 -18.83333,-18.83333v-28.25c0,-10.40542 8.42792,-18.83333 18.83333,-18.83333h18.83333c10.40542,0 18.83333,8.42792 18.83333,18.83333v28.25c0,10.40542 -8.42792,18.83333 -18.83333,18.83333z" opacity="0.35"></path><path d="M188.33333,197.75h-18.83333c-10.40542,0 -18.83333,-8.42792 -18.83333,-18.83333v-56.5c0,-10.40542 8.42792,-18.83333 18.83333,-18.83333h18.83333c10.40542,0 18.83333,8.42792 18.83333,18.83333v56.5c0,10.40542 -8.42792,18.83333 -18.83333,18.83333z" opacity="0.35"></path><path d="M122.41667,197.75h-18.83333c-10.40542,0 -18.83333,-8.42792 -18.83333,-18.83333v-84.75c0,-10.40542 8.42792,-18.83333 18.83333,-18.83333h18.83333c10.40542,0 18.83333,8.42792 18.83333,18.83333v84.75c0,10.40542 -8.42792,18.83333 -18.83333,18.83333z" opacity="0.35"></path><path d="M47.26225,84.75c-3.25817,0 -6.42217,-1.68558 -8.16425,-4.69892c-2.60842,-4.51058 -1.06408,-10.26417 3.42767,-12.86317l65.74717,-38.03392c2.21292,-1.28067 4.84017,-1.59142 7.26967,-0.92283l65.91667,18.57908c5.00025,1.4125 7.91942,6.6105 6.50692,11.62017c-1.4125,5.00025 -6.60108,7.91942 -11.62017,6.50692l-62.0935,-17.49617l-62.28183,36.03758c-1.49725,0.86633 -3.11692,1.27125 -4.70833,1.27125z"></path><circle cx="19" cy="6" transform="scale(9.41667,9.41667)" r="2"></circle><circle cx="12" cy="4" transform="scale(9.41667,9.41667)" r="2"></circle><circle cx="5" cy="8" transform="scale(9.41667,9.41667)" r="2"></circle></g></g></svg>
