<svg xmlns="http://www.w3.org/2000/svg" x="0px" y="0px"
width="24" height="24"
viewBox="0 0 172 172"
style=" fill:#000000;"><g fill="none" fill-rule="nonzero" stroke="none" stroke-width="1" stroke-linecap="butt" stroke-linejoin="miter" stroke-miterlimit="10" stroke-dasharray="" stroke-dashoffset="0" font-family="none" font-weight="none" font-size="none" text-anchor="none" style="mix-blend-mode: normal"><path d="M0,172v-172h172v172z" fill="none"></path><g fill="#1a5db4"><path d="M64.36383,84.67417l45.07833,-20.80483c-5.2675,-4.945 -8.6215,-11.825 -8.97983,-19.52917l-45.07833,20.80483c5.27467,4.93067 8.6215,11.81783 8.97983,19.52917z"></path><path d="M109.44933,108.13783l-45.07833,-20.80483c-0.35833,7.70417 -3.71233,14.59133 -8.97983,19.53633l45.07833,20.80483c0.35833,-7.71133 3.70517,-14.5985 8.97983,-19.53633z"></path><path d="M35.83333,57.33333c-15.83117,0 -28.66667,12.8355 -28.66667,28.66667c0,15.83117 12.8355,28.66667 28.66667,28.66667c15.83117,0 28.66667,-12.8355 28.66667,-28.66667c0,-15.83117 -12.8355,-28.66667 -28.66667,-28.66667z" opacity="0.35"></path><path d="M129,14.33333c-15.83117,0 -28.66667,12.8355 -28.66667,28.66667c0,15.83117 12.8355,28.66667 28.66667,28.66667c15.83117,0 28.66667,-12.8355 28.66667,-28.66667c0,-15.83117 -12.8355,-28.66667 -28.66667,-28.66667z" opacity="0.35"></path><path d="M129,100.33333c-15.83117,0 -28.66667,12.8355 -28.66667,28.66667c0,15.83117 12.8355,28.66667 28.66667,28.66667c15.83117,0 28.66667,-12.8355 28.66667,-28.66667c0,-15.83117 -12.8355,-28.66667 -28.66667,-28.66667z" opacity="0.35"></path></g></g></svg>