<svg xmlns="http://www.w3.org/2000/svg" x="0px" y="0px"
width="48" height="48"
viewBox="0 0 226 226"
style=" fill:#000000;"><g fill="none" fill-rule="nonzero" stroke="none" stroke-width="1" stroke-linecap="butt" stroke-linejoin="miter" stroke-miterlimit="10" stroke-dasharray="" stroke-dashoffset="0" font-family="none" font-weight="none" font-size="none" text-anchor="none" style="mix-blend-mode: normal"><path d="M0,226v-226h226v226z" fill="none"></path><g fill="#1a5db4"><circle cx="6" cy="20" transform="scale(9.41667,9.41667)" r="2" opacity="0.35"></circle><circle cx="16.5" cy="4.5" transform="scale(9.41667,9.41667)" r="2.5" opacity="0.35"></circle><path d="M148.77392,103.71517l-23.1085,62.18767l-22.04442,31.188l8.18308,-59.87117l-20.13283,19.74675l-15.15142,-10.60317l25.58508,-52.98758l-10.81975,2.21292l-18.18358,23.68292l9.76508,-34.06008l26.75275,-9.87808l45.01167,13.09858l37.6855,41.53692z"></path><path d="M197.75,131.83333c-2.00575,0 -4.03033,-0.64033 -5.74417,-1.95867l-42.34675,-32.61933c-1.8645,-1.43133 -3.94558,-2.5425 -6.19617,-3.29583l-25.55683,-8.51267c-2.85325,-0.9605 -5.97958,-0.89458 -8.80458,0.17892l-18.20242,6.87417l-17.15717,25.73575c-2.89092,4.32225 -8.73867,5.49933 -13.06092,2.60842c-4.32225,-2.8815 -5.48992,-8.72925 -2.60842,-13.06092l18.83333,-28.25c1.09233,-1.6385 2.66492,-2.89092 4.51058,-3.58775l21.02742,-7.94767c6.85533,-2.599 14.45458,-2.74025 21.4135,-0.42375l25.56625,8.52208c4.25633,1.42192 8.20192,3.53125 11.72375,6.24325l42.34675,32.61933c4.1245,3.17342 4.88725,9.08708 1.71383,13.20217c-1.85508,2.41067 -4.64242,3.6725 -7.458,3.6725z"></path><path d="M113,207.16667c-0.904,0 -1.81742,-0.13183 -2.72142,-0.40492c-4.98142,-1.50667 -7.797,-6.75175 -6.29975,-11.73317l30.47233,-101.04083c1.50667,-4.98142 6.76117,-7.797 11.73317,-6.29975c4.98142,1.50667 7.797,6.75175 6.29975,11.73317l-30.47233,101.04083c-1.22417,4.07742 -4.96258,6.70467 -9.01175,6.70467z"></path><path d="M84.74058,160.08333c-1.582,0 -3.18283,-0.3955 -4.66125,-1.243c-4.51058,-2.58017 -6.08317,-8.33375 -3.503,-12.84433l30.058,-52.61092c2.58017,-4.51058 8.33375,-6.08317 12.84433,-3.503c4.51058,2.58017 6.08317,8.33375 3.503,12.84433l-30.058,52.61092c-1.73267,3.04158 -4.9155,4.746 -8.18308,4.746z"></path></g></g></svg>
