<svg xmlns="http://www.w3.org/2000/svg" x="0px" y="0px"
width="24" height="24"
viewBox="0 0 226 226"
style=" fill:#000000;"><g fill="none" fill-rule="nonzero" stroke="none" stroke-width="1" stroke-linecap="butt" stroke-linejoin="miter" stroke-miterlimit="10" stroke-dasharray="" stroke-dashoffset="0" font-family="none" font-weight="none" font-size="none" text-anchor="none" style="mix-blend-mode: normal"><path d="M0,226v-226h226v226z" fill="none"></path><g fill="#1a5db4"><circle cx="8.5" cy="4.5" transform="scale(9.41667,9.41667)" r="2.5" opacity="0.35"></circle><circle cx="20" cy="8" transform="scale(9.41667,9.41667)" r="2" opacity="0.35"></circle><path d="M29.84142,131.83333c-1.10175,0 -2.21292,-0.19775 -3.31467,-0.60267c-4.86842,-1.82683 -7.32617,-7.26025 -5.50875,-12.12867l14.13442,-37.66667c1.82683,-4.86842 7.26025,-7.32617 12.12867,-5.49933c4.86842,1.82683 7.33558,7.25083 5.50875,12.12867l-14.13442,37.66667c-1.4125,3.76667 -5.00967,6.102 -8.814,6.102z" opacity="0.35"></path><path d="M110.93775,135.36458l-17.38317,-21.72425c0,0 -4.49175,-22.9955 -4.50117,-23.07083c-1.21475,-6.19617 -5.46167,-11.65783 -11.81792,-14.04025c-9.72742,-3.64425 -20.58483,1.28067 -24.24792,11.02692l-14.125,37.66667c-1.96808,5.23567 -1.37483,10.76325 1.03583,15.35858l-6.41275,25.63217l-13.66358,27.32717c-2.22233,4.45408 -0.60267,9.85925 3.70075,12.35467c1.47842,0.86633 3.1075,1.27125 4.71775,1.27125c3.051,0 6.0455,-1.48783 7.84408,-4.19042l18.83333,-28.25c0.32017,-0.48025 0.59325,-0.97933 0.81925,-1.51608l1.45017,-3.38058l19.47367,32.74175c1.74208,2.92858 4.86842,4.59533 8.09833,4.59533c1.34658,0 2.712,-0.29192 4.00208,-0.89458c4.38817,-2.06225 6.48808,-7.119 4.859,-11.68608l-13.1645,-56.35875l-1.48783,-12.66542l17.26075,21.57358c1.8645,2.32592 4.59533,3.53125 7.36383,3.53125c2.06225,0 4.13392,-0.678 5.876,-2.06225c4.05858,-3.24875 4.71775,-9.17183 1.469,-13.23983z"></path><path d="M209.11592,144.00908l-12.543,-12.55242l-5.74417,-17.33608c-0.02825,-0.08475 -0.09417,-0.14125 -0.12242,-0.21658c-1.34658,-4.16217 -4.44467,-7.72167 -8.86108,-9.379c-7.66517,-2.87208 -16.2155,1.00758 -19.10642,8.68217l-11.1305,29.67192c-1.54433,4.1245 -1.08292,8.46558 0.80983,12.08158l-5.85717,20.51892l-9.03058,18.05175c-2.26,4.52942 -0.54617,10.04758 3.90792,12.47708c1.44075,0.78158 2.98508,1.15825 4.51058,1.15825c3.2205,0 6.34683,-1.64792 8.09833,-4.60475l12.91967,-21.73367c0.20717,-0.35783 0.40492,-0.72508 0.565,-1.11117l0.58383,-1.356l11.79908,23.58875c1.6385,3.29583 4.96258,5.21683 8.42792,5.21683c1.243,0 2.51425,-0.24483 3.729,-0.77217c4.58592,-1.9775 6.82708,-7.19433 5.10383,-11.88383l-16.42267,-44.78567l2.034,-5.41458l13.02325,13.02325c1.82683,1.82683 4.2375,2.74967 6.64817,2.74967c2.41067,0 4.82133,-0.92283 6.65758,-2.75908c3.68192,-3.68192 3.68192,-9.63325 0,-13.31517z"></path><path d="M142.17283,150.66667c-1.10175,0 -2.21292,-0.19775 -3.31467,-0.60267c-4.86842,-1.82683 -7.32617,-7.26025 -5.50875,-12.12867l10.60317,-28.25c1.83625,-4.87783 7.26025,-7.31675 12.12867,-5.49933c4.86842,1.82683 7.32617,7.26025 5.50875,12.12867l-10.60317,28.25c-1.42192,3.77608 -5.00967,6.102 -8.814,6.102z" opacity="0.35"></path></g></g></svg>
