<svg xmlns="http://www.w3.org/2000/svg" x="0px" y="0px"
width="24" height="24"
viewBox="0 0 172 172"
style=" fill:#000000;"><g fill="none" fill-rule="nonzero" stroke="none" stroke-width="1" stroke-linecap="butt" stroke-linejoin="miter" stroke-miterlimit="10" stroke-dasharray="" stroke-dashoffset="0" font-family="none" font-weight="none" font-size="none" text-anchor="none" style="mix-blend-mode: normal"><path d="M0,172v-172h172v172z" fill="none"></path><g fill="#1a5db4"><path d="M128.28333,29.38333c-2.15,0 -4.3,-0.71667 -6.45,-0.71667h-57.33333c-12.18333,0 -21.5,9.31667 -21.5,21.5v86c0,2.15 0.71667,4.3 0.71667,6.45c-8.6,-2.86667 -15.05,-10.75 -15.05,-20.78333v-86c0,-12.18333 9.31667,-21.5 21.5,-21.5h57.33333c10.03333,0 17.91667,6.45 20.78333,15.05z"></path><path d="M43,136.16667l-7.16667,-86c0,-12.18333 16.48333,-28.66667 28.66667,-28.66667l57.33333,7.16667c12.18333,0 21.5,9.31667 21.5,21.5v86c0,12.18333 -9.31667,21.5 -21.5,21.5h-57.33333c-12.18333,0 -21.5,-9.31667 -21.5,-21.5z" opacity="0.35"></path><path d="M114.66667,71.66667h-43c-4.3,0 -7.16667,-2.86667 -7.16667,-7.16667v0c0,-4.3 2.86667,-7.16667 7.16667,-7.16667h43c4.3,0 7.16667,2.86667 7.16667,7.16667v0c0,4.3 -2.86667,7.16667 -7.16667,7.16667z"></path><path d="M114.66667,100.33333h-43c-4.3,0 -7.16667,-2.86667 -7.16667,-7.16667v0c0,-4.3 2.86667,-7.16667 7.16667,-7.16667h43c4.3,0 7.16667,2.86667 7.16667,7.16667v0c0,4.3 -2.86667,7.16667 -7.16667,7.16667z"></path><path d="M114.66667,129h-43c-4.3,0 -7.16667,-2.86667 -7.16667,-7.16667v0c0,-4.3 2.86667,-7.16667 7.16667,-7.16667h43c4.3,0 7.16667,2.86667 7.16667,7.16667v0c0,4.3 -2.86667,7.16667 -7.16667,7.16667z"></path></g></g></svg>