<svg xmlns="http://www.w3.org/2000/svg" x="0px" y="0px"
width="24" height="24"
viewBox="0 0 172 172"
style=" fill:#000000;"><g fill="none" fill-rule="nonzero" stroke="none" stroke-width="1" stroke-linecap="butt" stroke-linejoin="miter" stroke-miterlimit="10" stroke-dasharray="" stroke-dashoffset="0" font-family="none" font-weight="none" font-size="none" text-anchor="none" style="mix-blend-mode: normal"><path d="M0,172v-172h172v172z" fill="none"></path><g fill="#1a5db4"><circle cx="6.5" cy="5.5" transform="scale(7.16667,7.16667)" r="2.5"></circle><path d="M64.5,64.5c-2.0425,0 -33.79083,0 -35.83333,0c-7.91917,0 -14.33333,6.41417 -14.33333,14.33333c0,7.91917 6.41417,14.33333 14.33333,14.33333c2.0425,0 33.79083,0 35.83333,0c7.91917,0 14.33333,-6.41417 14.33333,-14.33333c0,-7.91917 -6.41417,-14.33333 -14.33333,-14.33333z"></path><circle cx="17.5" cy="5.5" transform="scale(7.16667,7.16667)" r="2.5" opacity="0.35"></circle><path d="M143.33333,64.5c-2.0425,0 -33.79083,0 -35.83333,0c-7.91917,0 -14.33333,6.41417 -14.33333,14.33333c0,7.91917 6.41417,14.33333 14.33333,14.33333c2.0425,0 33.79083,0 35.83333,0c7.91917,0 14.33333,-6.41417 14.33333,-14.33333c0,-7.91917 -6.41417,-14.33333 -14.33333,-14.33333z" opacity="0.35"></path><path d="M140.98267,109.57117l16.0175,16.0175c3.86283,3.86283 3.86283,10.13367 0,13.9965l-16.0175,16.0175c-4.42183,4.41467 -11.98267,1.28283 -11.98267,-4.9665v-36.10567c0,-6.24933 7.56083,-9.38117 11.98267,-4.95933z"></path><path d="M143.33333,143.33333h-39.41667c-5.934,0 -10.75,-4.816 -10.75,-10.75v0c0,-5.934 4.816,-10.75 10.75,-10.75h39.41667z"></path><path d="M68.08333,121.83333h-25.08333v-7.30283c0,-6.24933 -7.56083,-9.38117 -11.98267,-4.95933l-16.0175,16.0175c-3.86283,3.86283 -3.86283,10.13367 0,13.9965l16.0175,16.0175c4.42183,4.41467 11.98267,1.28283 11.98267,-4.9665v-7.30283h25.08333c5.934,0 10.75,-4.816 10.75,-10.75c0,-5.934 -4.816,-10.75 -10.75,-10.75z" opacity="0.35"></path></g></g></svg>