<svg xmlns="http://www.w3.org/2000/svg" x="0px" y="0px"
width="24" height="24"
viewBox="0 0 172 172"
style=" fill:#000000;"><g fill="none" fill-rule="none" stroke="none" stroke-width="1" stroke-linecap="butt" stroke-linejoin="miter" stroke-miterlimit="10" stroke-dasharray="" stroke-dashoffset="0" font-family="none" font-weight="none" font-size="none" text-anchor="none" style="mix-blend-mode: normal"><path d="M0,172v-172h172v172z" fill="none" fill-rule="nonzero"></path><g fill="#1a5db4"><path d="M64.4355,27.9285c4.09217,-7.826 13.459,-13.68117 24.0155,-13.68117c10.5565,0 19.9305,5.848 24.0155,13.68117c8.428,-2.6445 19.18517,-0.15767 26.66,7.31c7.46767,7.46767 9.9545,18.22483 7.31,26.66c7.826,4.09217 13.68117,13.459 13.68117,24.0155c0,10.5565 -5.848,19.92333 -13.68117,24.0155c2.6445,8.428 0.15767,19.18517 -7.31,26.66c-7.46767,7.46767 -18.22483,9.9545 -26.66,7.31c-4.09217,7.826 -13.459,13.68117 -24.0155,13.68117c-10.5565,0 -19.92333,-5.848 -24.0155,-13.68117c-8.428,2.6445 -19.19233,0.15767 -26.66,-7.31c-7.46767,-7.46767 -9.9545,-18.232 -7.31,-26.66c-7.826,-4.09217 -13.68117,-13.459 -13.68117,-24.0155c0,-10.5565 5.848,-19.9305 13.68117,-24.0155c-2.6445,-8.428 -0.15767,-19.18517 7.31,-26.66c7.46767,-7.46767 18.232,-9.94733 26.66,-7.31z" fill-rule="evenodd" opacity="0.35"></path><path d="M78.83333,114.66667c-1.83467,0 -3.66933,-0.70233 -5.06683,-2.09983l-21.5,-21.5c-2.80217,-2.80217 -2.80217,-7.3315 0,-10.13367c2.80217,-2.80217 7.3315,-2.80217 10.13367,0l16.43317,16.43317l30.7665,-30.7665c2.80217,-2.80217 7.3315,-2.80217 10.13367,0c2.80217,2.80217 2.80217,7.3315 0,10.13367l-35.83333,35.83333c-1.3975,1.3975 -3.23217,2.09983 -5.06683,2.09983z" fill-rule="nonzero"></path></g></g></svg>