<svg xmlns="http://www.w3.org/2000/svg" x="0px" y="0px"
width="24" height="24"
viewBox="0 0 172 172"
style=" fill:#000000;"><g fill="none" fill-rule="nonzero" stroke="none" stroke-width="1" stroke-linecap="butt" stroke-linejoin="miter" stroke-miterlimit="10" stroke-dasharray="" stroke-dashoffset="0" font-family="none" font-weight="none" font-size="none" text-anchor="none" style="mix-blend-mode: normal"><path d="M0,172v-172h172v172z" fill="none"></path><g fill="#1a5db4"><circle cx="12" cy="12" transform="scale(7.16667,7.16667)" r="10" opacity="0.35"></circle><path d="M118.64417,80.03733l-43,-28.66667c-2.20733,-1.46917 -5.031,-1.6125 -7.353,-0.35833c-2.33633,1.247 -3.79117,3.6765 -3.79117,6.321v57.33333c0,2.6445 1.45483,5.074 3.784,6.321c1.06067,0.56617 2.22167,0.84567 3.38267,0.84567c1.39033,0 2.7735,-0.4085 3.9775,-1.204l43,-28.66667c1.99233,-1.333 3.18917,-3.569 3.18917,-5.96267c0,-2.39367 -1.19683,-4.62967 -3.18917,-5.96267z"></path></g></g></svg>